<svg width="260" height="351" viewBox="0 0 260 351" fill="none" xmlns="http://www.w3.org/2000/svg">
<path d="M185.634 241.276C184.686 241.276 183.788 241.126 182.841 240.727C165.534 233.782 160.746 216.744 157.205 204.253C156.157 200.505 154.561 194.91 153.315 193.461C149.674 191.962 147.828 187.865 149.125 184.067C150.472 180.17 154.761 178.072 158.651 179.471C166.531 182.219 168.975 190.962 171.569 200.206C174.561 210.748 177.903 222.64 188.377 226.837C192.217 228.385 194.063 232.732 192.566 236.58C191.419 239.527 188.626 241.276 185.634 241.276Z" fill="url(#paint0_linear_1504_39027)"/>
<path d="M146.778 282.447C141.84 282.447 137.8 278.399 137.8 273.453C137.8 268.507 141.84 264.46 146.778 264.46C146.878 264.46 155.805 264.46 165.631 263.46C173.012 262.711 177.9 261.712 181.092 260.812C177.302 259.263 171.017 257.315 160.643 255.216C148.573 252.768 137.401 251.519 137.252 251.469C132.314 250.919 128.773 246.472 129.322 241.526C129.87 236.58 134.309 233.032 139.247 233.582C139.845 233.632 154.01 235.281 168.374 238.428C185.83 242.276 203.636 248.021 203.636 261.112C203.636 265.859 201.342 272.404 190.369 276.601C185.731 278.399 179.496 279.798 171.815 280.748C159.496 282.397 147.277 282.447 146.778 282.447Z" fill="url(#paint1_linear_1504_39027)"/>
<path d="M151.665 284.995C148.473 284.995 145.281 284.845 142.188 284.545C135.605 283.895 130.817 278 131.465 271.404C132.113 264.809 137.999 260.013 144.582 260.662C159.645 262.161 178.448 258.564 188.323 252.318C193.909 248.771 201.29 250.42 204.832 256.016C208.373 261.612 206.727 269.006 201.141 272.554C189.021 280.248 169.719 284.995 151.665 284.995Z" fill="url(#paint2_linear_1504_39027)"/>
<path d="M67.5267 241.276C64.5342 241.276 61.7411 239.478 60.594 236.58C59.0479 232.732 60.9431 228.386 64.7835 226.837C75.2574 222.64 78.599 210.748 81.5915 200.206C84.185 190.963 86.6788 182.219 94.5092 179.471C98.3995 178.122 102.689 180.17 104.035 184.067C105.332 187.815 103.487 191.962 99.8459 193.461C98.599 194.91 97.0529 200.506 95.9556 204.253C92.4145 216.744 87.6264 233.782 70.3197 240.727C69.3721 241.126 68.4244 241.276 67.5267 241.276Z" fill="url(#paint3_linear_1504_39027)"/>
<path d="M106.333 282.447C105.834 282.447 93.6144 282.447 81.1955 280.848C73.5147 279.848 67.2802 278.45 62.6418 276.701C51.6693 272.504 49.375 265.959 49.375 261.212C49.375 248.071 67.1805 242.375 84.6368 238.528C99.0508 235.331 113.166 233.732 113.764 233.682C118.702 233.132 123.141 236.68 123.689 241.626C124.238 246.572 120.697 251.019 115.759 251.569C115.659 251.569 104.437 252.868 92.3675 255.316C82.0433 257.415 75.7091 259.363 71.9186 260.912C75.1605 261.812 80.0982 262.811 87.5296 263.56C97.355 264.56 106.183 264.56 106.283 264.56C111.22 264.56 115.26 268.607 115.26 273.553C115.26 278.499 111.27 282.447 106.333 282.447Z" fill="url(#paint4_linear_1504_39027)"/>
<path d="M101.393 284.995C83.3876 284.995 64.0858 280.298 51.9162 272.554C46.3302 269.006 44.6843 261.612 48.2254 256.016C51.7666 250.42 59.1482 248.771 64.7342 252.318C74.6095 258.614 93.4125 262.161 108.475 260.662C115.058 260.013 120.894 264.809 121.592 271.404C122.24 278 117.452 283.895 110.869 284.545C107.777 284.845 104.634 284.995 101.393 284.995Z" fill="url(#paint5_linear_1504_39027)"/>
<path d="M127.337 254.816C113.97 254.816 102.748 244.624 101.501 231.233L100.055 215.744H154.618L153.172 231.233C151.875 244.574 140.703 254.816 127.337 254.816Z" fill="#A342E2"/>
<path d="M126.282 230.284C108.078 230.284 92.9657 216.294 91.4694 198.157L90.4719 186.166C90.023 180.52 94.0131 175.474 99.649 174.624C106.133 173.675 115.31 172.676 125.684 172.676C136.357 172.676 146.083 173.725 152.916 174.674C158.552 175.474 162.542 180.52 162.093 186.216L161.145 198.107C159.649 216.294 144.487 230.284 126.282 230.284Z" fill="url(#paint6_linear_1504_39027)"/>
<path d="M203.838 106.573L189.324 107.672L188.626 62.2551C188.576 59.8069 190.471 57.7584 192.915 57.5585C195.359 57.3587 197.504 59.1074 197.853 61.5556L203.838 106.573Z" fill="url(#paint7_linear_1504_39027)"/>
<path d="M49.9766 106.573L64.4903 107.672L65.1885 62.2551C65.2384 59.8069 63.3432 57.7584 60.8993 57.5585C58.4554 57.3587 56.3107 59.1074 55.9616 61.5556L49.9766 106.573Z" fill="url(#paint8_linear_1504_39027)"/>
<path d="M66.5391 147.194C81.386 147.194 93.4219 135.137 93.4219 120.263C93.4219 105.39 81.386 93.3329 66.5391 93.3329C51.6921 93.3329 39.6562 105.39 39.6562 120.263C39.6562 135.137 51.6921 147.194 66.5391 147.194Z" fill="url(#paint9_linear_1504_39027)"/>
<path d="M188.328 147.194C203.175 147.194 215.211 135.137 215.211 120.263C215.211 105.39 203.175 93.3329 188.328 93.3329C173.481 93.3329 161.445 105.39 161.445 120.263C161.445 135.137 173.481 147.194 188.328 147.194Z" fill="url(#paint10_linear_1504_39027)"/>
<path d="M152.62 167.879H101.897C74.6651 167.879 52.5703 145.745 52.5703 118.465C52.5703 91.1843 74.6651 69.0503 101.897 69.0503H152.62C179.852 69.0503 201.947 91.1843 201.947 118.465C201.947 145.745 179.852 167.879 152.62 167.879Z" fill="url(#paint11_linear_1504_39027)"/>
<path d="M151.625 154.988H102.896C82.7468 154.988 66.4375 138.65 66.4375 118.465C66.4375 98.2791 82.7468 81.9409 102.896 81.9409H151.625C171.774 81.9409 188.083 98.2791 188.083 118.465C188.083 138.65 171.774 154.988 151.625 154.988Z" fill="#030303"/>
<path d="M124.739 294.338C124.091 296.686 121.747 298.185 119.303 297.835C105.537 295.837 94.9141 283.945 94.9141 269.556C94.9141 255.216 105.438 243.375 119.203 241.276C121.647 240.926 123.991 242.475 124.64 244.874C125.887 249.67 127.732 258.614 127.732 270.205C127.782 281.647 126.036 289.891 124.739 294.338Z" fill="url(#paint12_linear_1504_39027)"/>
<path d="M128.328 294.338C128.977 296.686 131.321 298.185 133.765 297.835C147.53 295.837 158.154 283.945 158.154 269.556C158.154 255.216 147.63 243.375 133.865 241.276C131.421 240.926 129.077 242.475 128.428 244.874C127.181 249.67 125.336 258.614 125.336 270.205C125.336 281.647 127.082 289.891 128.328 294.338Z" fill="url(#paint13_linear_1504_39027)"/>
<path d="M45.8348 252.418C45.3859 252.418 44.937 252.418 44.4881 252.368C40.0991 252.168 32.2687 250.719 29.1266 243.125C26.5331 236.829 29.1266 230.734 32.4682 227.136C36.957 222.29 44.538 221.94 49.3759 226.437C49.8248 226.837 50.2238 227.286 50.573 227.736C56.2587 226.187 63.1416 222.44 67.2313 219.542C72.6179 215.695 80.0493 216.894 83.9396 222.29C87.78 227.686 86.5829 235.181 81.1964 239.028C79.2014 240.427 62.0443 252.418 45.8348 252.418Z" fill="url(#paint14_linear_1504_39027)"/>
<path d="M207.331 252.418C191.122 252.418 173.965 240.377 172.02 238.978C166.633 235.131 165.436 227.636 169.277 222.24C173.117 216.894 180.598 215.645 185.985 219.492C190.075 222.39 196.907 226.137 202.643 227.686C202.992 227.236 203.391 226.837 203.84 226.387C208.678 221.89 216.259 222.19 220.748 227.087C224.04 230.684 226.683 236.78 224.089 243.075C222.743 246.373 218.952 251.919 208.728 252.318C208.229 252.418 207.78 252.418 207.331 252.418Z" fill="url(#paint15_linear_1504_39027)"/>
<g opacity="0.46">
<path d="M129.969 84.7888C102.238 84.7888 76.1535 82.4405 56.5026 78.2435C30.4677 72.6475 25.0312 65.8024 25.0312 61.0559C25.0312 50.4635 51.0163 44.5677 66.4776 41.9696C67.2757 41.8197 68.0737 42.3693 68.2233 43.2187C68.3729 44.0181 67.8243 44.8176 66.9764 44.9675C54.8567 46.966 44.8318 49.6141 38.0487 52.512C31.5649 55.26 28.0238 58.3078 28.0238 61.1058C28.0238 63.0045 30.1185 69.5497 57.1509 75.3456C76.6023 79.5425 102.438 81.8409 129.969 81.8409C157.5 81.8409 183.385 79.5425 202.787 75.3456C229.819 69.5497 231.914 62.9545 231.914 61.1058C231.914 59.2572 229.819 52.6619 202.787 46.8661C183.335 42.6691 157.5 40.3708 129.969 40.3708C129.121 40.3708 128.473 39.7212 128.473 38.8718C128.473 38.0225 129.121 37.3729 129.969 37.3729C157.7 37.3729 183.784 39.7212 203.435 43.9182C229.47 49.5142 234.907 56.3592 234.907 61.1058C234.907 65.8524 229.42 72.6975 203.435 78.2934C183.784 82.4404 157.7 84.7888 129.969 84.7888Z" fill="#CF87C1"/>
</g>
<g opacity="0.46">
<path d="M129.975 58.258C95.5611 58.258 63.1422 55.3601 38.803 50.1139C21.0973 46.3166 0 39.5715 0 29.129C0 18.6865 21.0973 11.9414 38.803 8.14413C63.192 2.89791 95.5611 0 129.975 0C147.332 0 164.14 0.74946 180 2.14845C180.798 2.19842 181.446 2.94788 181.347 3.79726C181.297 4.64665 180.549 5.24622 179.701 5.14629C163.94 3.69734 147.232 2.99784 129.975 2.99784C54.0149 2.99784 2.94266 16.4881 2.94266 29.129C2.94266 41.7699 53.9651 55.2602 129.975 55.2602C205.985 55.2602 257.007 41.7699 257.007 29.129C257.007 24.7821 250.623 20.1355 239.102 16.0884C238.304 15.8386 237.905 14.9392 238.204 14.1898C238.454 13.3904 239.352 12.9906 240.1 13.2904C253.317 17.9371 260 23.2333 260 29.129C260 39.5715 238.903 46.3166 221.197 50.1139C196.758 55.3601 164.389 58.258 129.975 58.258Z" fill="#CF87C1"/>
</g>
<g opacity="0.2" filter="url(#filter0_f_1504_39027)">
<path d="M127.435 347C174.896 347 213.37 341.564 213.37 334.859C213.37 328.153 174.896 322.718 127.435 322.718C79.9745 322.718 41.5 328.153 41.5 334.859C41.5 341.564 79.9745 347 127.435 347Z" fill="#38363D"/>
</g>
<path d="M110.367 124.309H100.5V121.278L108.86 108.358H114.404V120.92H116.679V124.309H114.404V127.642H110.367V124.309ZM110.367 120.92V112.298H110.026L104.623 120.562V120.92H110.367Z" fill="white"/>
<path d="M126.672 128C125.402 128 124.255 127.77 123.232 127.311C122.208 126.834 121.327 126.163 120.587 125.3C119.867 124.419 119.308 123.363 118.91 122.132C118.531 120.902 118.341 119.524 118.341 118C118.341 116.476 118.531 115.098 118.91 113.868C119.308 112.619 119.867 111.563 120.587 110.7C121.327 109.837 122.208 109.175 123.232 108.716C124.255 108.239 125.402 108 126.672 108C127.961 108 129.118 108.239 130.141 108.716C131.165 109.175 132.037 109.837 132.757 110.7C133.497 111.563 134.056 112.619 134.435 113.868C134.833 115.098 135.032 116.476 135.032 118C135.032 119.524 134.833 120.902 134.435 122.132C134.056 123.363 133.497 124.419 132.757 125.3C132.037 126.163 131.165 126.834 130.141 127.311C129.118 127.77 127.961 128 126.672 128ZM126.672 124.281C127.98 124.281 128.976 123.739 129.658 122.656C130.359 121.554 130.71 120.002 130.71 118C130.71 115.998 130.359 114.455 129.658 113.372C128.976 112.27 127.98 111.719 126.672 111.719C125.402 111.719 124.417 112.27 123.715 113.372C123.014 114.455 122.663 115.998 122.663 118C122.663 120.002 123.014 121.554 123.715 122.656C124.417 123.739 125.402 124.281 126.672 124.281Z" fill="white"/>
<path d="M146.188 124.309H136.321V121.278L144.681 108.358H150.225V120.92H152.5V124.309H150.225V127.642H146.188V124.309ZM146.188 120.92V112.298H145.846L140.444 120.562V120.92H146.188Z" fill="white"/>
<defs>
<filter id="filter0_f_1504_39027" x="37.5" y="318.718" width="179.867" height="32.2825" filterUnits="userSpaceOnUse" color-interpolation-filters="sRGB">
<feFlood flood-opacity="0" result="BackgroundImageFix"/>
<feBlend mode="normal" in="SourceGraphic" in2="BackgroundImageFix" result="shape"/>
<feGaussianBlur stdDeviation="2" result="effect1_foregroundBlur_1504_39027"/>
</filter>
<linearGradient id="paint0_linear_1504_39027" x1="196.59" y1="232.397" x2="144.575" y2="188.828" gradientUnits="userSpaceOnUse">
<stop offset="0.000475364" stop-color="#9DED76"/>
<stop offset="1" stop-color="#4BCF70"/>
</linearGradient>
<linearGradient id="paint1_linear_1504_39027" x1="166.536" y1="282.423" x2="166.536" y2="233.54" gradientUnits="userSpaceOnUse">
<stop offset="0.000475364" stop-color="#9DED76"/>
<stop offset="1" stop-color="#4BCF70"/>
</linearGradient>
<linearGradient id="paint2_linear_1504_39027" x1="131.304" y1="268.912" x2="206.84" y2="266.755" gradientUnits="userSpaceOnUse">
<stop stop-color="#CF87C1"/>
<stop offset="1" stop-color="#C054FD"/>
</linearGradient>
<linearGradient id="paint3_linear_1504_39027" x1="56.572" y1="232.397" x2="108.587" y2="188.829" gradientUnits="userSpaceOnUse">
<stop offset="0.000475364" stop-color="#9DED76"/>
<stop offset="1" stop-color="#4BCF70"/>
</linearGradient>
<linearGradient id="paint4_linear_1504_39027" x1="86.5479" y1="282.423" x2="86.5479" y2="233.54" gradientUnits="userSpaceOnUse">
<stop offset="0.000475364" stop-color="#9DED76"/>
<stop offset="1" stop-color="#4BCF70"/>
</linearGradient>
<linearGradient id="paint5_linear_1504_39027" x1="121.769" y1="268.912" x2="46.2326" y2="266.755" gradientUnits="userSpaceOnUse">
<stop stop-color="#CF87C1"/>
<stop offset="1" stop-color="#C054FD"/>
</linearGradient>
<linearGradient id="paint6_linear_1504_39027" x1="126.291" y1="171.405" x2="126.291" y2="188.656" gradientUnits="userSpaceOnUse">
<stop stop-color="#FCEC6E"/>
<stop offset="1" stop-color="#C054FD"/>
</linearGradient>
<linearGradient id="paint7_linear_1504_39027" x1="192.275" y1="49.5822" x2="194.954" y2="85.3841" gradientUnits="userSpaceOnUse">
<stop offset="0.000475364" stop-color="#9DED76"/>
<stop offset="1" stop-color="#4BCF70"/>
</linearGradient>
<linearGradient id="paint8_linear_1504_39027" x1="61.6548" y1="49.575" x2="58.9764" y2="85.377" gradientUnits="userSpaceOnUse">
<stop offset="0.000475364" stop-color="#9DED76"/>
<stop offset="1" stop-color="#4BCF70"/>
</linearGradient>
<linearGradient id="paint9_linear_1504_39027" x1="66.5604" y1="73.7217" x2="66.5604" y2="129.822" gradientUnits="userSpaceOnUse">
<stop offset="0.000475364" stop-color="#9DED76"/>
<stop offset="1" stop-color="#4BCF70"/>
</linearGradient>
<linearGradient id="paint10_linear_1504_39027" x1="188.307" y1="73.7217" x2="188.307" y2="129.822" gradientUnits="userSpaceOnUse">
<stop offset="0.000475364" stop-color="#9DED76"/>
<stop offset="1" stop-color="#4BCF70"/>
</linearGradient>
<linearGradient id="paint11_linear_1504_39027" x1="127.26" y1="66.8054" x2="127.26" y2="96.4085" gradientUnits="userSpaceOnUse">
<stop stop-color="#FCEC6E"/>
<stop offset="0.9995" stop-color="#C054FD"/>
</linearGradient>
<linearGradient id="paint12_linear_1504_39027" x1="92.185" y1="190.563" x2="112.955" y2="270.958" gradientUnits="userSpaceOnUse">
<stop stop-color="#FCEC6E"/>
<stop offset="1" stop-color="#C054FD"/>
</linearGradient>
<linearGradient id="paint13_linear_1504_39027" x1="149.563" y1="214.076" x2="141.508" y2="268.245" gradientUnits="userSpaceOnUse">
<stop stop-color="#FCEC6E"/>
<stop offset="1" stop-color="#C054FD"/>
</linearGradient>
<linearGradient id="paint14_linear_1504_39027" x1="80.0929" y1="244.949" x2="33.3302" y2="223.274" gradientUnits="userSpaceOnUse">
<stop stop-color="#CF87C1"/>
<stop offset="1" stop-color="#C054FD"/>
</linearGradient>
<linearGradient id="paint15_linear_1504_39027" x1="173.062" y1="244.958" x2="219.823" y2="223.284" gradientUnits="userSpaceOnUse">
<stop stop-color="#CF87C1"/>
<stop offset="1" stop-color="#C054FD"/>
</linearGradient>
</defs>
</svg>
