<svg width="69" height="84" viewBox="0 0 69 84" fill="none" xmlns="http://www.w3.org/2000/svg">
<path d="M43.2188 28.5156C43.2188 29.3177 42.5678 29.9687 41.7657 29.9687H27.2345C26.4323 29.9687 25.7813 29.3177 25.7813 28.5156C25.7813 27.7135 26.4323 27.0625 27.2345 27.0625H41.7657C42.5678 27.0625 43.2188 27.7135 43.2188 28.5156ZM41.7657 32.875H27.2345C26.4323 32.875 25.7813 33.526 25.7813 34.3281C25.7813 35.1302 26.4323 35.7812 27.2345 35.7812H41.7657C42.5678 35.7812 43.2188 35.1302 43.2188 34.3281C43.2188 33.526 42.5678 32.875 41.7657 32.875ZM65.4022 72.5133L53.8848 70.758L49.6445 81.6099C48.7058 84.0134 45.3317 84.0918 44.2825 81.7349L34.5001 59.752L24.7176 81.7349C23.6685 84.0918 20.2943 84.0163 19.3556 81.6099L15.1154 70.7609L3.59792 72.5162C1.04623 72.9057 -0.709142 70.0227 0.810826 67.936L13.6826 50.2253C8.58795 44.9882 5.43758 37.8505 5.43758 29.9687C5.43758 12.8335 20.2653 -0.83751 37.787 1.08643C51.2459 2.5628 62.1211 13.6124 63.4231 27.0886C64.292 36.1009 61.0283 44.3576 55.3204 50.2224L68.1922 67.9331C69.7064 70.0198 67.9539 72.9028 65.4022 72.5133ZM31.7043 58.8888C25.6825 58.3134 20.2042 55.9012 15.8245 52.219L3.16489 69.6391L16.9812 67.5349L22.0671 80.552L31.7043 58.8888ZM34.5001 56.125C48.9238 56.125 60.6563 44.3925 60.6563 29.9687C60.6563 15.545 48.9238 3.81249 34.5001 3.81249C20.0764 3.81249 8.34383 15.545 8.34383 29.9687C8.34383 44.3925 20.0764 56.125 34.5001 56.125ZM65.8382 69.642L53.1785 52.2219C48.7959 55.9041 43.3176 58.3163 37.2988 58.8917L46.9388 80.5549L52.0248 67.5378L65.8382 69.642ZM57.7501 29.9687C57.7501 42.8086 47.3399 53.2187 34.5001 53.2187C21.6603 53.2187 11.2501 42.8086 11.2501 29.9687C11.2501 17.1289 21.6603 6.71874 34.5001 6.71874C47.3399 6.71874 57.7501 17.1289 57.7501 29.9687ZM54.8438 29.9687C54.8438 18.7506 45.7182 9.62499 34.5001 9.62499C23.282 9.62499 14.1563 18.7506 14.1563 29.9687C14.1563 41.1869 23.282 50.3125 34.5001 50.3125C45.7182 50.3125 54.8438 41.1869 54.8438 29.9687ZM41.7657 21.25H27.2345C26.4323 21.25 25.7813 21.901 25.7813 22.7031C25.7813 23.5052 26.4323 24.1562 27.2345 24.1562H41.7657C42.5678 24.1562 43.2188 23.5052 43.2188 22.7031C43.2188 21.901 42.5678 21.25 41.7657 21.25Z" fill="white"/>
</svg>
