<svg width="278" height="338" viewBox="0 0 278 338" fill="none" xmlns="http://www.w3.org/2000/svg">
<g clip-path="url(#clip0_1782_79842)">
<g opacity="0.3" filter="url(#filter0_f_1782_79842)">
<path d="M273.418 322.583C273.418 325.275 270.063 326.708 252.545 326.708C235.773 326.708 232.418 325.275 232.418 322.583C232.418 319.89 241.018 317.708 252.545 317.708C264.073 317.708 273.418 319.89 273.418 322.583Z" fill="#1C1C1C" fill-opacity="0.6"/>
</g>
<g opacity="0.3" filter="url(#filter1_f_1782_79842)">
<path d="M134 331.875C134 334.567 129.5 336 106 336C83.5 336 79 334.567 79 331.875C79 329.183 90.536 327 106 327C121.464 327 134 329.183 134 331.875Z" fill="#1C1C1C" fill-opacity="0.6"/>
</g>
<g clip-path="url(#clip1_1782_79842)">
<path d="M124.917 324.858C123.757 324.858 122.597 324.635 121.527 324.1C117.513 322.227 115.774 317.456 117.691 313.443L158.099 227.339C159.972 223.325 164.744 221.586 168.758 223.504C172.772 225.377 174.511 230.148 172.594 234.161L132.186 320.265C130.848 323.164 127.949 324.858 124.917 324.858Z" fill="url(#paint0_linear_1782_79842)"/>
<path d="M121.796 329.585C120.191 329.585 118.54 329.228 116.98 328.425C111.717 325.75 109.576 319.329 112.252 314.067L131.742 275.452C134.418 270.19 140.84 268.05 146.103 270.725C151.366 273.401 153.507 279.822 150.831 285.083L131.341 323.699C129.467 327.4 125.721 329.585 121.796 329.585Z" fill="url(#paint1_linear_1782_79842)"/>
<path d="M223.616 292.976C207.204 292.976 194.716 288.472 186.376 279.509C176.385 268.808 173.085 251.908 177.099 231.976C177.991 227.651 182.228 224.841 186.554 225.689C190.88 226.58 193.735 230.816 192.843 235.142C191.103 243.659 189.498 259.355 198.105 268.585C204.929 275.898 217.417 278.439 235.257 276.165C239.672 275.585 243.686 278.707 244.266 283.121C244.846 287.536 241.724 291.549 237.308 292.129C232.447 292.664 227.898 292.976 223.616 292.976Z" fill="url(#paint2_linear_1782_79842)"/>
<path d="M219.561 296.588C207.386 296.588 196.057 291.772 188.877 284.86C184.595 280.758 184.461 273.98 188.565 269.744C192.668 265.463 199.447 265.33 203.684 269.432C208.144 273.668 219.294 278.305 230.355 272.598C235.617 269.878 242.084 271.929 244.76 277.191C247.481 282.452 245.429 288.918 240.166 291.593C233.387 295.072 226.341 296.588 219.561 296.588Z" fill="url(#paint3_linear_1782_79842)"/>
<path d="M105.656 212.891C104.586 212.891 103.56 212.891 102.489 212.846C98.7876 212.713 95.9332 209.591 96.067 205.89C96.2008 202.189 99.3228 199.335 103.025 199.469C121.132 200.183 136.028 193.762 148.65 179.849C151.148 177.129 155.385 176.906 158.105 179.403C160.826 181.9 161.049 186.137 158.551 188.857C144.056 204.775 126.261 212.891 105.656 212.891Z" fill="url(#paint4_linear_1782_79842)"/>
<path d="M86.6547 314.112C85.0491 312.64 84.7815 310.188 86.0303 308.36C93.2109 298.148 106.948 294.492 118.41 300.289C129.827 306.041 135.045 319.24 131.165 331.012C130.452 333.107 128.266 334.356 126.081 333.91C121.755 332.974 113.905 330.833 104.628 326.196C95.5747 321.648 89.6875 316.921 86.6547 314.112Z" fill="url(#paint5_linear_1782_79842)"/>
<path d="M267.238 293.957C268.531 295.741 268.308 298.193 266.747 299.709C257.738 308.315 243.556 309.251 233.431 301.359C223.352 293.466 220.81 279.554 226.92 268.719C228.035 266.757 230.399 265.999 232.45 266.89C236.509 268.629 243.823 272.286 251.985 278.618C259.968 284.816 264.785 290.613 267.238 293.957Z" fill="url(#paint6_linear_1782_79842)"/>
<path d="M171.348 243.347C159.529 241.34 151.189 230.683 152.081 218.733L153.107 204.909L201.23 213.114L197.617 226.491C194.54 238.04 183.167 245.353 171.348 243.347Z" fill="#A342E2"/>
<path d="M174.111 221.631C158.055 218.911 146.816 204.33 148.243 188.143L149.18 177.441C149.626 172.403 153.907 168.568 158.992 168.657C164.834 168.791 173.085 169.326 182.228 170.842C191.639 172.447 200.068 174.811 205.955 176.683C210.772 178.244 213.582 183.283 212.333 188.232L209.702 198.577C205.598 214.318 190.167 224.351 174.111 221.631Z" fill="url(#paint7_linear_1782_79842)"/>
<path d="M90.2664 220.204C82.2385 220.204 75.2809 218.866 69.5721 216.28C64.2202 213.827 61.8564 207.451 64.3094 202.1C66.7623 196.749 73.1401 194.386 78.4921 196.838C84.6914 199.692 96.1536 199.469 109.132 196.259C114.885 194.832 120.683 198.31 122.111 204.062C123.538 209.814 120.059 215.611 114.306 217.038C109.087 218.331 101.149 219.936 92.764 220.204C91.9612 220.159 91.1138 220.204 90.2664 220.204Z" fill="url(#paint8_linear_1782_79842)"/>
<path d="M270.092 122.327L257.203 120.544L265.142 80.7689C265.588 78.6286 267.595 77.2017 269.736 77.4692C271.921 77.7813 273.437 79.6987 273.259 81.8837L270.092 122.327Z" fill="url(#paint9_linear_1782_79842)"/>
<path d="M134.152 92.9868L146.64 96.6878L155.828 57.1805C156.318 55.0402 155.07 52.8998 152.973 52.2756C150.877 51.6513 148.647 52.7661 147.934 54.8172L134.152 92.9868Z" fill="url(#paint10_linear_1782_79842)"/>
<path d="M146.063 132.093C159.339 132.093 170.102 121.332 170.102 108.059C170.102 94.7847 159.339 84.0242 146.063 84.0242C132.786 84.0242 122.023 94.7847 122.023 108.059C122.023 121.332 132.786 132.093 146.063 132.093Z" fill="url(#paint11_linear_1782_79842)"/>
<path d="M209.347 165.179L165.014 155.637C141.198 150.509 126.034 127.009 131.208 103.198C136.337 79.3866 159.841 64.2258 183.657 69.3983L227.989 78.9407C251.805 84.0686 266.969 107.568 261.796 131.379C256.667 155.191 233.163 170.352 209.347 165.179Z" fill="url(#paint12_linear_1782_79842)"/>
<path d="M204.843 152.471L162.25 143.285C144.633 139.495 133.439 122.149 137.23 104.536C141.021 86.9225 158.37 75.7302 175.987 79.5204L218.58 88.7061C236.197 92.4963 247.391 109.842 243.6 127.455C239.809 145.069 222.46 156.261 204.843 152.471Z" fill="#030303"/>
<path d="M183.212 110.199C181.027 120.41 171.795 123.041 161.582 120.856C151.368 118.671 144.054 112.428 146.239 102.217C148.425 92.0058 158.504 85.5402 168.718 87.7251C178.931 89.9547 185.398 99.9876 183.212 110.199Z" fill="white"/>
<path d="M159.887 108.415L156.363 107.657C154.758 107.301 153.732 105.695 154.044 104.09L157.924 86.12C158.281 84.5147 159.887 83.4891 161.492 83.8013L165.016 84.5593C166.621 84.916 167.647 86.5213 167.335 88.1265L163.455 106.097C163.143 107.702 161.537 108.727 159.887 108.415Z" fill="#030303"/>
<path d="M229.462 120.187C227.277 130.398 218.045 133.029 207.832 130.844C197.618 128.659 190.304 122.417 192.489 112.205C194.675 101.994 204.754 95.5285 214.968 97.7134C225.181 99.8984 231.648 109.976 229.462 120.187Z" fill="white"/>
<path d="M206.18 118.359L202.656 117.601C201.051 117.244 200.025 115.639 200.337 114.034L204.217 96.0636C204.574 94.4583 206.18 93.4327 207.785 93.7449L211.309 94.5029C212.914 94.8597 213.94 96.4649 213.628 98.0702L209.748 116.04C209.391 117.69 207.785 118.716 206.18 118.359Z" fill="#030303"/>
<path d="M103.169 66.9342L30.1914 58.9634L23.1683 123.238L96.1463 131.209L103.169 66.9342Z" fill="#CC9758"/>
<path d="M117.869 68.5657L55 61.699L47.9769 125.974L110.846 132.841L117.869 68.5657Z" fill="#EAB063"/>
<path d="M93.0091 65.815L79.8398 64.3887L77.2652 88.1506L90.4345 89.577L93.0091 65.815Z" fill="#FFC673"/>
<path d="M46.4658 60.7551L37.0664 59.7285L34.4703 83.4881L43.8696 84.5147L46.4658 60.7551Z" fill="#EAB063"/>
<path d="M112.689 131.991L8.76172 122.042L0.000865358 213.521L103.929 223.47L112.689 131.991Z" fill="#EAB063"/>
<path d="M133.641 133.978L44.0977 125.406L35.3368 216.885L124.881 225.457L133.641 133.978Z" fill="#FFC673"/>
<path d="M98.2633 130.594L79.4844 128.796L76.241 162.662L95.0199 164.46L98.2633 130.594Z" fill="#FFDCAE"/>
<path d="M31.954 124.27L18.5469 122.987L15.3035 156.853L28.7107 158.136L31.954 124.27Z" fill="#FFC673"/>
<path d="M141.717 17.3979L97.5703 0L75.4751 56.0431L119.622 73.4409L141.717 17.3979Z" fill="#EAB063"/>
<path d="M150.653 20.8861L112.605 5.89185L90.5103 61.9349L128.558 76.9291L150.653 20.8861Z" fill="#FFC673"/>
<path d="M135.583 14.9649L127.617 11.8254L119.44 32.5668L127.406 35.7062L135.583 14.9649Z" fill="#FFDCAE"/>
<path d="M107.395 3.85123L101.711 1.61108L93.5336 22.3524L99.2179 24.5926L107.395 3.85123Z" fill="#FFC673"/>
<path d="M277.45 136.374C274.641 149.349 261.885 157.599 248.907 154.79C243.911 153.719 246.677 142.973 249.442 129.997C252.252 117.021 255.106 106.944 259.031 107.791C272.009 110.645 280.26 123.398 277.45 136.374Z" fill="url(#paint13_linear_1782_79842)"/>
<path d="M148.605 227.338C145.662 227.338 142.986 225.376 142.183 222.433C141.202 218.866 143.298 215.21 146.866 214.184C164.304 209.368 176.569 198.711 184.374 181.633C185.891 178.289 189.86 176.773 193.25 178.333C196.595 179.849 198.111 183.818 196.55 187.207C187.14 207.808 171.619 221.274 150.434 227.116C149.81 227.249 149.23 227.338 148.605 227.338Z" fill="url(#paint14_linear_1782_79842)"/>
<path d="M112.61 237.505C108.507 237.505 104.582 235.142 102.798 231.129C100.435 225.733 102.888 219.401 108.284 217.038L113.413 214.764C115.152 214.006 117.115 213.694 119.033 213.917C132.145 215.522 145.971 212.802 151.769 209.235C156.809 206.113 163.409 207.674 166.487 212.713C169.609 217.751 168.048 224.351 163.008 227.428C149.985 235.499 130.762 236.346 119.479 235.454L116.892 236.569C115.509 237.193 114.037 237.505 112.61 237.505Z" fill="url(#paint15_linear_1782_79842)"/>
</g>
</g>
<defs>
<filter id="filter0_f_1782_79842" x="230.646" y="315.936" width="44.5438" height="12.5438" filterUnits="userSpaceOnUse" color-interpolation-filters="sRGB">
<feFlood flood-opacity="0" result="BackgroundImageFix"/>
<feBlend mode="normal" in="SourceGraphic" in2="BackgroundImageFix" result="shape"/>
<feGaussianBlur stdDeviation="0.885942" result="effect1_foregroundBlur_1782_79842"/>
</filter>
<filter id="filter1_f_1782_79842" x="77.2281" y="325.228" width="58.5438" height="12.5438" filterUnits="userSpaceOnUse" color-interpolation-filters="sRGB">
<feFlood flood-opacity="0" result="BackgroundImageFix"/>
<feBlend mode="normal" in="SourceGraphic" in2="BackgroundImageFix" result="shape"/>
<feGaussianBlur stdDeviation="0.885942" result="effect1_foregroundBlur_1782_79842"/>
</filter>
<linearGradient id="paint0_linear_1782_79842" x1="120.043" y1="323.389" x2="170.134" y2="224.209" gradientUnits="userSpaceOnUse">
<stop offset="0.000475364" stop-color="#9DED76"/>
<stop offset="1" stop-color="#4BCF70"/>
</linearGradient>
<linearGradient id="paint1_linear_1782_79842" x1="116.925" y1="328.443" x2="146.078" y2="270.72" gradientUnits="userSpaceOnUse">
<stop stop-color="#CF87C1"/>
<stop offset="1" stop-color="#C054FD"/>
</linearGradient>
<linearGradient id="paint2_linear_1782_79842" x1="209.859" y1="292.98" x2="209.859" y2="225.509" gradientUnits="userSpaceOnUse">
<stop offset="0.000475364" stop-color="#9DED76"/>
<stop offset="1" stop-color="#4BCF70"/>
</linearGradient>
<linearGradient id="paint3_linear_1782_79842" x1="241.214" y1="293.665" x2="189.763" y2="266.479" gradientUnits="userSpaceOnUse">
<stop stop-color="#CF87C1"/>
<stop offset="1" stop-color="#C054FD"/>
</linearGradient>
<linearGradient id="paint4_linear_1782_79842" x1="98.8668" y1="213.116" x2="159.485" y2="181.139" gradientUnits="userSpaceOnUse">
<stop offset="0.000475364" stop-color="#9DED76"/>
<stop offset="1" stop-color="#4BCF70"/>
</linearGradient>
<linearGradient id="paint5_linear_1782_79842" x1="115.363" y1="278.336" x2="109.247" y2="315.096" gradientUnits="userSpaceOnUse">
<stop stop-color="#FCEC6E"/>
<stop offset="1" stop-color="#C054FD"/>
</linearGradient>
<linearGradient id="paint6_linear_1782_79842" x1="262.714" y1="258.978" x2="235.521" y2="302.293" gradientUnits="userSpaceOnUse">
<stop stop-color="#FCEC6E"/>
<stop offset="1" stop-color="#C054FD"/>
</linearGradient>
<linearGradient id="paint7_linear_1782_79842" x1="182.944" y1="169.783" x2="180.363" y2="184.96" gradientUnits="userSpaceOnUse">
<stop stop-color="#FCEC6E"/>
<stop offset="1" stop-color="#C054FD"/>
</linearGradient>
<linearGradient id="paint8_linear_1782_79842" x1="110.851" y1="189.889" x2="74.9933" y2="223.245" gradientUnits="userSpaceOnUse">
<stop stop-color="#CF87C1"/>
<stop offset="1" stop-color="#C054FD"/>
</linearGradient>
<linearGradient id="paint9_linear_1782_79842" x1="270.71" y1="70.4372" x2="266.305" y2="102.175" gradientUnits="userSpaceOnUse">
<stop offset="0.000475364" stop-color="#9DED76"/>
<stop offset="1" stop-color="#4BCF70"/>
</linearGradient>
<linearGradient id="paint10_linear_1782_79842" x1="154.94" y1="45.2455" x2="145.871" y2="75.9781" gradientUnits="userSpaceOnUse">
<stop offset="0.000475364" stop-color="#9DED76"/>
<stop offset="1" stop-color="#4BCF70"/>
</linearGradient>
<linearGradient id="paint11_linear_1782_79842" x1="154.83" y1="67.4428" x2="144.278" y2="116.384" gradientUnits="userSpaceOnUse">
<stop offset="0.000475364" stop-color="#9DED76"/>
<stop offset="1" stop-color="#4BCF70"/>
</linearGradient>
<linearGradient id="paint12_linear_1782_79842" x1="206.236" y1="72.2126" x2="200.667" y2="98.038" gradientUnits="userSpaceOnUse">
<stop stop-color="#FCEC6E"/>
<stop offset="0.9995" stop-color="#C054FD"/>
</linearGradient>
<linearGradient id="paint13_linear_1782_79842" x1="272.179" y1="92.7447" x2="261.627" y2="141.686" gradientUnits="userSpaceOnUse">
<stop offset="0.000475364" stop-color="#9DED76"/>
<stop offset="1" stop-color="#4BCF70"/>
</linearGradient>
<linearGradient id="paint14_linear_1782_79842" x1="147.094" y1="228.528" x2="195.103" y2="179.616" gradientUnits="userSpaceOnUse">
<stop offset="0.000475364" stop-color="#9DED76"/>
<stop offset="1" stop-color="#4BCF70"/>
</linearGradient>
<linearGradient id="paint15_linear_1782_79842" x1="147.39" y1="200.394" x2="122.516" y2="244.62" gradientUnits="userSpaceOnUse">
<stop stop-color="#CF87C1"/>
<stop offset="1" stop-color="#C054FD"/>
</linearGradient>
<clipPath id="clip0_1782_79842">
<rect width="278" height="337.081" fill="white"/>
</clipPath>
<clipPath id="clip1_1782_79842">
<rect width="278" height="334" fill="white"/>
</clipPath>
</defs>
</svg>
