<svg width="318" height="335" viewBox="0 0 318 335" fill="none" xmlns="http://www.w3.org/2000/svg">
<g clip-path="url(#clip0_1494_71070)">
<g filter="url(#filter0_f_1494_71070)">
<path d="M192.393 327.598C192.393 330.779 182.316 334.9 161.5 334.5C135.499 334 133.001 329.181 133 326C133 322.819 153.032 322.73 166.733 322.73C180.433 322.73 192.392 324.417 192.393 327.598Z" fill="#1C1C1C" fill-opacity="0.6"/>
</g>
<g filter="url(#filter1_f_1494_71070)">
<path d="M261 326.5C261 329.193 257 335.43 230.909 335C200.5 334.5 200.5 328.693 200.5 326C200.5 323.308 212.633 326 230.909 326C249.185 326 261 323.808 261 326.5Z" fill="#1C1C1C" fill-opacity="0.6"/>
</g>
<g clip-path="url(#clip1_1494_71070)">
<path d="M244.824 162.239C233.242 162.239 220.154 158.297 210.598 148.392C207.638 145.28 207.742 140.354 210.806 137.397C213.922 134.441 218.856 134.545 221.816 137.605C233.035 149.274 251.991 147.718 256.977 143.88C260.405 141.287 265.287 141.909 267.884 145.332C270.48 148.755 269.857 153.63 266.429 156.223C261.651 159.957 253.653 162.239 244.824 162.239Z" fill="url(#paint0_linear_1494_71070)"/>
<path d="M269.909 156.897L254.743 137.138L254.691 137.19C254.795 137.086 264.767 129.151 267.623 116.757C269.181 110.067 275.881 105.866 282.581 107.422C289.281 108.977 293.488 115.668 291.929 122.358C287.047 143.31 271.623 155.549 269.909 156.897Z" fill="url(#paint1_linear_1494_71070)"/>
<path d="M172.997 322.645C167.855 322.645 163.648 318.445 163.648 313.31V190.607C163.648 185.472 167.855 181.271 172.997 181.271C178.139 181.271 182.345 185.472 182.345 190.607V313.31C182.345 318.445 178.139 322.645 172.997 322.645Z" fill="url(#paint2_linear_1494_71070)"/>
<path d="M172.996 325.757C166.088 325.757 160.531 320.208 160.531 313.311V263.005C160.531 256.108 166.088 250.559 172.996 250.559C179.903 250.559 185.461 256.108 185.461 263.005V313.311C185.461 320.156 179.851 325.757 172.996 325.757Z" fill="url(#paint3_linear_1494_71070)"/>
<path d="M221.713 322.645C217.454 322.645 213.611 319.689 212.624 315.385L186.968 202.379C185.825 197.349 188.993 192.37 194.031 191.229C199.069 190.088 204.055 193.252 205.197 198.282L230.853 311.288C231.996 316.318 228.828 321.297 223.79 322.438C223.063 322.542 222.388 322.645 221.713 322.645Z" fill="url(#paint4_linear_1494_71070)"/>
<path d="M221.712 325.757C216 325.757 210.91 321.867 209.559 316.059L198.082 265.753C196.575 259.063 200.73 252.373 207.482 250.869C214.182 249.365 220.882 253.514 222.388 260.256L233.865 310.562C235.372 317.252 231.217 323.942 224.465 325.446C223.53 325.653 222.595 325.757 221.712 325.757Z" fill="url(#paint5_linear_1494_71070)"/>
<path d="M112.232 183.865C109.219 183.865 106.311 182.102 105.064 179.146C103.402 175.204 105.22 170.64 109.167 168.929C125.631 161.928 135.031 153.008 145.886 142.739C147.652 141.079 149.47 139.316 151.339 137.605C154.507 134.7 159.441 134.856 162.35 138.02C165.258 141.183 165.102 146.11 161.934 149.014C160.116 150.674 158.351 152.385 156.585 154.045C145.626 164.417 134.304 175.204 115.244 183.295C114.309 183.658 113.27 183.865 112.232 183.865Z" fill="url(#paint6_linear_1494_71070)"/>
<path d="M137.055 330.943C134.614 330.269 133.056 327.832 133.42 325.29C135.497 310.977 147.858 299.93 162.815 299.93C177.721 299.93 190.03 310.873 192.211 325.187C192.575 327.728 190.965 330.165 188.472 330.84C183.486 332.136 174.189 334.055 162.14 334.055C150.247 334.107 141.677 332.24 137.055 330.943Z" fill="url(#paint7_linear_1494_71070)"/>
<path d="M204.989 330.943C202.548 330.269 200.99 327.832 201.353 325.29C203.431 310.977 215.791 299.93 230.749 299.93C245.655 299.93 257.963 310.873 260.145 325.187C260.508 327.728 258.898 330.165 256.405 330.84C251.42 332.136 242.123 334.055 230.074 334.055C218.232 334.107 209.663 332.24 204.989 330.943Z" fill="url(#paint8_linear_1494_71070)"/>
<path d="M184.163 212.803C170.244 212.803 158.558 202.223 157.26 188.325L155.754 172.248H212.572L211.066 188.325C209.767 202.172 198.082 212.803 184.163 212.803Z" fill="#A342E2"/>
<path d="M183.123 187.391C164.166 187.391 148.43 172.87 146.871 154.044L145.833 141.598C145.365 135.737 149.52 130.499 155.389 129.618C162.141 128.632 171.697 127.595 182.5 127.595C193.614 127.595 203.741 128.684 210.856 129.67C216.725 130.499 220.88 135.737 220.413 141.65L219.426 153.993C217.816 172.87 202.027 187.391 183.123 187.391Z" fill="url(#paint9_linear_1494_71070)"/>
<path d="M262.483 50.7887L247.37 52.0852L246.071 4.94338C246.019 2.40217 247.941 0.275862 250.486 0.0165556C253.031 -0.190889 255.264 1.57237 255.628 4.11358L262.483 50.7887Z" fill="url(#paint10_linear_1494_71070)"/>
<path d="M102.312 52.6037L117.426 53.5372L117.634 6.39537C117.634 3.85417 115.66 1.72786 113.115 1.57228C110.57 1.41669 108.337 3.23183 108.025 5.77303L102.312 52.6037Z" fill="url(#paint11_linear_1494_71070)"/>
<path d="M119.712 94.5597C135.173 94.5597 147.706 82.0447 147.706 66.6066C147.706 51.1684 135.173 38.6533 119.712 38.6533C104.252 38.6533 91.7188 51.1684 91.7188 66.6066C91.7188 82.0447 104.252 94.5597 119.712 94.5597Z" fill="url(#paint12_linear_1494_71070)"/>
<path d="M246.49 93.1076C261.95 93.1076 274.483 80.5925 274.483 65.1544C274.483 49.7163 261.95 37.2012 246.49 37.2012C231.029 37.2012 218.496 49.7163 218.496 65.1544C218.496 80.5925 231.029 93.1076 246.49 93.1076Z" fill="url(#paint13_linear_1494_71070)"/>
<path d="M209.872 115.045L157.054 115.667C128.697 115.978 105.429 93.2631 105.066 64.9468C104.754 36.6306 127.502 13.3967 155.859 13.0337L208.678 12.4114C237.035 12.1002 260.302 34.8154 260.666 63.1317C261.029 91.4479 238.281 114.682 209.872 115.045Z" fill="url(#paint14_linear_1494_71070)"/>
<path d="M208.681 101.665L157.939 102.235C136.957 102.494 119.767 85.6913 119.507 64.7394C119.247 43.7874 136.074 26.6213 157.057 26.362L207.798 25.7915C228.78 25.5322 245.971 42.3353 246.231 63.2873C246.49 84.2392 229.663 101.405 208.681 101.665Z" fill="#030303"/>
<path d="M178.555 63.3909C178.711 75.5264 168.895 80.92 156.742 81.0755C144.589 81.2311 134.669 76.045 134.514 63.9095C134.358 51.7739 144.122 41.8166 156.275 41.661C168.428 41.5054 178.399 51.2553 178.555 63.3909Z" fill="white"/>
<path d="M158.768 77.8087L154.561 77.8605C152.639 77.8605 151.029 76.3566 151.029 74.3858L150.77 52.9671C150.77 51.0482 152.276 49.4406 154.249 49.4406L158.456 49.3887C160.378 49.3887 161.988 50.8927 161.988 52.8634L162.247 74.2821C162.247 76.2009 160.689 77.7568 158.768 77.8087Z" fill="#030303"/>
<path d="M233.661 62.7688C233.817 74.9044 224.001 80.2979 211.848 80.4535C199.695 80.6091 189.775 75.423 189.619 63.2874C189.463 51.1519 199.227 41.1945 211.38 41.0389C223.533 40.8834 233.505 50.6333 233.661 62.7688Z" fill="white"/>
<path d="M213.873 77.1861L209.666 77.238C207.745 77.238 206.135 75.7339 206.135 73.7632L205.875 52.3445C205.875 50.4257 207.381 48.818 209.355 48.818L213.562 48.7661C215.483 48.7661 217.093 50.2701 217.093 52.2408L217.353 73.6595C217.353 75.5784 215.795 77.1342 213.873 77.1861Z" fill="#030303"/>
<path d="M302.472 194.237H247.004V110.429H318V178.73C318 187.288 311.041 194.237 302.472 194.237Z" fill="url(#paint15_linear_1494_71070)"/>
<path d="M285.487 187.287L282.682 180.494H275.359L285.227 165.817L295.355 172.663L285.487 187.287Z" fill="#C1C9A3"/>
<path d="M302.419 187.287L305.171 180.493H312.546L302.678 165.816L292.551 172.662L302.419 187.287Z" fill="#C1C9A3"/>
<path d="M293.953 140.975L298.887 145.902L305.899 145.331L306.522 152.281L312.235 156.274L308.236 162.031L310.053 168.773L303.25 170.588L300.29 176.915L293.953 173.959L287.617 176.915L284.657 170.588L277.905 168.773L279.723 162.031L275.672 156.274L281.437 152.281L282.008 145.331L289.019 145.902L293.953 140.975Z" fill="#ACB290"/>
<path d="M293.951 169.758C299.917 169.758 304.754 164.928 304.754 158.971C304.754 153.013 299.917 148.184 293.951 148.184C287.985 148.184 283.148 153.013 283.148 158.971C283.148 164.928 287.985 169.758 293.951 169.758Z" fill="#C1C9A3"/>
<path d="M286.528 176.241H233.605V178.731C233.605 187.288 240.565 194.237 249.134 194.237H304.602C294.63 194.237 286.528 186.199 286.528 176.241Z" fill="url(#paint16_linear_1494_71070)"/>
<path d="M268.453 121.787C265.441 121.787 263 119.349 263 116.341V109.029C263 106.021 265.441 103.583 268.453 103.583C271.466 103.583 273.907 106.021 273.907 109.029V116.341C273.907 119.349 271.466 121.787 268.453 121.787Z" fill="#C360EF"/>
<path d="M277.856 121.787C274.843 121.787 272.402 119.35 272.402 116.342V109.029C272.402 106.021 274.843 103.584 277.856 103.584C280.868 103.584 283.309 106.021 283.309 109.029V116.342C283.309 119.35 280.868 121.787 277.856 121.787Z" fill="#C360EF"/>
<path d="M287.203 121.787C284.191 121.787 281.75 119.35 281.75 116.342V109.029C281.75 106.021 284.191 103.584 287.203 103.584C290.216 103.584 292.657 106.021 292.657 109.029V116.342C292.657 119.35 290.216 121.787 287.203 121.787Z" fill="#C360EF"/>
<path d="M108.646 300.501L64.7085 331.254C62.4233 332.862 59.3591 332.862 57.022 331.254L13.0842 300.501C10.6951 298.841 9.189 296.248 8.92932 293.396L0.0482883 203.313C-0.523007 197.504 4.04735 192.474 9.91611 192.474H111.814C117.683 192.474 122.253 197.504 121.682 203.313L112.801 293.396C112.541 296.248 111.035 298.841 108.646 300.501Z" fill="url(#paint17_linear_1494_71070)"/>
<path d="M101.427 292.411L63.2027 319.171C61.8004 320.156 59.9307 320.156 58.5284 319.171L20.3036 292.411C19.3168 291.736 18.6936 290.647 18.5897 289.506L10.6955 207.047C10.4877 204.661 12.3574 202.639 14.7465 202.639H106.933C109.322 202.639 111.191 204.713 110.984 207.047L103.089 289.506C103.038 290.647 102.414 291.736 101.427 292.411Z" fill="url(#paint18_linear_1494_71070)"/>
<path d="M97.1155 288.313L62.1107 312.792C61.3836 313.31 60.4487 313.31 59.7216 312.792L24.7168 288.313C24.1974 287.95 23.8858 287.432 23.8339 286.809L16.1993 209.951C16.0954 208.706 17.0303 207.669 18.2767 207.669H103.556C104.802 207.669 105.737 208.758 105.633 209.951L97.9984 286.809C97.8945 287.432 97.5829 287.95 97.1155 288.313Z" fill="url(#paint19_linear_1494_71070)"/>
<path d="M60.6036 274.414C59.409 274.414 58.2145 273.947 57.2797 273.066L38.375 254.188C36.5573 252.373 36.5573 249.417 38.375 247.602C40.1928 245.787 43.1531 245.787 44.9709 247.602L60.6036 263.212L87.6622 236.192C89.4799 234.377 92.4403 234.377 94.2581 236.192C96.0758 238.008 96.0758 240.964 94.2581 242.779L63.9275 273.066C62.9926 273.947 61.7981 274.414 60.6036 274.414Z" fill="#BDFFC0"/>
<path d="M61.1292 200.823C56.7665 200.823 52.5078 198.541 50.2226 194.444C46.8468 188.428 49.0281 180.857 55.0527 177.537L62.2198 173.544C63.9856 172.559 66.0112 171.988 68.0367 171.988C81.7997 171.729 96.9649 168.462 108.651 163.172C114.935 160.32 122.31 163.12 125.166 169.395C128.023 175.671 125.218 183.035 118.934 185.887C105.275 192.059 87.8242 196.052 71.7241 196.83L67.2057 199.319C65.2321 200.305 63.1547 200.823 61.1292 200.823Z" fill="url(#paint20_linear_1494_71070)"/>
<path d="M291.307 133.922H271.935C270.636 133.922 269.598 132.885 269.598 131.589C269.598 130.292 270.636 129.255 271.935 129.255H291.307C292.605 129.255 293.644 130.292 293.644 131.589C293.644 132.885 292.605 133.922 291.307 133.922Z" fill="#C1C9A3"/>
<path d="M275.467 145.747H256.095C254.797 145.747 253.758 144.709 253.758 143.413C253.758 142.116 254.797 141.079 256.095 141.079H275.467C276.765 141.079 277.804 142.116 277.804 143.413C277.804 144.709 276.765 145.747 275.467 145.747Z" fill="#C1C9A3"/>
<path d="M270.637 155.445H256.095C254.797 155.445 253.758 154.408 253.758 153.111C253.758 151.815 254.797 150.777 256.095 150.777H270.637C271.935 150.777 272.974 151.815 272.974 153.111C272.974 154.408 271.935 155.445 270.637 155.445Z" fill="#C1C9A3"/>
<path d="M265.39 165.091H256.146C254.847 165.091 253.809 164.054 253.809 162.757C253.809 161.461 254.847 160.423 256.146 160.423H265.39C266.689 160.423 267.727 161.461 267.727 162.757C267.727 164.054 266.637 165.091 265.39 165.091Z" fill="#C1C9A3"/>
</g>
</g>
<defs>
<filter id="filter0_f_1494_71070" x="131.228" y="320.959" width="62.9383" height="15.3402" filterUnits="userSpaceOnUse" color-interpolation-filters="sRGB">
<feFlood flood-opacity="0" result="BackgroundImageFix"/>
<feBlend mode="normal" in="SourceGraphic" in2="BackgroundImageFix" result="shape"/>
<feGaussianBlur stdDeviation="0.885942" result="effect1_foregroundBlur_1494_71070"/>
</filter>
<filter id="filter1_f_1494_71070" x="198.728" y="323.032" width="64.0438" height="13.7615" filterUnits="userSpaceOnUse" color-interpolation-filters="sRGB">
<feFlood flood-opacity="0" result="BackgroundImageFix"/>
<feBlend mode="normal" in="SourceGraphic" in2="BackgroundImageFix" result="shape"/>
<feGaussianBlur stdDeviation="0.885942" result="effect1_foregroundBlur_1494_71070"/>
</filter>
<linearGradient id="paint0_linear_1494_71070" x1="266.941" y1="158.583" x2="209.725" y2="137.99" gradientUnits="userSpaceOnUse">
<stop offset="0.000475364" stop-color="#9DED76"/>
<stop offset="1" stop-color="#4BCF70"/>
</linearGradient>
<linearGradient id="paint1_linear_1494_71070" x1="282.956" y1="151.962" x2="267.263" y2="111.122" gradientUnits="userSpaceOnUse">
<stop stop-color="#CF87C1"/>
<stop offset="1" stop-color="#C054FD"/>
</linearGradient>
<linearGradient id="paint2_linear_1494_71070" x1="172.991" y1="322.64" x2="172.991" y2="181.262" gradientUnits="userSpaceOnUse">
<stop offset="0.000475364" stop-color="#9DED76"/>
<stop offset="1" stop-color="#4BCF70"/>
</linearGradient>
<linearGradient id="paint3_linear_1494_71070" x1="172.99" y1="325.752" x2="172.99" y2="250.544" gradientUnits="userSpaceOnUse">
<stop stop-color="#CF87C1"/>
<stop offset="1" stop-color="#C054FD"/>
</linearGradient>
<linearGradient id="paint4_linear_1494_71070" x1="208.877" y1="322.642" x2="208.877" y2="190.955" gradientUnits="userSpaceOnUse">
<stop offset="0.000475364" stop-color="#9DED76"/>
<stop offset="1" stop-color="#4BCF70"/>
</linearGradient>
<linearGradient id="paint5_linear_1494_71070" x1="215.972" y1="325.754" x2="215.972" y2="250.541" gradientUnits="userSpaceOnUse">
<stop stop-color="#CF87C1"/>
<stop offset="1" stop-color="#C054FD"/>
</linearGradient>
<linearGradient id="paint6_linear_1494_71070" x1="102.441" y1="173.084" x2="166.247" y2="146.073" gradientUnits="userSpaceOnUse">
<stop offset="0.000475364" stop-color="#9DED76"/>
<stop offset="1" stop-color="#4BCF70"/>
</linearGradient>
<linearGradient id="paint7_linear_1494_71070" x1="148.136" y1="278.693" x2="161.048" y2="320.071" gradientUnits="userSpaceOnUse">
<stop stop-color="#FCEC6E"/>
<stop offset="1" stop-color="#C054FD"/>
</linearGradient>
<linearGradient id="paint8_linear_1494_71070" x1="247.344" y1="297.784" x2="233.594" y2="319.586" gradientUnits="userSpaceOnUse">
<stop stop-color="#FCEC6E"/>
<stop offset="1" stop-color="#C054FD"/>
</linearGradient>
<linearGradient id="paint9_linear_1494_71070" x1="183.096" y1="126.231" x2="183.096" y2="144.137" gradientUnits="userSpaceOnUse">
<stop stop-color="#FCEC6E"/>
<stop offset="1" stop-color="#C054FD"/>
</linearGradient>
<linearGradient id="paint10_linear_1494_71070" x1="249.791" y1="-8.23094" x2="252.989" y2="28.8985" gradientUnits="userSpaceOnUse">
<stop offset="0.000475364" stop-color="#9DED76"/>
<stop offset="1" stop-color="#4BCF70"/>
</linearGradient>
<linearGradient id="paint11_linear_1494_71070" x1="113.712" y1="-6.67413" x2="111.368" y2="30.5184" gradientUnits="userSpaceOnUse">
<stop offset="0.000475364" stop-color="#9DED76"/>
<stop offset="1" stop-color="#4BCF70"/>
</linearGradient>
<linearGradient id="paint12_linear_1494_71070" x1="119.122" y1="18.3151" x2="119.791" y2="76.5401" gradientUnits="userSpaceOnUse">
<stop offset="0.000475364" stop-color="#9DED76"/>
<stop offset="1" stop-color="#4BCF70"/>
</linearGradient>
<linearGradient id="paint13_linear_1494_71070" x1="245.894" y1="16.8576" x2="246.563" y2="75.0826" gradientUnits="userSpaceOnUse">
<stop offset="0.000475364" stop-color="#9DED76"/>
<stop offset="1" stop-color="#4BCF70"/>
</linearGradient>
<linearGradient id="paint14_linear_1494_71070" x1="182.243" y1="10.4102" x2="182.596" y2="41.1343" gradientUnits="userSpaceOnUse">
<stop stop-color="#FCEC6E"/>
<stop offset="0.9995" stop-color="#C054FD"/>
</linearGradient>
<linearGradient id="paint15_linear_1494_71070" x1="282.524" y1="132.446" x2="282.524" y2="171.553" gradientUnits="userSpaceOnUse">
<stop offset="0.000475364" stop-color="#E8EDDA"/>
<stop offset="1" stop-color="#D6DEB6"/>
</linearGradient>
<linearGradient id="paint16_linear_1494_71070" x1="269.091" y1="180.769" x2="269.091" y2="191.64" gradientUnits="userSpaceOnUse">
<stop offset="0.000475364" stop-color="#E8EDDA"/>
<stop offset="1" stop-color="#D6DEB6"/>
</linearGradient>
<linearGradient id="paint17_linear_1494_71070" x1="0.0738408" y1="262.448" x2="121.75" y2="262.448" gradientUnits="userSpaceOnUse">
<stop offset="0.000475364" stop-color="#9DED76"/>
<stop offset="1" stop-color="#4BCF70"/>
</linearGradient>
<linearGradient id="paint18_linear_1494_71070" x1="145.878" y1="208.138" x2="4.61271" y2="277.791" gradientUnits="userSpaceOnUse">
<stop offset="0.000475364" stop-color="#9DED76"/>
<stop offset="1" stop-color="#4BCF70"/>
</linearGradient>
<linearGradient id="paint19_linear_1494_71070" x1="51.9532" y1="206.785" x2="79.448" y2="296.05" gradientUnits="userSpaceOnUse">
<stop offset="0.000475364" stop-color="#9DED76"/>
<stop offset="1" stop-color="#4BCF70"/>
</linearGradient>
<linearGradient id="paint20_linear_1494_71070" x1="99.8441" y1="154.318" x2="75.085" y2="208.376" gradientUnits="userSpaceOnUse">
<stop stop-color="#CF87C1"/>
<stop offset="1" stop-color="#C054FD"/>
</linearGradient>
<clipPath id="clip0_1494_71070">
<rect width="318" height="335" fill="white"/>
</clipPath>
<clipPath id="clip1_1494_71070">
<rect width="318" height="334.056" fill="white"/>
</clipPath>
</defs>
</svg>
