<svg width="18" height="16" viewBox="0 0 18 16" fill="none" xmlns="http://www.w3.org/2000/svg">
<path d="M1.875 7C1.32272 7 0.875 7.44772 0.875 8C0.875 8.55228 1.32272 9 1.875 9V7ZM16.8321 8.70711C17.2226 8.31658 17.2226 7.68342 16.8321 7.29289L10.4681 0.928932C10.0776 0.538408 9.44446 0.538408 9.05393 0.928932C8.66341 1.31946 8.66341 1.95262 9.05393 2.34315L14.7108 8L9.05393 13.6569C8.66341 14.0474 8.66341 14.6805 9.05393 15.0711C9.44446 15.4616 10.0776 15.4616 10.4681 15.0711L16.8321 8.70711ZM1.875 9H16.125V7H1.875V9Z" fill="#37ADE6"/>
</svg>
