<svg width="48" height="34" viewBox="0 0 48 34" fill="none" xmlns="http://www.w3.org/2000/svg">
<g clip-path="url(#clip0_1366_22851)">
<path d="M46.9963 5.30951C46.4432 3.21849 44.8191 1.57526 42.7526 1.01552C39.0109 3.03984e-07 23.9999 0 23.9999 0C23.9999 0 8.98912 3.03984e-07 5.24727 1.01552C3.18077 1.57526 1.5568 3.21849 1.00362 5.30951C3.00421e-07 9.09571 0 17 0 17C0 17 3.00421e-07 24.9043 1.00362 28.6906C1.5568 30.7816 3.18077 32.4248 5.24727 32.9844C8.98912 34 23.9999 34 23.9999 34C23.9999 34 39.0109 34 42.7526 32.9844C44.8191 32.4248 46.4432 30.7816 46.9963 28.6906C48 24.9043 48 17 48 17C48 17 47.996 9.09571 46.9963 5.30951Z" fill="#FF0000"/>
<path d="M19.1953 24.2853L31.6655 17.0008L19.1953 9.71619V24.2853Z" fill="white"/>
</g>
<defs>
<clipPath id="clip0_1366_22851">
<rect width="48" height="34" fill="white"/>
</clipPath>
</defs>
</svg>
