<svg width="60" height="34" viewBox="0 0 60 34" fill="none" xmlns="http://www.w3.org/2000/svg">
<path d="M60 22.2387C60 26.6671 49.5185 30.3486 35.6571 31.1939C35.9018 30.7959 36.0488 30.3486 36.0488 29.8504C36.0488 29.3039 35.9018 28.8057 35.5594 28.4077C47.6569 27.7118 56.7177 24.8755 56.7177 21.8406C56.7177 20.1993 54.0736 18.507 49.6647 17.1144C49.7632 16.6171 49.8117 16.0196 49.8117 15.4722C56.0813 17.1144 60 19.5518 60 22.2387ZM27.8206 25.7216C27.4289 25.473 26.9879 25.7708 26.9879 26.219V28.4578C13.6652 28.0597 3.28226 25.0249 3.28226 21.7914C3.28226 19.8013 7.20007 17.711 13.2735 16.3183V14.6761C5.24074 16.3684 0 19.1546 0 22.2387C0 26.9649 11.8537 30.8459 26.9879 31.294V33.4327C26.9879 33.8808 27.4773 34.1295 27.8206 33.9309L33.747 30.2985C34.0894 30.1 34.0894 29.5526 33.747 29.3039L27.8206 25.7216Z" fill="url(#paint0_linear_1366_22860)"/>
<path d="M12.3922 6.81569L12.4899 6.76561L15.0363 6.06971C15.0856 6.06971 15.0856 6.06971 15.1349 6.11892C15.1833 6.169 15.1833 6.169 15.1833 6.21821V20.6465C15.1833 20.7458 15.2326 20.7959 15.2819 20.846C15.3303 20.8952 15.4289 20.9453 15.5266 20.9453H18.5633C18.661 20.9453 18.7103 20.8952 18.7587 20.846C18.808 20.7959 18.8573 20.6966 18.8573 20.6465V2.8354C18.8573 2.73611 18.808 2.68603 18.7587 2.63682C18.7103 2.58674 18.6126 2.53666 18.5633 2.53666H15.4289C15.2326 2.53666 15.1349 2.58674 15.0363 2.63682L12.3429 3.88012C12.1959 3.9302 12.0982 4.07957 12.0982 4.22893L12.1959 6.46774C12.1959 6.7164 12.2452 6.81569 12.3922 6.81569Z" fill="url(#paint1_linear_1366_22860)"/>
<path d="M21.8938 12.7861C21.5021 13.6314 21.3058 14.5276 21.3058 15.4722C21.3058 16.4677 21.5021 17.363 21.9422 18.1591C22.4324 19.1045 23.1674 19.8505 24.0978 20.3478C25.0282 20.846 26.1548 21.0946 27.3792 21.0946C28.6529 21.0946 29.7795 20.846 30.6606 20.2986C31.591 19.8013 32.2767 19.0544 32.7177 18.1591C33.1586 17.4131 33.3549 16.5169 33.3549 15.4722C33.3549 14.4775 33.1586 13.5822 32.7669 12.7861C32.4237 12.1394 31.9835 11.592 31.3956 11.2432C31.3463 11.194 31.3463 11.1439 31.3956 11.0446C31.7873 10.7459 32.179 10.3479 32.4729 9.90061C32.9139 9.20385 33.1586 8.35771 33.1586 7.46236C33.1586 6.26828 32.8162 5.22356 32.1305 4.32821C31.6403 3.68152 30.9546 3.13413 30.1712 2.7361C29.3385 2.33807 28.4081 2.13862 27.3792 2.13862C26.3503 2.13862 25.4199 2.33807 24.5872 2.68602C23.7545 3.08405 23.0688 3.58137 22.5794 4.27813C21.8938 5.12427 21.5505 6.16899 21.5505 7.41229C21.5505 8.3085 21.7468 9.05448 22.1385 9.80046C22.4324 10.3479 22.7749 10.7459 23.2158 11.0446C23.2651 11.0947 23.2651 11.194 23.2158 11.2432C22.6279 11.6913 22.1877 12.1886 21.8938 12.7861ZM25.4199 6.51694C25.6161 6.16899 25.8609 5.87025 26.2041 5.67167C26.5465 5.47222 26.9382 5.37293 27.3299 5.37293C27.7709 5.37293 28.2119 5.47222 28.5543 5.67167C28.8976 5.87025 29.1423 6.16899 29.3385 6.51694C29.534 6.86575 29.5832 7.2137 29.5832 7.61173C29.5832 8.15913 29.4855 8.60637 29.24 9.0044C28.7998 9.65109 28.1626 9.94983 27.3299 9.94983C26.4972 9.94983 25.9101 9.65109 25.4692 9.0044C25.2245 8.60637 25.1259 8.15913 25.1259 7.61173C25.1752 7.2137 25.2244 6.86575 25.4199 6.51694ZM25.4199 13.5321C25.8116 12.8353 26.4488 12.4373 27.3299 12.4373C28.2612 12.4373 28.9468 12.7861 29.3385 13.5321C29.5832 13.9802 29.6809 14.5276 29.6809 15.1743C29.6809 15.9203 29.534 16.5169 29.1915 17.0151C28.7998 17.6117 28.1626 17.9605 27.3299 17.9605C26.4488 17.9605 25.8116 17.6117 25.4199 16.965C25.1259 16.5169 24.9789 15.9203 24.9789 15.2736C25.0282 14.5276 25.1752 13.9802 25.4199 13.5321Z" fill="url(#paint2_linear_1366_22860)"/>
<path d="M41.6812 21.1939C43.5913 21.1939 45.1096 20.6465 46.1878 19.5517C47.3136 18.4578 47.8532 17.0151 47.8532 15.1242V8.15914C47.8532 6.31837 47.3136 4.87562 46.1878 3.8309C45.0612 2.73611 43.5913 2.23879 41.6812 2.23879C39.7712 2.23879 38.3021 2.78532 37.1754 3.8309C36.0488 4.92484 35.5101 6.36758 35.5101 8.15914V15.1242C35.5101 16.965 36.0488 18.4578 37.1754 19.5517C38.3021 20.6465 39.8204 21.1939 41.6812 21.1939ZM39.1832 8.10907C39.1832 7.31301 39.4287 6.66632 39.8689 6.169C40.3098 5.67168 40.9471 5.42302 41.6812 5.42302C42.4654 5.42302 43.0526 5.67168 43.5428 6.169C43.9838 6.66632 44.2285 7.31301 44.2285 8.10907V15.3237C44.2285 16.1189 43.9838 16.7664 43.5428 17.2637C43.1018 17.761 42.4654 18.0097 41.6812 18.0097C40.8978 18.0097 40.3098 17.761 39.8689 17.2637C39.4287 16.7664 39.1832 16.1197 39.1832 15.3237V8.10907Z" fill="url(#paint3_linear_1366_22860)"/>
<path d="M51.7225 7.95971C52.359 8.35774 53.0939 8.50711 53.828 8.50711C54.6123 8.50711 55.3464 8.30853 55.9836 7.95971C56.62 7.56168 57.1103 7.06436 57.502 6.41767C57.8937 5.77099 58.0891 5.025 58.0891 4.22895C58.0891 3.43289 57.8937 2.73612 57.502 2.08944C57.1103 1.44275 56.62 0.944563 55.9836 0.546534C55.3464 0.148505 54.6123 0 53.828 0C53.0446 0 52.359 0.198583 51.7225 0.546534C51.0853 0.944563 50.5466 1.44275 50.2042 2.08944C49.8116 2.73612 49.6647 3.43289 49.6647 4.22895C49.6647 5.025 49.8609 5.77099 50.2042 6.41767C50.5466 7.06436 51.0369 7.56168 51.7225 7.95971ZM52.4567 2.78534C52.8484 2.38817 53.2893 2.2388 53.828 2.2388C54.3667 2.2388 54.857 2.43739 55.1994 2.78534C55.5919 3.18337 55.7381 3.63147 55.7381 4.22895C55.7381 4.77548 55.5426 5.27366 55.1994 5.62162C54.8077 6.01965 54.3667 6.16901 53.828 6.16901C53.2893 6.16901 52.8484 5.96957 52.4567 5.62162C52.065 5.22359 51.8687 4.77548 51.8687 4.22895C51.8687 3.68155 52.065 3.18337 52.4567 2.78534Z" fill="url(#paint4_linear_1366_22860)"/>
<defs>
<linearGradient id="paint0_linear_1366_22860" x1="30" y1="0" x2="30" y2="34" gradientUnits="userSpaceOnUse">
<stop stop-color="#D5A7FF"/>
<stop offset="1" stop-color="#BB70FF"/>
</linearGradient>
<linearGradient id="paint1_linear_1366_22860" x1="30" y1="0" x2="30" y2="34" gradientUnits="userSpaceOnUse">
<stop stop-color="#D5A7FF"/>
<stop offset="1" stop-color="#BB70FF"/>
</linearGradient>
<linearGradient id="paint2_linear_1366_22860" x1="30" y1="0" x2="30" y2="34" gradientUnits="userSpaceOnUse">
<stop stop-color="#D5A7FF"/>
<stop offset="1" stop-color="#BB70FF"/>
</linearGradient>
<linearGradient id="paint3_linear_1366_22860" x1="30" y1="0" x2="30" y2="34" gradientUnits="userSpaceOnUse">
<stop stop-color="#D5A7FF"/>
<stop offset="1" stop-color="#BB70FF"/>
</linearGradient>
<linearGradient id="paint4_linear_1366_22860" x1="30" y1="0" x2="30" y2="34" gradientUnits="userSpaceOnUse">
<stop stop-color="#D5A7FF"/>
<stop offset="1" stop-color="#BB70FF"/>
</linearGradient>
</defs>
</svg>
