<svg width="276" height="276" viewBox="0 0 276 276" fill="none" xmlns="http://www.w3.org/2000/svg">
<path d="M0 12.8C0 8.31958 0 6.07937 0.871948 4.36808C1.63893 2.86278 2.86278 1.63893 4.36808 0.871948C6.07937 0 8.31958 0 12.8 0H263.2C267.68 0 269.921 0 271.632 0.871948C273.137 1.63893 274.361 2.86278 275.128 4.36808C276 6.07937 276 8.31958 276 12.8V276H0V12.8Z" fill="#F9F9F9"/>
<g clip-path="url(#clip0_1304_27066)">
<path d="M169.249 175.197C168.722 175.197 168.223 175.113 167.696 174.891C158.07 171.028 155.407 161.552 153.437 154.604C152.855 152.52 151.967 149.408 151.273 148.602C149.248 147.768 148.222 145.489 148.943 143.377C149.692 141.21 152.078 140.043 154.242 140.821C158.625 142.349 159.984 147.212 161.426 152.353C163.091 158.217 164.949 164.831 170.775 167.165C172.911 168.027 173.937 170.445 173.105 172.584C172.467 174.224 170.914 175.197 169.249 175.197Z" fill="url(#paint0_linear_1304_27066)"/>
<path d="M147.639 198.095C144.892 198.095 142.645 195.844 142.645 193.093C142.645 190.342 144.892 188.091 147.639 188.091C147.694 188.091 152.66 188.091 158.125 187.535C162.23 187.118 164.949 186.563 166.724 186.062C164.616 185.201 161.121 184.117 155.351 182.95C148.637 181.588 142.424 180.893 142.34 180.866C139.594 180.56 137.624 178.087 137.93 175.336C138.235 172.584 140.704 170.611 143.45 170.917C143.783 170.945 151.661 171.862 159.65 173.613C169.36 175.752 179.263 178.948 179.263 186.229C179.263 188.869 177.987 192.51 171.884 194.844C169.304 195.844 165.836 196.622 161.564 197.151C154.713 198.068 147.916 198.095 147.639 198.095Z" fill="url(#paint1_linear_1304_27066)"/>
<path d="M150.357 199.513C148.582 199.513 146.807 199.429 145.087 199.262C141.425 198.901 138.762 195.622 139.123 191.954C139.483 188.286 142.757 185.618 146.418 185.979C154.796 186.813 165.254 184.812 170.747 181.338C173.854 179.365 177.959 180.282 179.929 183.395C181.898 186.507 180.983 190.62 177.876 192.593C171.135 196.873 160.399 199.513 150.357 199.513Z" fill="url(#paint2_linear_1304_27066)"/>
<path d="M103.56 175.196C101.896 175.196 100.342 174.196 99.7043 172.584C98.8443 170.444 99.8985 168.027 102.034 167.165C107.86 164.831 109.719 158.217 111.383 152.353C112.825 147.212 114.213 142.349 118.568 140.821C120.732 140.07 123.117 141.21 123.866 143.377C124.587 145.461 123.561 147.768 121.536 148.602C120.842 149.408 119.983 152.52 119.372 154.604C117.403 161.552 114.74 171.028 105.114 174.891C104.587 175.113 104.06 175.196 103.56 175.196Z" fill="url(#paint3_linear_1304_27066)"/>
<path d="M125.142 198.095C124.865 198.095 118.069 198.095 111.161 197.206C106.889 196.65 103.422 195.872 100.842 194.9C94.7389 192.565 93.4629 188.925 93.4629 186.285C93.4629 178.976 103.366 175.808 113.075 173.668C121.092 171.89 128.943 171 129.276 170.973C132.022 170.667 134.491 172.64 134.796 175.391C135.101 178.142 133.132 180.616 130.385 180.921C130.33 180.921 124.088 181.644 117.375 183.006C111.633 184.173 108.11 185.257 106.002 186.118C107.805 186.618 110.551 187.174 114.684 187.591C120.149 188.147 125.059 188.147 125.115 188.147C127.861 188.147 130.108 190.398 130.108 193.149C130.108 195.9 127.889 198.095 125.142 198.095Z" fill="url(#paint4_linear_1304_27066)"/>
<path d="M122.394 199.513C112.38 199.513 101.645 196.9 94.8758 192.593C91.7689 190.62 90.8535 186.507 92.823 183.395C94.7926 180.282 98.8982 179.365 102.005 181.338C107.498 184.84 117.956 186.813 126.334 185.979C129.995 185.618 133.241 188.286 133.629 191.954C133.99 195.622 131.327 198.901 127.665 199.262C125.945 199.429 124.198 199.513 122.394 199.513Z" fill="url(#paint5_linear_1304_27066)"/>
<path d="M136.821 182.728C129.386 182.728 123.144 177.059 122.451 169.611L121.646 160.996H151.995L151.19 169.611C150.469 177.031 144.255 182.728 136.821 182.728Z" fill="#A342E2"/>
<path d="M136.238 169.083C126.112 169.083 117.707 161.301 116.875 151.214L116.32 144.544C116.07 141.404 118.29 138.597 121.424 138.125C125.03 137.597 130.135 137.041 135.905 137.041C141.841 137.041 147.251 137.625 151.051 138.153C154.186 138.597 156.405 141.404 156.155 144.572L155.628 151.186C154.796 161.302 146.363 169.083 136.238 169.083Z" fill="url(#paint6_linear_1304_27066)"/>
<path d="M179.373 100.275L171.301 100.887L170.913 75.6258C170.885 74.2641 171.939 73.1247 173.298 73.0135C174.658 72.9024 175.85 73.875 176.045 75.2367L179.373 100.275Z" fill="url(#paint7_linear_1304_27066)"/>
<path d="M93.7949 100.275L101.867 100.887L102.256 75.6258C102.283 74.2641 101.229 73.1247 99.8701 73.0135C98.5108 72.9024 97.318 73.875 97.1238 75.2367L93.7949 100.275Z" fill="url(#paint8_linear_1304_27066)"/>
<path d="M103.005 122.869C111.263 122.869 117.957 116.162 117.957 107.89C117.957 99.6173 111.263 92.9111 103.005 92.9111C94.747 92.9111 88.0527 99.6173 88.0527 107.89C88.0527 116.162 94.747 122.869 103.005 122.869Z" fill="url(#paint9_linear_1304_27066)"/>
<path d="M170.747 122.869C179.005 122.869 185.699 116.162 185.699 107.89C185.699 99.6173 179.005 92.9111 170.747 92.9111C162.489 92.9111 155.795 99.6173 155.795 107.89C155.795 116.162 162.489 122.869 170.747 122.869Z" fill="url(#paint10_linear_1304_27066)"/>
<path d="M150.884 134.373H122.672C107.525 134.373 95.2363 122.063 95.2363 106.889C95.2363 91.7161 107.525 79.4053 122.672 79.4053H150.884C166.03 79.4053 178.319 91.7161 178.319 106.889C178.319 122.063 166.03 134.373 150.884 134.373Z" fill="url(#paint11_linear_1304_27066)"/>
<path d="M150.33 127.203H123.228C112.02 127.203 102.949 118.116 102.949 106.889C102.949 95.662 112.02 86.5747 123.228 86.5747H150.33C161.537 86.5747 170.608 95.662 170.608 106.889C170.608 118.116 161.537 127.203 150.33 127.203Z" fill="#030303"/>
<path d="M135.378 204.709C135.017 206.015 133.713 206.849 132.354 206.654C124.698 205.543 118.789 198.929 118.789 190.925C118.789 182.95 124.642 176.363 132.299 175.196C133.658 175.002 134.962 175.863 135.322 177.197C136.016 179.865 137.042 184.839 137.042 191.287C137.07 197.65 136.099 202.236 135.378 204.709Z" fill="url(#paint12_linear_1304_27066)"/>
<path d="M137.375 204.709C137.736 206.015 139.04 206.849 140.399 206.654C148.055 205.543 153.964 198.929 153.964 190.925C153.964 182.95 148.111 176.363 140.455 175.196C139.095 175.002 137.791 175.863 137.431 177.197C136.737 179.865 135.711 184.839 135.711 191.287C135.711 197.65 136.682 202.236 137.375 204.709Z" fill="url(#paint13_linear_1304_27066)"/>
<path d="M91.4919 181.394C91.2422 181.394 90.9925 181.394 90.7429 181.366C88.3017 181.255 83.9465 180.449 82.1988 176.225C80.7563 172.723 82.1988 169.333 84.0574 167.332C86.5541 164.636 90.7706 164.442 93.4614 166.943C93.7111 167.165 93.933 167.415 94.1272 167.665C97.2896 166.804 101.118 164.72 103.393 163.108C106.388 160.968 110.522 161.635 112.686 164.636C114.822 167.638 114.156 171.806 111.16 173.946C110.05 174.724 100.508 181.394 91.4919 181.394Z" fill="url(#paint14_linear_1304_27066)"/>
<path d="M181.315 181.394C172.299 181.394 162.757 174.696 161.675 173.918C158.679 171.778 158.013 167.61 160.149 164.609C162.285 161.635 166.446 160.94 169.442 163.08C171.717 164.692 175.517 166.776 178.708 167.638C178.902 167.388 179.124 167.165 179.373 166.915C182.064 164.414 186.281 164.581 188.777 167.304C190.608 169.305 192.078 172.695 190.636 176.197C189.887 178.031 187.779 181.116 182.092 181.338C181.814 181.394 181.565 181.394 181.315 181.394Z" fill="url(#paint15_linear_1304_27066)"/>
<g opacity="0.46">
<path d="M138.292 88.1591C122.868 88.1591 108.36 86.853 97.43 84.5187C82.9495 81.4062 79.9258 77.599 79.9258 74.959C79.9258 69.0675 94.3786 65.7883 102.978 64.3433C103.422 64.2599 103.866 64.5656 103.949 65.038C104.032 65.4827 103.727 65.9273 103.256 66.0107C96.5146 67.1223 90.9387 68.5951 87.166 70.2069C83.5598 71.7354 81.5902 73.4305 81.5902 74.9868C81.5902 76.0428 82.7553 79.6832 97.7906 82.9068C108.609 85.2412 122.979 86.5195 138.292 86.5195C153.604 86.5195 168.002 85.2412 178.793 82.9068C193.828 79.6832 194.993 76.015 194.993 74.9868C194.993 73.9585 193.828 70.2903 178.793 67.0667C167.974 64.7323 153.604 63.454 138.292 63.454C137.82 63.454 137.459 63.0927 137.459 62.6203C137.459 62.1479 137.82 61.7866 138.292 61.7866C153.715 61.7866 168.224 63.0927 179.153 65.4271C193.634 68.5395 196.658 72.3467 196.658 74.9868C196.658 77.6268 193.606 81.434 179.153 84.5464C168.224 86.853 153.715 88.1591 138.292 88.1591Z" fill="#CF87C1"/>
</g>
<g opacity="0.46">
<path d="M138.292 73.4029C119.151 73.4029 101.119 71.7911 87.5821 68.8731C77.7342 66.7611 66 63.0095 66 57.2014C66 51.3934 77.7342 47.6418 87.5821 45.5297C101.147 42.6118 119.151 41 138.292 41C147.945 41 157.294 41.4168 166.115 42.195C166.559 42.2227 166.92 42.6396 166.864 43.112C166.837 43.5844 166.42 43.9179 165.949 43.8623C157.183 43.0564 147.89 42.6674 138.292 42.6674C96.0429 42.6674 67.6367 50.1706 67.6367 57.2014C67.6367 64.2323 96.0152 71.7355 138.292 71.7355C180.568 71.7355 208.947 64.2323 208.947 57.2014C208.947 54.7837 205.396 52.1993 198.988 49.9483C198.544 49.8094 198.322 49.3091 198.488 48.8923C198.627 48.4477 199.126 48.2253 199.543 48.3921C206.894 50.9765 210.611 53.9222 210.611 57.2014C210.611 63.0095 198.877 66.7611 189.029 68.8731C175.436 71.7911 157.433 73.4029 138.292 73.4029Z" fill="#CF87C1"/>
</g>
<g opacity="0.2" filter="url(#filter0_f_1304_27066)">
<path d="M136.877 234C163.274 234 184.674 230.977 184.674 227.247C184.674 223.518 163.274 220.494 136.877 220.494C110.479 220.494 89.0801 223.518 89.0801 227.247C89.0801 230.977 110.479 234 136.877 234Z" fill="#38363D"/>
</g>
<path d="M126.589 97.2102H128.541C129.24 97.2102 129.859 97.358 130.399 97.6534C130.941 97.9489 131.366 98.3651 131.673 98.902C131.983 99.4361 132.137 100.064 132.137 100.786C132.137 101.484 131.983 102.094 131.673 102.614C131.366 103.134 130.941 103.538 130.399 103.828C129.859 104.115 129.24 104.259 128.541 104.259H126.589C125.887 104.259 125.265 104.116 124.723 103.832C124.18 103.545 123.754 103.142 123.444 102.622C123.137 102.102 122.984 101.489 122.984 100.781C122.984 100.06 123.139 99.4318 123.449 98.8977C123.761 98.3608 124.189 97.946 124.731 97.6534C125.274 97.358 125.893 97.2102 126.589 97.2102ZM126.589 98.7528C126.214 98.7528 125.883 98.8281 125.596 98.9787C125.312 99.1264 125.091 99.3509 124.931 99.652C124.772 99.9531 124.693 100.33 124.693 100.781C124.693 101.213 124.774 101.572 124.936 101.859C125.1 102.146 125.325 102.361 125.609 102.503C125.893 102.645 126.22 102.716 126.589 102.716H128.554C128.926 102.716 129.251 102.643 129.529 102.499C129.811 102.354 130.028 102.138 130.181 101.851C130.338 101.564 130.416 101.209 130.416 100.786C130.416 100.334 130.338 99.9574 130.181 99.6562C130.028 99.3551 129.811 99.1293 129.529 98.9787C129.251 98.8281 128.926 98.7528 128.554 98.7528H126.589ZM128.439 96.1193V105.358H126.687V96.1193H128.439ZM136.42 105.128C135.758 105.128 135.186 104.987 134.703 104.706C134.223 104.422 133.852 104.027 133.591 103.521C133.329 103.013 133.199 102.423 133.199 101.753C133.199 101.077 133.329 100.486 133.591 99.9801C133.852 99.4716 134.223 99.0767 134.703 98.7955C135.186 98.5114 135.758 98.3693 136.42 98.3693C137.082 98.3693 137.653 98.5114 138.133 98.7955C138.616 99.0767 138.988 99.4716 139.25 99.9801C139.511 100.486 139.642 101.077 139.642 101.753C139.642 102.423 139.511 103.013 139.25 103.521C138.988 104.027 138.616 104.422 138.133 104.706C137.653 104.987 137.082 105.128 136.42 105.128ZM136.429 103.722C136.73 103.722 136.981 103.636 137.183 103.466C137.385 103.293 137.537 103.057 137.639 102.759C137.744 102.46 137.797 102.121 137.797 101.74C137.797 101.359 137.744 101.02 137.639 100.722C137.537 100.423 137.385 100.187 137.183 100.014C136.981 99.8409 136.73 99.7543 136.429 99.7543C136.125 99.7543 135.869 99.8409 135.662 100.014C135.457 100.187 135.302 100.423 135.197 100.722C135.095 101.02 135.044 101.359 135.044 101.74C135.044 102.121 135.095 102.46 135.197 102.759C135.302 103.057 135.457 103.293 135.662 103.466C135.869 103.636 136.125 103.722 136.429 103.722ZM140.188 99.8821V98.4545H146.12V99.8821H144.011V105H142.281V99.8821H140.188ZM149.944 105.128C149.282 105.128 148.709 104.987 148.226 104.706C147.746 104.422 147.375 104.027 147.114 103.521C146.853 103.013 146.722 102.423 146.722 101.753C146.722 101.077 146.853 100.486 147.114 99.9801C147.375 99.4716 147.746 99.0767 148.226 98.7955C148.709 98.5114 149.282 98.3693 149.944 98.3693C150.605 98.3693 151.176 98.5114 151.657 98.7955C152.14 99.0767 152.512 99.4716 152.773 99.9801C153.034 100.486 153.165 101.077 153.165 101.753C153.165 102.423 153.034 103.013 152.773 103.521C152.512 104.027 152.14 104.422 151.657 104.706C151.176 104.987 150.605 105.128 149.944 105.128ZM149.952 103.722C150.253 103.722 150.505 103.636 150.706 103.466C150.908 103.293 151.06 103.057 151.162 102.759C151.267 102.46 151.32 102.121 151.32 101.74C151.32 101.359 151.267 101.02 151.162 100.722C151.06 100.423 150.908 100.187 150.706 100.014C150.505 99.8409 150.253 99.7543 149.952 99.7543C149.648 99.7543 149.392 99.8409 149.185 100.014C148.98 100.187 148.826 100.423 148.721 100.722C148.618 101.02 148.567 101.359 148.567 101.74C148.567 102.121 148.618 102.46 148.721 102.759C148.826 103.057 148.98 103.293 149.185 103.466C149.392 103.636 149.648 103.722 149.952 103.722ZM124.577 113.003V114.43H121.159V113.003H124.577ZM121.756 110.455V117H120.021V110.455H121.756ZM125.714 110.455V117H123.993V110.455H125.714ZM130.106 117.128C129.433 117.128 128.853 116.991 128.367 116.719C127.884 116.443 127.512 116.054 127.251 115.551C126.989 115.045 126.859 114.447 126.859 113.757C126.859 113.084 126.989 112.493 127.251 111.984C127.512 111.476 127.88 111.08 128.354 110.795C128.832 110.511 129.391 110.369 130.033 110.369C130.465 110.369 130.867 110.439 131.239 110.578C131.614 110.714 131.941 110.92 132.219 111.196C132.501 111.472 132.719 111.818 132.876 112.236C133.032 112.651 133.11 113.136 133.11 113.693V114.192H127.583V113.067H131.401C131.401 112.805 131.344 112.574 131.231 112.372C131.117 112.17 130.96 112.013 130.758 111.899C130.559 111.783 130.327 111.724 130.063 111.724C129.788 111.724 129.543 111.788 129.33 111.916C129.12 112.041 128.955 112.21 128.836 112.423C128.717 112.634 128.656 112.868 128.653 113.126V114.196C128.653 114.52 128.712 114.8 128.832 115.036C128.954 115.271 129.126 115.453 129.347 115.581C129.569 115.709 129.832 115.773 130.136 115.773C130.337 115.773 130.522 115.744 130.69 115.688C130.857 115.631 131.001 115.545 131.12 115.432C131.239 115.318 131.33 115.179 131.393 115.014L133.072 115.125C132.987 115.528 132.812 115.881 132.548 116.182C132.286 116.48 131.948 116.713 131.533 116.881C131.121 117.045 130.646 117.128 130.106 117.128ZM138.164 114.993L139.937 110.455H141.317L138.765 117H137.559L135.066 110.455H136.442L138.164 114.993ZM136.029 110.455V117H134.295V110.455H136.029ZM140.388 117V110.455H142.102V117H140.388ZM145.372 117.124C144.955 117.124 144.582 117.051 144.256 116.906C143.929 116.759 143.67 116.541 143.48 116.254C143.293 115.964 143.199 115.604 143.199 115.172C143.199 114.808 143.266 114.503 143.399 114.256C143.533 114.009 143.714 113.81 143.945 113.659C144.175 113.509 144.436 113.395 144.729 113.318C145.024 113.241 145.334 113.188 145.658 113.156C146.038 113.116 146.345 113.08 146.578 113.045C146.811 113.009 146.98 112.955 147.085 112.884C147.19 112.812 147.243 112.707 147.243 112.568V112.543C147.243 112.273 147.158 112.064 146.987 111.916C146.82 111.768 146.581 111.695 146.271 111.695C145.945 111.695 145.685 111.767 145.491 111.912C145.298 112.054 145.17 112.233 145.108 112.449L143.429 112.312C143.514 111.915 143.682 111.571 143.932 111.281C144.182 110.989 144.504 110.764 144.899 110.608C145.297 110.449 145.757 110.369 146.28 110.369C146.643 110.369 146.991 110.412 147.324 110.497C147.659 110.582 147.956 110.714 148.214 110.893C148.476 111.072 148.682 111.303 148.832 111.584C148.983 111.862 149.058 112.196 149.058 112.585V117H147.337V116.092H147.286C147.18 116.297 147.04 116.477 146.864 116.634C146.688 116.787 146.476 116.908 146.229 116.996C145.982 117.081 145.696 117.124 145.372 117.124ZM145.892 115.871C146.159 115.871 146.395 115.818 146.599 115.713C146.804 115.605 146.964 115.46 147.081 115.278C147.197 115.097 147.256 114.891 147.256 114.661V113.966C147.199 114.003 147.121 114.037 147.021 114.068C146.925 114.097 146.815 114.124 146.693 114.149C146.571 114.172 146.449 114.193 146.327 114.213C146.205 114.23 146.094 114.246 145.994 114.26C145.781 114.291 145.595 114.341 145.436 114.409C145.277 114.477 145.153 114.57 145.065 114.686C144.977 114.8 144.933 114.942 144.933 115.112C144.933 115.359 145.023 115.548 145.202 115.679C145.384 115.807 145.614 115.871 145.892 115.871ZM153.731 113.216V114.277H151.349V113.216H153.731ZM156.215 112.568L154.536 112.854C154.454 112.541 154.316 112.29 154.123 112.099C153.933 111.909 153.657 111.814 153.296 111.814C152.972 111.814 152.705 111.895 152.495 112.057C152.285 112.216 152.129 112.439 152.026 112.726C151.927 113.013 151.877 113.347 151.877 113.727C151.877 114.111 151.927 114.447 152.026 114.737C152.126 115.027 152.281 115.254 152.491 115.419C152.701 115.581 152.969 115.662 153.296 115.662C153.523 115.662 153.717 115.622 153.876 115.543C154.038 115.46 154.17 115.349 154.272 115.21C154.374 115.068 154.452 114.909 154.506 114.733L156.194 115.01C156.1 115.433 155.92 115.804 155.653 116.122C155.388 116.44 155.055 116.687 154.651 116.864C154.251 117.04 153.799 117.128 153.296 117.128C152.643 117.128 152.08 116.983 151.609 116.693C151.14 116.401 150.778 115.999 150.522 115.487C150.269 114.973 150.143 114.386 150.143 113.727C150.143 113.071 150.269 112.49 150.522 111.984C150.778 111.479 151.141 111.084 151.613 110.8C152.085 110.513 152.646 110.369 153.296 110.369C153.808 110.369 154.266 110.46 154.673 110.642C155.082 110.821 155.418 111.075 155.683 111.405C155.95 111.734 156.127 112.122 156.215 112.568Z" fill="white"/>
</g>
<defs>
<filter id="filter0_f_1304_27066" x="86.8553" y="218.269" width="100.043" height="17.9554" filterUnits="userSpaceOnUse" color-interpolation-filters="sRGB">
<feFlood flood-opacity="0" result="BackgroundImageFix"/>
<feBlend mode="normal" in="SourceGraphic" in2="BackgroundImageFix" result="shape"/>
<feGaussianBlur stdDeviation="1.11239" result="effect1_foregroundBlur_1304_27066"/>
</filter>
<linearGradient id="paint0_linear_1304_27066" x1="175.343" y1="170.258" x2="146.412" y2="146.025" gradientUnits="userSpaceOnUse">
<stop offset="0.000475364" stop-color="#9DED76"/>
<stop offset="1" stop-color="#4BCF70"/>
</linearGradient>
<linearGradient id="paint1_linear_1304_27066" x1="158.628" y1="198.082" x2="158.628" y2="170.894" gradientUnits="userSpaceOnUse">
<stop offset="0.000475364" stop-color="#9DED76"/>
<stop offset="1" stop-color="#4BCF70"/>
</linearGradient>
<linearGradient id="paint2_linear_1304_27066" x1="139.033" y1="190.568" x2="181.046" y2="189.368" gradientUnits="userSpaceOnUse">
<stop stop-color="#CF87C1"/>
<stop offset="1" stop-color="#C054FD"/>
</linearGradient>
<linearGradient id="paint3_linear_1304_27066" x1="97.4672" y1="170.258" x2="126.398" y2="146.025" gradientUnits="userSpaceOnUse">
<stop offset="0.000475364" stop-color="#9DED76"/>
<stop offset="1" stop-color="#4BCF70"/>
</linearGradient>
<linearGradient id="paint4_linear_1304_27066" x1="114.138" y1="198.083" x2="114.138" y2="170.894" gradientUnits="userSpaceOnUse">
<stop offset="0.000475364" stop-color="#9DED76"/>
<stop offset="1" stop-color="#4BCF70"/>
</linearGradient>
<linearGradient id="paint5_linear_1304_27066" x1="133.728" y1="190.568" x2="91.7146" y2="189.368" gradientUnits="userSpaceOnUse">
<stop stop-color="#CF87C1"/>
<stop offset="1" stop-color="#C054FD"/>
</linearGradient>
<linearGradient id="paint6_linear_1304_27066" x1="136.243" y1="136.334" x2="136.243" y2="145.929" gradientUnits="userSpaceOnUse">
<stop stop-color="#FCEC6E"/>
<stop offset="1" stop-color="#C054FD"/>
</linearGradient>
<linearGradient id="paint7_linear_1304_27066" x1="172.942" y1="68.5771" x2="174.432" y2="88.49" gradientUnits="userSpaceOnUse">
<stop offset="0.000475364" stop-color="#9DED76"/>
<stop offset="1" stop-color="#4BCF70"/>
</linearGradient>
<linearGradient id="paint8_linear_1304_27066" x1="100.29" y1="68.5731" x2="98.8006" y2="88.4861" gradientUnits="userSpaceOnUse">
<stop offset="0.000475364" stop-color="#9DED76"/>
<stop offset="1" stop-color="#4BCF70"/>
</linearGradient>
<linearGradient id="paint9_linear_1304_27066" x1="103.017" y1="82.0035" x2="103.017" y2="113.206" gradientUnits="userSpaceOnUse">
<stop offset="0.000475364" stop-color="#9DED76"/>
<stop offset="1" stop-color="#4BCF70"/>
</linearGradient>
<linearGradient id="paint10_linear_1304_27066" x1="170.735" y1="82.0035" x2="170.735" y2="113.206" gradientUnits="userSpaceOnUse">
<stop offset="0.000475364" stop-color="#9DED76"/>
<stop offset="1" stop-color="#4BCF70"/>
</linearGradient>
<linearGradient id="paint11_linear_1304_27066" x1="136.779" y1="78.1567" x2="136.779" y2="94.6218" gradientUnits="userSpaceOnUse">
<stop stop-color="#FCEC6E"/>
<stop offset="0.9995" stop-color="#C054FD"/>
</linearGradient>
<linearGradient id="paint12_linear_1304_27066" x1="117.271" y1="146.99" x2="128.823" y2="191.705" gradientUnits="userSpaceOnUse">
<stop stop-color="#FCEC6E"/>
<stop offset="1" stop-color="#C054FD"/>
</linearGradient>
<linearGradient id="paint13_linear_1304_27066" x1="149.186" y1="160.068" x2="144.706" y2="190.196" gradientUnits="userSpaceOnUse">
<stop stop-color="#FCEC6E"/>
<stop offset="1" stop-color="#C054FD"/>
</linearGradient>
<linearGradient id="paint14_linear_1304_27066" x1="110.546" y1="177.239" x2="84.5369" y2="165.184" gradientUnits="userSpaceOnUse">
<stop stop-color="#CF87C1"/>
<stop offset="1" stop-color="#C054FD"/>
</linearGradient>
<linearGradient id="paint15_linear_1304_27066" x1="162.255" y1="177.244" x2="188.263" y2="165.189" gradientUnits="userSpaceOnUse">
<stop stop-color="#CF87C1"/>
<stop offset="1" stop-color="#C054FD"/>
</linearGradient>
<clipPath id="clip0_1304_27066">
<rect width="144" height="193" fill="white" transform="translate(66 41)"/>
</clipPath>
</defs>
</svg>
