<svg width="48" height="48" viewBox="0 0 48 48" fill="none" xmlns="http://www.w3.org/2000/svg">
<g id="Google__G__Logo 1">
<path id="Vector" d="M45.12 24.4999C45.12 22.9399 44.98 21.4399 44.72 19.9999H24V28.5199H35.84C35.32 31.2599 33.76 33.5799 31.42 35.1399V40.6799H38.56C42.72 36.8399 45.12 31.1999 45.12 24.4999Z" fill="#4285F4"/>
<path id="Vector_2" d="M24.0033 46C29.9433 46 34.9233 44.04 38.5633 40.68L31.4233 35.14C29.4633 36.46 26.9633 37.26 24.0033 37.26C18.2833 37.26 13.4233 33.4 11.6833 28.2H4.36328V33.88C7.98328 41.06 15.4033 46 24.0033 46Z" fill="#3ACA6C"/>
<path id="Vector_3" d="M11.68 28.1799C11.24 26.8599 10.98 25.4599 10.98 23.9999C10.98 22.5399 11.24 21.1399 11.68 19.8199V14.1399H4.36C2.86 17.0999 2 20.4399 2 23.9999C2 27.5599 2.86 30.8999 4.36 33.8599L10.06 29.4199L11.68 28.1799Z" fill="#FBBC05"/>
<path id="Vector_4" d="M24.0033 10.7599C27.2433 10.7599 30.1233 11.8799 32.4233 14.0399L38.7233 7.73988C34.9033 4.17988 29.9433 1.99988 24.0033 1.99988C15.4033 1.99988 7.98328 6.93988 4.36328 14.1399L11.6833 19.8199C13.4233 14.6199 18.2833 10.7599 24.0033 10.7599Z" fill="#EA4335"/>
</g>
</svg>
