<svg width="77" height="24" viewBox="0 0 77 24" fill="none" xmlns="http://www.w3.org/2000/svg">
<g clip-path="url(#clip0_1631_109054)">
<path d="M7.23639 15.9707C6.85033 15.7251 6.43467 15.5296 5.99941 15.3891C5.5636 15.25 5.10876 15.1801 4.65136 15.1817C4.36744 15.1792 4.08428 15.2114 3.80819 15.2779C3.57512 15.3322 3.35311 15.4263 3.15183 15.556C2.97964 15.6673 2.83467 15.8159 2.72773 15.9909C2.62576 16.1638 2.57335 16.3616 2.57626 16.5624C2.56883 16.7403 2.61454 16.9165 2.70754 17.0681C2.80418 17.2118 2.9341 17.3298 3.0862 17.4121C3.27535 17.5158 3.47738 17.5941 3.68703 17.6447C3.95163 17.7112 4.2196 17.7636 4.48979 17.8015L5.12596 17.8874C5.49535 17.9392 5.86003 18.0204 6.21651 18.1302C6.55532 18.2321 6.87574 18.3875 7.1657 18.5905C7.44193 18.7852 7.67133 19.0392 7.83721 19.3339C8.01416 19.6682 8.10116 20.043 8.08965 20.4212C8.09846 20.8546 7.99589 21.283 7.79177 21.6653C7.59537 22.025 7.32106 22.3361 6.98899 22.5757C6.63305 22.8309 6.23476 23.021 5.8126 23.137C5.35097 23.2671 4.87342 23.3318 4.39387 23.3292C4.06913 23.3276 3.74501 23.3005 3.42448 23.2483C3.08246 23.1966 2.74488 23.1188 2.4147 23.0157C2.10161 22.911 1.79764 22.7809 1.5059 22.6262C1.21762 22.4787 0.948099 22.2971 0.703125 22.0851L1.5059 20.8965C1.67948 21.0536 1.87098 21.1893 2.07642 21.3011C2.54919 21.5605 3.06067 21.7415 3.59109 21.8373C3.85917 21.8874 4.13127 21.9127 4.40396 21.9131C4.6857 21.9167 4.96692 21.8879 5.24207 21.8272C5.48208 21.7747 5.71218 21.6842 5.92368 21.5592C6.10649 21.4514 6.26336 21.3046 6.38312 21.1293C6.49839 20.9575 6.5583 20.7545 6.55479 20.5477C6.56192 20.1976 6.36466 19.8755 6.0499 19.7233C5.55323 19.4916 5.02028 19.348 4.47465 19.2985L3.7577 19.1973C3.41449 19.1496 3.07644 19.0701 2.74792 18.9596C2.43243 18.8556 2.137 18.6982 1.87447 18.4943C1.61475 18.2919 1.40273 18.0345 1.25346 17.7407C1.08298 17.4022 0.996397 17.0276 1.00101 16.6484C0.993413 16.2212 1.09233 15.7987 1.2888 15.4194C1.47817 15.0625 1.7457 14.753 2.07138 14.5142C2.42026 14.2606 2.81191 14.0722 3.22757 13.9578C3.68735 13.8271 4.16333 13.7624 4.64126 13.7656C5.25916 13.7576 5.8744 13.8481 6.46391 14.0338C6.99906 14.2075 7.50849 14.4524 7.97857 14.762L7.23639 15.9707ZM12.26 16.6787C12.6747 16.6749 13.0857 16.7576 13.4667 16.9214C13.8249 17.0768 14.1453 17.3079 14.4058 17.5992C14.6747 17.9056 14.8821 18.261 15.0168 18.6461C15.1689 19.0797 15.244 19.5368 15.2389 19.9964V20.2593V20.5123H10.5535C10.5873 20.7698 10.6695 21.0187 10.7958 21.2455C10.9049 21.4404 11.0506 21.6121 11.225 21.7513C11.392 21.8818 11.5823 21.9796 11.7855 22.0396C11.9953 22.1014 12.213 22.132 12.4317 22.1306C12.7561 22.1281 13.0774 22.0682 13.3809 21.9536C13.6979 21.8343 13.993 21.6635 14.2544 21.4478L14.9359 22.4341C14.5793 22.7475 14.1615 22.9835 13.709 23.1269C13.2653 23.2605 12.8042 23.3269 12.3408 23.3241C11.8955 23.329 11.4532 23.2483 11.0382 23.0865C10.6589 22.9345 10.3151 22.7055 10.0284 22.4138C9.73662 22.1146 9.5097 21.7582 9.36198 21.367C9.19894 20.9305 9.11846 20.4674 9.12473 20.0014C9.11985 19.541 9.19847 19.0834 9.35687 18.6511C9.49948 18.2605 9.71931 17.9027 10.0031 17.5992C10.2876 17.3037 10.632 17.0726 11.013 16.9214C11.4085 16.7583 11.8322 16.6741 12.26 16.6736V16.6787ZM12.2348 17.9077C12.011 17.9034 11.7884 17.9412 11.5784 18.019C11.3896 18.0882 11.2175 18.1968 11.0735 18.3375C10.9311 18.4842 10.8165 18.6556 10.7353 18.8433C10.644 19.0425 10.5812 19.2537 10.5485 19.4704H13.8202C13.781 19.0429 13.6038 18.6398 13.3152 18.3224C13.0268 18.0383 12.6339 17.8864 12.2298 17.9026L12.2348 17.9077ZM19.5507 16.6787C20.0039 16.6744 20.4536 16.7604 20.8734 16.9317C21.2653 17.0984 21.6115 17.3568 21.8832 17.6851L20.9996 18.6259C20.7965 18.4203 20.5611 18.2495 20.303 18.1201C20.0459 18.005 19.7666 17.948 19.485 17.9533C19.2318 17.9506 18.9808 18.0005 18.7479 18.0999C18.5257 18.2043 18.328 18.3542 18.1672 18.5398C17.9954 18.7242 17.8616 18.9408 17.7734 19.1771C17.5843 19.7085 17.5843 20.2892 17.7734 20.8207C17.861 21.0589 17.9948 21.2771 18.1672 21.463C18.3335 21.6406 18.5346 21.7818 18.758 21.8777C18.9909 21.9771 19.2419 22.0271 19.4951 22.0244C19.7925 22.025 20.086 21.9575 20.3534 21.8272C20.6086 21.7076 20.8437 21.549 21.0501 21.3569L21.9035 22.3329C21.62 22.6617 21.2638 22.9197 20.8634 23.0865C20.4455 23.2583 19.9973 23.3443 19.5456 23.3393C19.079 23.3461 18.6156 23.2601 18.1823 23.0865C17.3867 22.7677 16.763 22.1265 16.4657 21.3215C16.1493 20.47 16.1493 19.533 16.4657 18.6815C16.7631 17.8852 17.3803 17.2503 18.1672 16.9317C18.6049 16.7543 19.0735 16.6665 19.5456 16.6736L19.5507 16.6787ZM28.9668 20.4818C28.9785 20.9267 28.8923 21.3688 28.7144 21.7766C28.5632 22.1164 28.3391 22.4185 28.0581 22.6616C27.7841 22.8919 27.4663 23.0639 27.1239 23.1673C26.4198 23.3833 25.6672 23.3833 24.963 23.1673C24.6193 23.0637 24.2999 22.8918 24.024 22.6616C23.7411 22.4202 23.5166 22.1175 23.3676 21.7766C23.193 21.3679 23.1085 20.9263 23.1203 20.4818V16.8406H24.5036V20.3807C24.4966 20.6435 24.5359 20.9055 24.6197 21.1546C24.6896 21.3457 24.8018 21.5186 24.9479 21.6603C25.0911 21.795 25.2641 21.8937 25.4528 21.9486C25.848 22.0672 26.2693 22.0672 26.6645 21.9486C26.8532 21.8937 27.0263 21.795 27.1694 21.6603C27.3155 21.5186 27.4277 21.3457 27.4976 21.1546C27.5832 20.9058 27.6242 20.6438 27.6187 20.3807V16.8406H29.0022L28.9668 20.4818ZM33.9905 16.6787C34.1815 16.6779 34.3725 16.6931 34.5609 16.7243C34.7336 16.7519 34.9028 16.7977 35.0659 16.8608L34.7377 18.2263C34.578 18.1461 34.4081 18.0883 34.2328 18.0544C34.0552 18.016 33.8743 17.9955 33.6925 17.9937C33.4854 17.9911 33.2796 18.0289 33.0867 18.1049C32.9056 18.1769 32.7433 18.2893 32.6121 18.4337C32.4744 18.5898 32.3697 18.7721 32.3041 18.9697C32.2266 19.2011 32.189 19.4439 32.1931 19.6879V23.1623H30.7894V16.8406H32.1527V17.5537C32.3471 17.2631 32.6179 17.0321 32.9352 16.8861C33.2661 16.7409 33.6242 16.6684 33.9854 16.6736L33.9905 16.6787ZM38.6102 16.6787C39.0249 16.6749 39.4358 16.7576 39.8169 16.9214C40.1751 17.0768 40.4955 17.3079 40.756 17.5992C41.0337 17.9036 41.2499 18.2591 41.3921 18.6461C41.5441 19.0798 41.6194 19.5368 41.6143 19.9964V20.2593V20.5123H36.8986C36.9324 20.7698 37.0146 21.0187 37.141 21.2455C37.25 21.4404 37.3958 21.6121 37.5701 21.7513C37.7372 21.8818 37.9273 21.9796 38.1305 22.0396C38.3404 22.1014 38.5581 22.132 38.7768 22.1306C39.1011 22.1281 39.4224 22.0682 39.726 21.9536C40.0429 21.8343 40.3381 21.6635 40.5994 21.4478L41.2861 22.429C40.9296 22.7426 40.5117 22.9786 40.0592 23.1218C39.6155 23.2554 39.1543 23.3219 38.6909 23.3191C38.2456 23.3239 37.8035 23.2432 37.3883 23.0814C37.0091 22.9294 36.6652 22.7004 36.3786 22.4088C36.0868 22.1095 35.8598 21.7531 35.7121 21.3619C35.5491 20.9255 35.4686 20.4623 35.4749 19.9964C35.47 19.5359 35.5487 19.0784 35.7071 18.6461C35.8466 18.2562 36.063 17.8986 36.3433 17.5942C36.6277 17.2986 36.972 17.0677 37.353 16.9165C37.7505 16.7543 38.1759 16.6718 38.6051 16.6736L38.6102 16.6787ZM38.5849 17.9077C38.3611 17.9034 38.1385 17.9412 37.9286 18.019C37.7397 18.0882 37.5676 18.1968 37.4238 18.3375C37.2813 18.4842 37.1666 18.6556 37.0855 18.8433C36.9943 19.0425 36.9314 19.2537 36.8986 19.4704H40.1804C40.1413 19.0429 39.9641 18.6398 39.6755 18.3224C39.3847 18.0356 38.9875 17.8835 38.5799 17.9026L38.5849 17.9077ZM47.5265 13.7353C47.9258 13.7339 48.3237 13.7781 48.713 13.8668C49.0825 13.9509 49.4402 14.08 49.7784 14.2512C50.1017 14.4152 50.4021 14.6209 50.672 14.8632C50.9352 15.0975 51.1616 15.3703 51.3436 15.6724L50.1014 16.5018C49.8244 16.0926 49.4518 15.7576 49.016 15.5257C48.5493 15.2807 48.028 15.1588 47.5013 15.1716C47.0555 15.167 46.613 15.2494 46.1987 15.4144C45.819 15.5726 45.4754 15.8066 45.1889 16.1022C44.8928 16.4068 44.661 16.768 44.5073 17.1643C44.1777 18.0446 44.1777 19.0148 44.5073 19.8953C44.661 20.2915 44.8928 20.6527 45.1889 20.9573C45.4754 21.2528 45.819 21.4868 46.1987 21.6451C46.613 21.8101 47.0555 21.8926 47.5013 21.8878C48.5266 21.9104 49.4937 21.4118 50.0711 20.5628L51.2829 21.4529C51.0859 21.7421 50.8515 22.004 50.5862 22.2318C50.3257 22.4682 50.0375 22.6719 49.7279 22.8387C49.3974 23.0048 49.0482 23.1304 48.6878 23.2129C47.6508 23.4427 46.5691 23.3617 45.5776 22.9802C44.421 22.5269 43.5058 21.6103 43.0532 20.4515C42.5798 19.2212 42.5798 17.8585 43.0532 16.6282C43.5058 15.4695 44.421 14.5528 45.5776 14.0995C46.1976 13.853 46.8595 13.7293 47.5265 13.7353ZM55.6552 16.6585C56.1184 16.6532 56.5782 16.7391 57.0083 16.9113C57.4089 17.0715 57.7742 17.3085 58.0838 17.6093C58.3888 17.9089 58.6308 18.2666 58.7957 18.6613C59.1381 19.5078 59.1381 20.4547 58.7957 21.3011C58.6308 21.6959 58.3888 22.0535 58.0838 22.3532C57.7742 22.6539 57.4089 22.8909 57.0083 23.0511C56.1379 23.3898 55.1726 23.3898 54.3022 23.0511C53.9012 22.8919 53.5356 22.6547 53.2267 22.3532C52.919 22.0605 52.6718 21.7099 52.4997 21.3215C52.1573 20.4749 52.1573 19.5281 52.4997 18.6815C52.6635 18.2875 52.9037 17.9299 53.2065 17.6295C53.5154 17.3279 53.881 17.0908 54.282 16.9317C54.7195 16.7543 55.1882 16.6665 55.6603 16.6736L55.6552 16.6585ZM55.6552 17.9582C55.3873 17.9555 55.1215 18.0053 54.8727 18.1049C54.6379 18.1988 54.4248 18.34 54.2467 18.5196C54.0681 18.7026 53.9273 18.9192 53.8326 19.1568C53.6306 19.686 53.6306 20.2713 53.8326 20.8005C53.9273 21.0382 54.0681 21.2547 54.2467 21.4377C54.4249 21.6172 54.638 21.7583 54.8727 21.8524C55.3758 22.0498 55.9347 22.0498 56.4378 21.8524C56.9146 21.6652 57.2941 21.2906 57.4879 20.8157C57.69 20.2865 57.69 19.7012 57.4879 19.172C57.3925 18.9336 57.25 18.7168 57.069 18.5348C56.8886 18.3554 56.6739 18.2144 56.4378 18.1201C56.1907 18.0211 55.9265 17.9713 55.6603 17.9735L55.6552 17.9582ZM63.1932 16.6585C63.9661 16.6286 64.7055 16.9753 65.1774 17.5891V13.6443H66.5558V23.1572H65.1774V22.3987C64.9574 22.6803 64.6782 22.9099 64.3595 23.0713C63.9965 23.2477 63.5966 23.3344 63.1932 23.3241C62.3512 23.3322 61.5428 22.9941 60.9566 22.3886C60.6638 22.0813 60.4355 21.7185 60.2851 21.3215C59.9606 20.4609 59.9606 19.5116 60.2851 18.6511C60.4375 18.2596 60.6657 17.902 60.9566 17.5992C61.5428 16.9937 62.3512 16.6555 63.1932 16.6635V16.6585ZM63.3599 17.9582C63.0854 17.954 62.8133 18.0091 62.5621 18.1201C62.3355 18.222 62.1326 18.3702 61.9663 18.555C61.8014 18.7428 61.6745 18.9609 61.5928 19.1973C61.4173 19.7052 61.4173 20.2573 61.5928 20.7651C61.6745 21.0015 61.8014 21.2196 61.9663 21.4074C62.1326 21.5923 62.3355 21.7405 62.5621 21.8423C63.0662 22.0525 63.6333 22.0525 64.1374 21.8423C64.3649 21.7438 64.5694 21.5992 64.7382 21.4175C64.9027 21.2427 65.0327 21.0386 65.1219 20.8157C65.3064 20.2956 65.3064 19.7276 65.1219 19.2074C65.0352 18.9716 64.9031 18.7551 64.7331 18.5702C64.564 18.3889 64.3595 18.2443 64.1324 18.1453C63.8897 18.0347 63.6265 17.976 63.3599 17.9735V17.9582ZM71.1352 16.6585C71.5499 16.6546 71.9609 16.7373 72.3419 16.9012C72.7001 17.0564 73.0205 17.2876 73.2809 17.579C73.5497 17.8853 73.7573 18.2408 73.8919 18.6259C74.0441 19.0595 74.1192 19.5165 74.114 19.9761V20.2391V20.4921H69.4539C69.4869 20.7498 69.5692 20.9987 69.6962 21.2253C69.8052 21.4203 69.9509 21.592 70.1253 21.731C70.2923 21.8617 70.4826 21.9595 70.6858 22.0194C70.8956 22.0811 71.1134 22.1117 71.332 22.1103C71.6564 22.1079 71.9777 22.048 72.2813 21.9333C72.5982 21.8141 72.8933 21.6431 73.1547 21.4276L73.8414 22.4088C73.4846 22.7222 73.0669 22.9581 72.6144 23.1016C72.1707 23.2353 71.7096 23.3017 71.2462 23.2989C70.8009 23.3037 70.3586 23.223 69.9436 23.0612C69.5643 22.9092 69.2205 22.6802 68.9339 22.3886C68.642 22.0893 68.4151 21.7329 68.2674 21.3417C68.1043 20.9051 68.0239 20.4421 68.0301 19.9761C68.0253 19.5157 68.104 19.0581 68.2623 18.6259C68.405 18.2352 68.6248 17.8775 68.9085 17.5739C69.1931 17.2784 69.5374 17.0473 69.9184 16.8962C70.3063 16.7455 70.7191 16.67 71.1352 16.6736V16.6585ZM74.7754 23.1421V22.8387H74.9016V22.7728H74.5734V22.8387H74.7149V23.1572L74.7754 23.1421ZM75.4065 23.1421V22.7577H75.3055L75.1894 23.0207L75.0732 22.7577H74.9723V23.1421H75.0429V22.8538L75.1491 23.1016H75.2197L75.3257 22.8538V23.1421H75.4065ZM71.1099 17.8874C70.8861 17.8831 70.6635 17.9209 70.4535 17.9988C70.2647 18.068 70.0926 18.1766 69.9487 18.3173C69.8062 18.464 69.6916 18.6354 69.6104 18.8231C69.5193 19.0223 69.4564 19.2335 69.4236 19.4502H72.6953C72.6594 19.0173 72.4819 18.6085 72.1903 18.287C71.8974 18.0171 71.5073 17.8784 71.1099 17.9026V17.8874Z" fill="#A5A5A5"/>
<path d="M11.7666 10.1297H10.2216V2.25028L7.42953 9.18395H5.80379L3.02185 2.32614V10.1297H1.4668V0.556059H3.83473L6.61667 7.39869L9.39359 0.556059H11.7615L11.7666 10.1297ZM19.8953 10.1297H18.4664V9.34583C18.2382 9.63789 17.9486 9.87619 17.6182 10.0438C17.2423 10.2248 16.8285 10.3133 16.4115 10.3017C15.5372 10.311 14.6973 9.9598 14.089 9.33062C13.7871 9.01614 13.5503 8.64488 13.3923 8.23819C13.0554 7.34528 13.0554 6.3598 13.3923 5.46677C13.5504 5.06024 13.7872 4.689 14.089 4.37438C14.6973 3.74516 15.5372 3.39406 16.4115 3.40337C16.829 3.39229 17.243 3.48252 17.6182 3.66635C17.9485 3.83629 18.2379 4.07615 18.4664 4.36933V3.58037H19.8953V10.1297ZM16.5781 4.75369C16.2933 4.74883 16.0109 4.80577 15.7501 4.92058C15.5158 5.02623 15.3061 5.1795 15.1342 5.37069C14.9629 5.56606 14.831 5.79275 14.7454 6.03824C14.5631 6.5657 14.5631 7.13926 14.7454 7.66672C14.8318 7.91291 14.9656 8.13971 15.1392 8.33435C15.3109 8.52573 15.5208 8.67902 15.7551 8.78446C16.2785 9.0036 16.8677 9.0036 17.391 8.78446C17.626 8.68192 17.8373 8.53223 18.012 8.34445C18.188 8.15179 18.3252 7.92685 18.4159 7.68193C18.6069 7.14205 18.6069 6.55281 18.4159 6.01293C18.3252 5.76813 18.188 5.54307 18.012 5.35046C17.8371 5.1629 17.6257 5.01317 17.391 4.91047C17.1343 4.80096 16.8571 4.7475 16.5781 4.75369ZM26.4437 5.21897C26.3242 5.15018 26.2012 5.08773 26.0751 5.03185C25.9109 4.96033 25.7422 4.89952 25.5703 4.84978C25.3844 4.79354 25.1956 4.74794 25.0047 4.71323C24.8048 4.6763 24.6021 4.65768 24.3989 4.6576C24.0796 4.63934 23.762 4.71493 23.485 4.87506C23.284 4.9925 23.1608 5.20842 23.1618 5.44146C23.1583 5.54435 23.1883 5.64573 23.2477 5.7298C23.3078 5.8104 23.3855 5.87613 23.4749 5.922C23.5835 5.97728 23.6989 6.01804 23.8182 6.04335C23.9496 6.07366 24.0909 6.1006 24.2423 6.12429L24.9189 6.22544C25.5203 6.2878 26.0957 6.50369 26.5901 6.85254C27.0051 7.16109 27.2413 7.65511 27.2211 8.17246C27.2242 8.47277 27.1548 8.76948 27.0192 9.03728C26.8774 9.29589 26.6789 9.51898 26.4387 9.68969C26.1567 9.89233 25.8401 10.0414 25.5045 10.1297C25.093 10.2396 24.6683 10.2924 24.2423 10.2865C24.074 10.2865 23.8788 10.2764 23.6567 10.2562C23.4168 10.2333 23.1788 10.1928 22.9448 10.1347C22.6826 10.069 22.4261 9.9828 22.1773 9.87677C21.9135 9.76424 21.6642 9.61989 21.4351 9.44698L22.0966 8.37476C22.2185 8.46929 22.3467 8.55546 22.4803 8.63268C22.63 8.7178 22.7871 8.78899 22.9498 8.84508C23.139 8.91011 23.3331 8.95924 23.5304 8.99175C23.7691 9.03066 24.0106 9.04924 24.2524 9.04738C24.6351 9.06909 25.0169 8.99431 25.3632 8.82998C25.5905 8.725 25.7377 8.49902 25.7419 8.24829C25.7384 8.0575 25.6348 7.8826 25.4692 7.78808C25.2048 7.64082 24.9124 7.55117 24.6109 7.52516L23.9293 7.43411C23.3277 7.38522 22.7528 7.164 22.2732 6.79691C21.8971 6.4786 21.6869 6.00538 21.7027 5.5123C21.6986 5.20813 21.7642 4.90707 21.8947 4.63232C22.0196 4.37163 22.2048 4.14453 22.4349 3.96979C22.6898 3.78059 22.9773 3.64 23.2831 3.55509C23.6495 3.45267 24.0286 3.40329 24.409 3.40842C24.8995 3.40562 25.3883 3.46682 25.863 3.59049C26.2857 3.6956 26.6895 3.86624 27.0596 4.09623L26.4437 5.21897ZM33.2193 4.87506H30.6948V7.72746C30.6944 7.92035 30.727 8.11184 30.7907 8.29382C30.8372 8.43457 30.9129 8.56393 31.0129 8.67321C31.1037 8.77053 31.2161 8.84508 31.3411 8.8906C31.4722 8.93822 31.6106 8.96214 31.7501 8.96144C31.9834 8.95958 32.2143 8.91499 32.4316 8.82998C32.6537 8.74707 32.8668 8.64197 33.0678 8.51644L33.6333 9.65938C33.3552 9.84565 33.0571 9.99998 32.7447 10.1196C32.3878 10.2521 32.0095 10.3174 31.6288 10.3118C30.9927 10.3488 30.3691 10.1241 29.9021 9.68969C29.443 9.15596 29.2175 8.45977 29.276 7.75777V4.88012H27.9785V3.58037H29.276V1.59788H30.71V3.58037H33.2344L33.2193 4.87506ZM37.6118 3.40337C38.0418 3.39793 38.4682 3.48232 38.8639 3.65118C39.2357 3.81207 39.5682 4.05193 39.8383 4.35415C40.1181 4.67233 40.3341 5.0415 40.4745 5.44146C40.6313 5.89157 40.7081 6.36573 40.7017 6.84244V7.11546V7.37338H35.8397C35.8751 7.64001 35.9608 7.89747 36.0921 8.13205C36.2069 8.32726 36.3577 8.4989 36.5364 8.63779C36.7096 8.77262 36.9065 8.87388 37.117 8.93613C37.3349 9.00093 37.5612 9.03333 37.7885 9.03228C38.1333 9.03309 38.4754 8.97143 38.7983 8.85019C39.1251 8.7322 39.4304 8.56126 39.702 8.34445L40.414 9.35593C40.0439 9.68063 39.6107 9.9252 39.1417 10.0741C38.6816 10.2134 38.2035 10.2832 37.7229 10.2814C37.2533 10.2977 36.7852 10.2221 36.3446 10.0589C35.9464 9.9029 35.5852 9.66518 35.2842 9.36093C34.9813 9.05017 34.7458 8.67995 34.5925 8.27361C34.4231 7.82106 34.3392 7.34086 34.3452 6.85753C34.3392 6.38013 34.4196 5.90551 34.5824 5.45667C34.7306 5.051 34.9591 4.67945 35.254 4.36427C35.538 4.06203 35.8819 3.82258 36.2638 3.66129C36.6912 3.4861 37.1499 3.40006 37.6118 3.40842V3.40337ZM37.5866 4.67783C37.3541 4.67354 37.1229 4.713 36.9049 4.79414C36.7154 4.86925 36.5435 4.98291 36.4001 5.12793C36.2533 5.27428 36.1337 5.44552 36.0466 5.63365C35.9465 5.8435 35.8768 6.06658 35.8397 6.29617H39.2325C39.1872 5.85046 38.9953 5.4324 38.6873 5.1077C38.3936 4.8211 37.9964 4.66599 37.5866 4.67783ZM45.6648 3.40337C45.8626 3.40212 46.0602 3.41734 46.2555 3.44888C46.4282 3.47896 46.5973 3.5264 46.7604 3.59049L46.417 5.00655C46.2574 4.92539 46.0876 4.86586 45.9122 4.82955C45.7278 4.79067 45.5401 4.77033 45.3518 4.76886C45.1375 4.76683 44.9249 4.80633 44.7257 4.88517C44.533 4.95897 44.3602 5.07672 44.2208 5.22908C44.0768 5.39081 43.9668 5.58 43.8976 5.78543C43.8171 6.02477 43.7779 6.27619 43.7816 6.52889V10.1347H42.3528V3.56014H43.7664V4.29853C43.9665 4.00472 44.2421 3.77056 44.5641 3.62083C44.9067 3.47317 45.2768 3.40074 45.6497 3.40842L45.6648 3.40337ZM50.5471 3.40337C51.0177 3.39855 51.4847 3.48796 51.9204 3.66635C52.3354 3.8367 52.7028 4.10576 52.9908 4.45025L52.0769 5.42636C51.865 5.21986 51.6212 5.04907 51.3548 4.92058C51.0882 4.80081 50.7988 4.74042 50.5066 4.74358C50.2449 4.74108 49.9853 4.79274 49.7443 4.89529C49.5113 4.99409 49.3016 5.14051 49.1283 5.32518C48.9516 5.51729 48.8143 5.74246 48.7244 5.98773C48.5276 6.53864 48.5276 7.141 48.7244 7.69204C48.8144 7.9373 48.9517 8.16236 49.1283 8.35455C49.3017 8.53908 49.5114 8.68552 49.7443 8.78446C49.9853 8.887 50.2449 8.93868 50.5066 8.93613C50.8102 8.93903 51.1105 8.8733 51.3852 8.74393C51.6507 8.61422 51.8944 8.44351 52.1071 8.23819L52.9856 9.22448C52.6917 9.56671 52.3216 9.8352 51.9052 10.0083C51.4713 10.1868 51.006 10.2763 50.5369 10.2713C50.053 10.2781 49.5725 10.1887 49.1233 10.0083C48.3013 9.68017 47.6547 9.02148 47.341 8.19267C47.0129 7.31032 47.0129 6.33902 47.341 5.45667C47.6547 4.62794 48.3013 3.96921 49.1233 3.64106C49.5731 3.47165 50.0516 3.3926 50.532 3.40842L50.5471 3.40337ZM60.5792 10.1297H59.1504V9.34583C58.9222 9.63789 58.6325 9.87619 58.3022 10.0438C57.9262 10.2248 57.5125 10.3133 57.0955 10.3017C56.2211 10.311 55.3813 9.9598 54.773 9.33062C54.4711 9.01614 54.2343 8.64488 54.0762 8.23819C53.7393 7.34528 53.7393 6.3598 54.0762 5.46677C54.2344 5.06024 54.4712 4.689 54.773 4.37438C55.3813 3.74516 56.2211 3.39406 57.0955 3.40337C57.5129 3.39229 57.9269 3.48252 58.3022 3.66635C58.6324 3.83629 58.9219 4.07615 59.1504 4.36933V3.58037H60.5792V10.1297ZM57.2671 4.75369C56.9823 4.74883 56.6999 4.80577 56.4391 4.92058C56.2049 5.02623 55.9951 5.1795 55.8231 5.37069C55.652 5.56606 55.5199 5.79275 55.4343 6.03824C55.252 6.5657 55.252 7.13926 55.4343 7.66672C55.5199 7.91222 55.652 8.1389 55.8231 8.33435C55.995 8.52561 56.2047 8.6789 56.4391 8.78446C56.9626 9.00302 57.5515 9.00302 58.075 8.78446C58.3098 8.6818 58.5212 8.53211 58.6959 8.34445C58.8727 8.15226 59.01 7.9272 59.0998 7.68193C59.2917 7.14217 59.2917 6.5527 59.0998 6.01293C59.01 5.76778 58.8727 5.5426 58.6959 5.35046C58.5211 5.1629 58.3098 5.01317 58.075 4.91047C57.8213 4.8025 57.5478 4.7491 57.2722 4.75369H57.2671ZM65.9966 3.40842C66.1945 3.40718 66.392 3.4224 66.5874 3.45394C66.7601 3.48402 66.9291 3.53146 67.0923 3.59555L66.7489 5.01162C66.5892 4.93045 66.4194 4.87093 66.2441 4.8346C66.0597 4.79579 65.872 4.77547 65.6837 4.77392C65.4694 4.77176 65.2568 4.81126 65.0576 4.89024C64.865 4.96403 64.692 5.08178 64.5527 5.23414C64.4087 5.39588 64.2987 5.58511 64.2296 5.79042C64.149 6.02988 64.1098 6.2813 64.1135 6.53388V10.1398H62.6846V3.56521H64.1135V4.30358C64.314 4.00704 64.5916 3.77098 64.9162 3.62083C65.2587 3.47333 65.6288 3.4009 66.0017 3.40842H65.9966ZM70.6821 3.40842C71.0996 3.39735 71.5136 3.48757 71.8888 3.67141C72.2189 3.84148 72.5083 4.08132 72.737 4.37438V0.282959H74.1658V10.1297H72.737V9.34583C72.5087 9.63789 72.2192 9.87619 71.8888 10.0438C71.5128 10.2248 71.0991 10.3133 70.6821 10.3017C69.8076 10.311 68.9679 9.9598 68.3595 9.33062C68.0523 9.0173 67.8103 8.64604 67.6476 8.23819C67.3107 7.34528 67.3107 6.3598 67.6476 5.46677C67.8058 5.06024 68.0426 4.689 68.3444 4.37438C68.9527 3.74516 69.7925 3.39406 70.6669 3.40337L70.6821 3.40842ZM75.8319 9.5278C75.889 9.52653 75.9456 9.53686 75.9986 9.55823C76.0493 9.57948 76.0957 9.61037 76.1348 9.64928C76.1733 9.68678 76.2041 9.73149 76.2257 9.78073C76.2701 9.88409 76.2701 10.001 76.2257 10.1044C76.204 10.1536 76.1731 10.1982 76.1348 10.2358C76.0956 10.2745 76.0492 10.3054 75.9986 10.3269C75.9461 10.3503 75.8893 10.3624 75.8319 10.3623C75.6619 10.3647 75.5069 10.2652 75.4382 10.1095C75.3938 10.0061 75.3938 9.88908 75.4382 9.78584C75.4812 9.68435 75.563 9.60422 75.6653 9.56322C75.7195 9.53977 75.7779 9.52769 75.8369 9.5278H75.8319ZM75.8319 10.2713C75.8753 10.2718 75.9184 10.2632 75.9582 10.2461C75.9959 10.2289 76.0302 10.2048 76.0591 10.1752C76.1842 10.0474 76.1842 9.84286 76.0591 9.715C76.0303 9.68516 75.996 9.66112 75.9582 9.64417C75.9165 9.63557 75.8735 9.63557 75.8319 9.64417C75.7903 9.63604 75.7474 9.63604 75.7057 9.64417C75.6148 9.68841 75.5496 9.7726 75.5299 9.87189C75.51 9.97118 75.5377 10.0741 75.6047 10.1499C75.6336 10.1798 75.6679 10.2037 75.7057 10.2207C75.7457 10.2452 75.7905 10.2608 75.8369 10.2663L75.8319 10.2713ZM75.8319 9.76552C75.8736 9.7632 75.9148 9.77574 75.9481 9.80094C75.9751 9.82324 75.99 9.85691 75.9884 9.89198C75.9902 9.92206 75.9792 9.95144 75.9582 9.97293C75.9332 9.99627 75.9013 10.0106 75.8672 10.0133L75.9935 10.16H75.8924L75.7763 10.0133H75.741V10.16H75.6603V9.77063L75.8319 9.76552ZM75.736 9.83636V9.93751H75.8319C75.8484 9.94227 75.866 9.94227 75.8825 9.93751C75.8887 9.92473 75.8887 9.90975 75.8825 9.89709C75.8897 9.88455 75.8897 9.86911 75.8825 9.85656C75.8659 9.85204 75.8484 9.85204 75.8319 9.85656L75.736 9.83636ZM70.8284 4.77897C70.5437 4.77412 70.2612 4.83105 70.0004 4.94586C69.7662 5.05151 69.5564 5.2048 69.3845 5.39598C69.2133 5.59138 69.0812 5.81806 68.9957 6.06356C68.8133 6.59102 68.8133 7.16458 68.9957 7.69204C69.0812 7.93753 69.2133 8.16422 69.3845 8.35966C69.5563 8.55093 69.7662 8.70422 70.0004 8.80966C70.5239 9.02833 71.1128 9.02833 71.6363 8.80966C71.8711 8.70712 72.0825 8.55743 72.2573 8.36977C72.4513 8.16886 72.601 7.92929 72.6966 7.66672C72.888 7.12695 72.888 6.5376 72.6966 5.99783C72.6066 5.75257 72.4693 5.52751 72.2927 5.33529C72.1178 5.14773 71.9064 4.99799 71.6716 4.89529C71.4137 4.79112 71.1366 4.74286 70.8587 4.75369L70.8284 4.77897Z" fill="#A5A5A5"/>
</g>
<defs>
<clipPath id="clip0_1631_109054">
<rect width="76.6452" height="24" fill="white"/>
</clipPath>
</defs>
</svg>
