<svg width="57" height="24" viewBox="0 0 57 24" fill="none" xmlns="http://www.w3.org/2000/svg">
<g clip-path="url(#clip0_1631_109057)">
<path fill-rule="evenodd" clip-rule="evenodd" d="M23.1127 12.7688L20.3289 20.2682L20.032 18.7445C19.3388 16.876 17.8378 14.9158 16.0898 14.1214L18.6365 23.7512L21.647 23.7498L26.124 12.7688H23.1127Z" fill="#A5A5A5"/>
<path fill-rule="evenodd" clip-rule="evenodd" d="M25.498 23.7628L27.2776 12.7588H30.1216L28.3407 23.7628H25.498Z" fill="#A5A5A5"/>
<path fill-rule="evenodd" clip-rule="evenodd" d="M38.6541 13.0296C38.0921 12.8078 37.2054 12.5667 36.1053 12.5667C33.2918 12.5667 31.3153 14.0606 31.298 16.1975C31.2799 17.7802 32.7114 18.6629 33.7874 19.1887C34.898 19.7268 35.2689 20.0722 35.2654 20.5536C35.2546 21.2908 34.3769 21.6269 33.5612 21.6269C32.4244 21.6269 31.8185 21.4611 30.8865 21.0518L30.5171 20.8762L30.1191 23.3389C30.7845 23.6454 32.0129 23.9112 33.2897 23.9249C36.2754 23.9249 38.218 22.4479 38.2411 20.1672C38.2531 18.9118 37.4932 17.9615 35.8508 17.177C34.8594 16.6669 34.2463 16.3288 34.2553 15.8118C34.2562 15.3552 34.7697 14.8659 35.8849 14.8659C36.8164 14.8504 37.4862 15.0638 38.0134 15.2889L38.2671 15.4149L38.6541 13.0296ZM45.9484 12.7698H43.7513C43.07 12.7698 42.5594 12.9638 42.2587 13.6831L38.0368 23.7657H41.0239C41.0239 23.7657 41.5123 22.4087 41.6228 22.1112C41.9486 22.1112 44.8498 22.118 45.264 22.118C45.3519 22.5017 45.6103 23.7657 45.6103 23.7657H48.2514L45.9484 12.7698ZM42.4411 19.8605C42.6772 19.229 43.5741 16.7848 43.5741 16.7848C43.5566 16.8146 43.8074 16.1484 43.9523 15.7365L44.1417 16.6849C44.1417 16.6849 44.6882 19.3109 44.8022 19.8605H42.4411Z" fill="#A5A5A5"/>
<path fill-rule="evenodd" clip-rule="evenodd" d="M17.7447 12.7629H13.1577L13.1309 12.9524C16.6972 13.8636 19.0505 16.1011 20.0301 18.7471L19.0332 13.6898C18.862 12.9941 18.3628 12.7874 17.7447 12.7629Z" fill="#A5A5A5"/>
<path fill-rule="evenodd" clip-rule="evenodd" d="M4.55043 10.1042H2.73663L0.644531 0.683005L2.64893 0.348145L4.08053 7.7212L7.72653 0.445535H9.65193L4.55043 10.1042Z" fill="#A5A5A5"/>
<path fill-rule="evenodd" clip-rule="evenodd" d="M13.9883 7.0242H9.66331C9.54521 8.3342 10.1546 8.9058 11.1871 8.9058C12.0522 8.9058 12.8132 8.585 13.6321 8.0694L13.6257 9.3794C12.8225 9.8812 11.8943 10.2018 10.806 10.2018C8.92271 10.2018 7.67891 9.1286 8.05271 6.7033C8.38961 4.51539 9.90501 3.19166 11.6629 3.19166C13.6859 3.19166 14.3586 4.7107 14.0646 6.6201C14.0433 6.7594 14.0032 6.9266 13.9883 7.0242ZM11.4431 4.34839C10.7733 4.34839 10.1475 4.8777 9.85241 5.97896H12.5309C12.5803 4.93347 12.2521 4.34839 11.4431 4.34839ZM16.8074 6.202L16.2127 10.0625H14.5387L15.5756 3.33063H16.9988L16.9997 4.68268C17.5664 3.90228 18.3371 3.24742 19.3918 3.19166L19.4015 4.84997C18.3444 4.91974 17.3934 5.47709 16.8074 6.202ZM19.3795 10.0625L20.4168 3.33063H22.0908L21.0539 10.0625H19.3795ZM21.4417 2.20193C20.8838 2.20193 20.4974 1.81158 20.5833 1.25424C20.6713 0.68288 21.1801 0.27853 21.738 0.27853C22.2822 0.27853 22.6662 0.68288 22.5783 1.25424C22.4923 1.81158 21.9859 2.20193 21.4417 2.20193ZM26.7274 1.49102C26.1552 1.49102 25.8097 1.74181 25.7174 2.34148L25.5648 3.33063H26.8484L26.8472 4.6964H25.3544L24.5276 10.0625H22.8676L23.6944 4.6964H22.7177L22.9281 3.33063H23.9045L24.0828 2.1739C24.3125 0.68288 25.3471 0.12525 26.7283 0.12525C27.0214 0.12525 27.2403 0.15328 27.4037 0.18101L27.4162 1.54678C27.2529 1.51905 27.0062 1.49102 26.7274 1.49102ZM26.7455 10.0625L27.7827 3.33063H29.4567L28.4198 10.0625H26.7455ZM28.8076 2.20193C28.2497 2.20193 27.8634 1.81158 27.9493 1.25424C28.0373 0.68288 28.5461 0.27853 29.104 0.27853C29.6482 0.27853 30.0325 0.68288 29.9445 1.25424C29.8586 1.81158 29.3518 2.20193 28.8076 2.20193ZM35.9477 7.0242H31.6226C31.5046 8.3342 32.1139 8.9058 33.1464 8.9058C34.0115 8.9058 34.7723 8.585 35.5914 8.0694L35.5847 9.3794C34.7819 9.8812 33.8534 10.2018 32.7651 10.2018C30.8818 10.2018 29.6382 9.1286 30.0117 6.7033C30.349 4.51539 31.8643 3.19166 33.6222 3.19166C35.6452 3.19166 36.318 4.7107 36.024 6.6201C36.0023 6.7594 35.9626 6.9266 35.9477 7.0242ZM33.4022 4.34839C32.7323 4.34839 32.1066 4.8777 31.8117 5.97896H34.4902C34.5396 4.93347 34.2111 4.34839 33.4022 4.34839ZM40.9067 10.0625L40.9108 9.1286C40.3482 9.7002 39.6155 10.2018 38.6806 10.2018C37.2713 10.2018 36.3028 9.1566 36.6526 6.8846C37.039 4.37612 38.592 3.26114 40.1544 3.26114C40.7965 3.26114 41.2957 3.37267 41.6785 3.51193L42.1788 0.26451L43.8938 0L42.3437 10.0625H40.9067ZM41.466 4.89172C41.0776 4.6964 40.7716 4.59889 40.1997 4.59889C39.3206 4.59889 38.5695 5.3098 38.3418 6.7874C38.1402 8.0971 38.6037 8.7105 39.3431 8.7105C39.9568 8.7105 40.487 8.3485 41.0192 7.7908L41.466 4.89172ZM47.4721 10.1259C46.6795 10.1259 46.0337 9.9989 45.4322 9.7881L46.5334 2.64103L47.8322 2.44017L47.3558 5.53344C47.7355 5.19564 48.263 4.85785 48.9077 4.85785C49.9855 4.85785 50.7074 5.66044 50.4438 7.3704C50.1544 9.2494 48.9942 10.1259 47.4721 10.1259ZM48.4076 5.97662C47.9848 5.97662 47.5604 6.2619 47.1849 6.6423L46.8286 8.954C47.0785 9.0489 47.2515 9.0912 47.6107 9.0912C48.4138 9.0912 48.9749 8.6057 49.1538 7.4443C49.3052 6.4624 48.9784 5.97662 48.4076 5.97662ZM53.4315 10.337C52.7836 11.5933 52.1424 11.9839 51.1595 11.9839C50.9374 11.9839 50.8141 11.9626 50.7027 11.9311L50.6945 10.8859C50.8573 10.9282 51.0318 10.9597 51.2749 10.9597C51.6449 10.9597 51.9667 10.791 52.1824 10.4214L52.3504 10.0836L51.2752 5.05842L52.6225 4.88967L53.2465 8.521L54.936 4.96354H56.1936L53.4315 10.337Z" fill="#A5A5A5"/>
</g>
<defs>
<clipPath id="clip0_1631_109057">
<rect width="56" height="24" fill="white" transform="translate(0.644531)"/>
</clipPath>
</defs>
</svg>
