<svg width="28" height="28" viewBox="0 0 28 28" fill="none" xmlns="http://www.w3.org/2000/svg">
<path d="M19.9208 0H15.2019V19.0724C15.2019 21.3449 13.387 23.2116 11.1284 23.2116C8.86974 23.2116 7.0548 21.3449 7.0548 19.0724C7.0548 16.8406 8.82942 15.0145 11.0074 14.9333V10.1449C6.20782 10.2261 2.33594 14.1623 2.33594 19.0724C2.33594 24.0232 6.28849 28 11.1687 28C16.0488 28 20.0014 23.9826 20.0014 19.0724V9.29273C21.776 10.5913 23.9539 11.3623 26.2529 11.4029V6.61449C22.7037 6.49276 19.9208 3.57101 19.9208 0Z" fill="url(#paint0_linear_1186_23966)"/>
<defs>
<linearGradient id="paint0_linear_1186_23966" x1="14.2944" y1="0" x2="14.2944" y2="28" gradientUnits="userSpaceOnUse">
<stop stop-color="#D5A7FF"/>
<stop offset="1" stop-color="#BB70FF"/>
</linearGradient>
</defs>
</svg>
