<svg width="28" height="28" viewBox="0 0 28 28" fill="none" xmlns="http://www.w3.org/2000/svg">
<path d="M2.33594 3.5L3.56019 3.74485C4.56586 3.94598 5.32229 4.78021 5.42434 5.8007L5.6026 7.58333M5.6026 7.58333L6.75597 17.1947C6.89669 18.3674 7.89154 19.25 9.07268 19.25H19.5644C21.4381 19.25 23.0714 17.9748 23.5259 16.157L24.8357 10.9175C25.2591 9.22389 23.9782 7.58333 22.2325 7.58333H5.6026Z" stroke="url(#paint0_linear_1186_23881)" stroke-width="1.2" stroke-linecap="round"/>
<path d="M15.1667 15.75H10.5" stroke="url(#paint1_linear_1186_23881)" stroke-width="1.2" stroke-linecap="round" stroke-linejoin="round"/>
<circle cx="9.92188" cy="23.3334" r="1.75" fill="url(#paint2_linear_1186_23881)"/>
<circle cx="20.4219" cy="23.3334" r="1.75" fill="url(#paint3_linear_1186_23881)"/>
<defs>
<linearGradient id="paint0_linear_1186_23881" x1="28.4553" y1="6.58152" x2="-1.9818" y2="8.06433" gradientUnits="userSpaceOnUse">
<stop stop-color="#9DED76"/>
<stop offset="0.473958" stop-color="#4BCF70"/>
</linearGradient>
<linearGradient id="paint1_linear_1186_23881" x1="15.7239" y1="15.9457" x2="9.7624" y2="16.8605" gradientUnits="userSpaceOnUse">
<stop stop-color="#9DED76"/>
<stop offset="0.473958" stop-color="#4BCF70"/>
</linearGradient>
<linearGradient id="paint2_linear_1186_23881" x1="12.0898" y1="22.2682" x2="7.51832" y2="22.4185" gradientUnits="userSpaceOnUse">
<stop stop-color="#9DED76"/>
<stop offset="0.473958" stop-color="#4BCF70"/>
</linearGradient>
<linearGradient id="paint3_linear_1186_23881" x1="22.5898" y1="22.2682" x2="18.0183" y2="22.4185" gradientUnits="userSpaceOnUse">
<stop stop-color="#9DED76"/>
<stop offset="0.473958" stop-color="#4BCF70"/>
</linearGradient>
</defs>
</svg>
