<svg width="28" height="28" viewBox="0 0 28 28" fill="none" xmlns="http://www.w3.org/2000/svg">
<path d="M9.18996 8.15955L13.9946 7.07043V10.3377H13.751C13.3654 10.4975 12.5747 10.8169 12.4975 10.8169C12.4204 10.8169 11.4112 11.7554 10.9162 12.2247L10.4341 14.5774L11.8226 16.5637L13.751 17.4894L16.4509 16.6794L17.5308 14.3074L16.663 11.5304L14.3682 10.3377V7.07043L17.9607 7.73085L20.5128 9.1163L23.0285 11.4132L24.5963 13.5279L24.0129 15.4966L21.9712 17.9759L18.617 20.1999L13.5127 21.2207L7.7886 19.3249L4.10622 15.4966L3.66797 13.856L6.17113 10.3377L9.18996 8.15955Z" fill="url(#paint0_linear_1304_17571)" stroke="white" stroke-width="0.4"/>
<path d="M3.84337 14.9152C3.53137 14.3446 3.53138 13.6552 3.84339 13.0847C5.82604 9.45936 9.67996 7 14.1093 7C18.5388 7 22.3927 9.45944 24.3754 13.0848C24.6874 13.6554 24.6874 14.3448 24.3754 14.9153C22.3927 18.5406 18.5388 21 14.1094 21C9.67997 21 5.826 18.5406 3.84337 14.9152Z" stroke="#3ACA6C" stroke-width="1.2"/>
<circle cx="14.1094" cy="14" r="3.5" stroke="#3ACA6C" stroke-width="1.2"/>
<defs>
<linearGradient id="paint0_linear_1304_17571" x1="27.0952" y1="9.83897" x2="-0.204942" y2="11.1667" gradientUnits="userSpaceOnUse">
<stop stop-color="#9DED76"/>
<stop offset="0.473958" stop-color="#4BCF70"/>
</linearGradient>
</defs>
</svg>
