<svg width="24" height="24" viewBox="0 0 24 24" fill="none" xmlns="http://www.w3.org/2000/svg">
<path d="M19.7406 4.26031C19.3935 3.91323 18.8307 3.91323 18.4836 4.26031L12.0004 10.7431L5.51726 4.26031C5.17017 3.91323 4.60742 3.91323 4.26033 4.26031C3.91322 4.60738 3.91322 5.17011 4.26033 5.51718L10.7435 12L4.26034 18.4828C3.91324 18.8299 3.91324 19.3926 4.26034 19.7397C4.60743 20.0868 5.17019 20.0868 5.51728 19.7397L12.0004 13.2569L18.4836 19.7397C18.8307 20.0868 19.3935 20.0868 19.7406 19.7397C20.0876 19.3926 20.0876 18.8299 19.7406 18.4828L13.2574 12L19.7406 5.51718C20.0876 5.17011 20.0876 4.60738 19.7406 4.26031Z" fill="url(#paint0_linear_1655_83485)"/>
<defs>
<linearGradient id="paint0_linear_1655_83485" x1="12.0004" y1="4" x2="12.0004" y2="20" gradientUnits="userSpaceOnUse">
<stop stop-color="#D5A7FF"/>
<stop offset="1" stop-color="#BB70FF"/>
</linearGradient>
</defs>
</svg>
