<svg width="28" height="28" viewBox="0 0 28 28" fill="none" xmlns="http://www.w3.org/2000/svg">
<path d="M27.7214 8.4001C27.7214 8.4001 27.448 6.46963 26.6058 5.62197C25.5394 4.50635 24.3472 4.50088 23.8003 4.43525C19.8846 4.15088 14.0056 4.15088 14.0056 4.15088H13.9947C13.9947 4.15088 8.11573 4.15088 4.20005 4.43525C3.65317 4.50088 2.46097 4.50635 1.39455 5.62197C0.552351 6.46963 0.284379 8.4001 0.284379 8.4001C0.284379 8.4001 0 10.6696 0 12.9337V15.0556C0 17.3196 0.27891 19.5892 0.27891 19.5892C0.27891 19.5892 0.552351 21.5196 1.38908 22.3673C2.4555 23.4829 3.85552 23.4446 4.47896 23.5649C6.72118 23.7782 14.0002 23.8438 14.0002 23.8438C14.0002 23.8438 19.8846 23.8329 23.8003 23.554C24.3472 23.4884 25.5394 23.4829 26.6058 22.3673C27.448 21.5196 27.7214 19.5892 27.7214 19.5892C27.7214 19.5892 28.0004 17.3251 28.0004 15.0556V12.9337C28.0004 10.6696 27.7214 8.4001 27.7214 8.4001ZM11.1072 17.6313V9.76182L18.6705 13.7103L11.1072 17.6313Z" fill="url(#paint0_linear_1186_23963)"/>
<defs>
<linearGradient id="paint0_linear_1186_23963" x1="14.0002" y1="4.15088" x2="14.0002" y2="23.8438" gradientUnits="userSpaceOnUse">
<stop stop-color="#D5A7FF"/>
<stop offset="1" stop-color="#BB70FF"/>
</linearGradient>
</defs>
</svg>
