<svg width="229" height="356" viewBox="0 0 229 356" fill="none" xmlns="http://www.w3.org/2000/svg">
<g clip-path="url(#clip0_1842_138442)">
<path d="M192.502 197.086C192.168 197.086 191.834 197.086 191.444 197.031C186.876 196.478 183.589 192.332 184.202 187.799C185.038 181.166 176.292 162.924 159.356 158.833C154.844 157.783 152.114 153.25 153.173 148.828C154.231 144.35 158.799 141.641 163.256 142.692C188.603 148.772 202.585 175.085 200.747 189.845C200.246 193.991 196.625 197.086 192.502 197.086Z" fill="url(#paint0_linear_1842_138442)"/>
<path d="M23.7669 141.918C22.1514 141.918 20.5359 141.255 19.366 139.928L1.59538 119.696C-0.521505 117.264 -0.298675 113.615 2.15245 111.515C4.60358 109.414 8.28027 109.635 10.3972 112.067L28.1678 132.299C30.2847 134.732 30.0619 138.38 27.6107 140.481C26.4966 141.476 25.1596 141.918 23.7669 141.918Z" fill="#C360EF"/>
<path d="M118.527 343.299C113.012 343.299 108.5 338.821 108.5 333.348V202.559C108.5 197.086 113.012 192.609 118.527 192.609C124.042 192.609 128.555 197.086 128.555 202.559V333.348C128.555 338.821 124.042 343.299 118.527 343.299Z" fill="url(#paint1_linear_1842_138442)"/>
<path d="M118.526 346.615C111.117 346.615 105.156 340.701 105.156 333.349V279.728C105.156 272.376 111.117 266.461 118.526 266.461C125.935 266.461 131.896 272.376 131.896 279.728V333.349C131.896 340.645 125.879 346.615 118.526 346.615Z" fill="url(#paint2_linear_1842_138442)"/>
<path d="M170.729 343.299C166.161 343.299 162.039 340.148 160.981 335.56L133.461 215.107C132.235 209.745 135.634 204.438 141.037 203.222C146.441 202.006 151.789 205.378 153.014 210.74L180.534 331.192C181.759 336.555 178.361 341.861 172.958 343.077C172.233 343.188 171.509 343.299 170.729 343.299Z" fill="url(#paint3_linear_1842_138442)"/>
<path d="M64.4346 172.321C54.9087 172.321 46.3854 169.889 41.2046 165.964C37.5279 163.2 36.8594 158.004 39.6448 154.356C42.4302 150.707 47.6667 150.044 51.3434 152.808C56.6913 156.843 77.0246 158.557 89.0574 146.119C92.2327 142.802 97.5249 142.692 100.867 145.898C104.21 149.049 104.321 154.3 101.09 157.617C90.9514 168.12 76.8574 172.321 64.4346 172.321Z" fill="url(#paint4_linear_1842_138442)"/>
<path d="M170.717 346.615C164.589 346.615 159.129 342.469 157.681 336.278L145.37 282.658C143.754 275.527 148.211 268.396 155.453 266.793C162.639 265.19 169.825 269.612 171.441 276.798L183.752 330.419C185.368 337.549 180.911 344.68 173.669 346.284C172.722 346.505 171.719 346.615 170.717 346.615Z" fill="url(#paint5_linear_1842_138442)"/>
<path d="M79.9715 352.143C77.3532 351.425 75.682 348.826 76.0719 346.118C78.3002 330.861 91.5586 319.086 107.602 319.086C123.59 319.086 136.793 330.75 139.133 346.007C139.523 348.716 137.796 351.314 135.122 352.033C129.774 353.415 119.802 355.46 106.878 355.46C94.1212 355.515 84.9294 353.525 79.9715 352.143Z" fill="url(#paint6_linear_1842_138442)"/>
<path d="M152.846 352.143C150.228 351.425 148.557 348.826 148.947 346.118C151.175 330.861 164.434 319.086 180.477 319.086C196.465 319.086 209.668 330.75 212.008 346.007C212.398 348.716 210.671 351.314 207.997 352.033C202.649 353.415 192.677 355.46 179.753 355.46C166.996 355.515 157.804 353.525 152.846 352.143Z" fill="url(#paint7_linear_1842_138442)"/>
<path d="M130.503 226.218C115.574 226.218 103.039 214.941 101.647 200.127L100.031 182.99H160.975L159.36 200.127C157.911 214.886 145.433 226.218 130.503 226.218Z" fill="#A342E2"/>
<path d="M129.333 199.131C109 199.131 92.1207 183.653 90.4495 163.587L89.3353 150.32C88.8339 144.074 93.2906 138.491 99.5855 137.551C106.827 136.501 117.078 135.395 128.665 135.395C140.586 135.395 151.449 136.556 159.081 137.606C165.376 138.491 169.833 144.074 169.331 150.376L168.273 163.532C166.602 183.653 149.666 199.131 129.333 199.131Z" fill="url(#paint8_linear_1842_138442)"/>
<path d="M37.5305 166.628C35.6364 165.19 19.147 152.145 13.9105 129.812C12.2392 122.681 16.7515 115.55 23.9378 113.892C31.1241 112.233 38.3104 116.711 39.9816 123.842C43.0455 137.053 53.7413 145.511 53.8527 145.622L53.797 145.566L37.5305 166.628Z" fill="url(#paint9_linear_1842_138442)"/>
<path d="M215.961 54.2457L199.75 55.4618L198.97 5.21342C198.914 2.50476 201.031 0.238315 203.761 0.0172C206.49 -0.203915 208.886 1.73084 209.276 4.4395L215.961 54.2457Z" fill="url(#paint10_linear_1842_138442)"/>
<path d="M44.1016 54.2457L60.3125 55.4618L61.0923 5.21342C61.1481 2.50476 59.0312 0.238315 56.3015 0.0172C53.5718 -0.203915 51.1764 1.73084 50.7865 4.4395L44.1016 54.2457Z" fill="url(#paint11_linear_1842_138442)"/>
<path d="M62.5967 99.1875C79.1798 99.1875 92.623 85.8477 92.623 69.3922C92.623 52.9367 79.1798 39.5969 62.5967 39.5969C46.0136 39.5969 32.5703 52.9367 32.5703 69.3922C32.5703 85.8477 46.0136 99.1875 62.5967 99.1875Z" fill="url(#paint12_linear_1842_138442)"/>
<path d="M198.636 99.1875C215.219 99.1875 228.662 85.8477 228.662 69.3922C228.662 52.9367 215.219 39.5969 198.636 39.5969C182.053 39.5969 168.609 52.9367 168.609 69.3922C168.609 85.8477 182.053 99.1875 198.636 99.1875Z" fill="url(#paint13_linear_1842_138442)"/>
<path d="M158.749 122.073H102.095C71.6784 122.073 47 97.5844 47 67.4022C47 37.22 71.6784 12.7314 102.095 12.7314H158.749C189.165 12.7314 213.844 37.22 213.844 67.4022C213.844 97.5844 189.165 122.073 158.749 122.073Z" fill="url(#paint14_linear_1842_138442)"/>
<path d="M157.633 107.811H103.207C80.7008 107.811 62.4844 89.7346 62.4844 67.402C62.4844 45.0694 80.7008 26.9932 103.207 26.9932H157.633C180.139 26.9932 198.355 45.0694 198.355 67.402C198.355 89.7346 180.139 107.811 157.633 107.811Z" fill="#030303"/>
<path d="M125.771 66.6834C125.771 79.6186 115.187 85.2571 102.151 85.2571C89.1157 85.2571 78.5312 79.6186 78.5312 66.6834C78.5312 53.7482 89.1157 43.2452 102.151 43.2452C115.187 43.1899 125.771 53.6929 125.771 66.6834Z" fill="white"/>
<path d="M104.378 81.7745H99.8653C97.8041 81.7745 96.1328 80.1161 96.1328 78.0708V55.2407C96.1328 53.1954 97.8041 51.537 99.8653 51.537H104.378C106.439 51.537 108.11 53.1954 108.11 55.2407V78.0708C108.11 80.1161 106.439 81.7745 104.378 81.7745Z" fill="#030303"/>
<path d="M184.873 66.6835C184.873 79.6188 174.288 85.2572 161.253 85.2572C148.217 85.2572 137.633 79.6188 137.633 66.6835C137.633 53.7483 148.217 43.2453 161.253 43.2453C174.288 43.1901 184.873 53.693 184.873 66.6835Z" fill="white"/>
<path d="M163.479 81.7745H158.967C156.906 81.7745 155.234 80.1161 155.234 78.0708V55.2407C155.234 53.1954 156.906 51.537 158.967 51.537H163.479C165.54 51.537 167.211 53.1954 167.211 55.2407V78.0708C167.267 80.1161 165.54 81.7745 163.479 81.7745Z" fill="#030303"/>
<path d="M21.2549 122.957C19.4166 122.957 17.6339 122.128 16.464 120.525L8.88783 109.912C6.99378 107.314 7.66227 103.665 10.2805 101.841C12.8988 100.017 16.5755 100.625 18.4138 103.223L25.99 113.836C27.8841 116.435 27.2156 120.083 24.5973 121.907C23.5946 122.57 22.4248 122.957 21.2549 122.957Z" fill="#C360EF"/>
<path d="M30.8423 123.179C28.5025 123.179 26.2742 121.741 25.3829 119.475L19.7565 104.992C18.5866 102.007 20.0907 98.6348 23.0989 97.474C26.1071 96.3131 29.5053 97.8057 30.6751 100.791L36.3015 115.274C37.4714 118.259 35.9673 121.631 32.9591 122.792C32.2349 123.013 31.5665 123.179 30.8423 123.179Z" fill="#C360EF"/>
<path d="M37.476 126.329C35.9719 126.329 34.4678 125.776 33.3536 124.616C31.0696 122.349 31.0696 118.701 33.3536 116.434L39.5928 110.243C41.8768 107.977 45.5536 107.977 47.8376 110.243C50.1216 112.509 50.1216 116.158 47.8376 118.424L41.5983 124.616C40.4841 125.776 38.9801 126.329 37.476 126.329Z" fill="#C360EF"/>
<path d="M168.271 238.656C163.202 238.656 158.356 235.781 156.072 230.917C155.793 230.309 155.514 229.645 155.347 228.982C153.453 223.675 152.061 217.484 154.846 211.79C156.573 208.253 159.525 205.655 163.258 204.438C172.115 201.509 177.909 191.116 179.357 187.357C179.302 187.523 179.246 187.689 179.134 187.91C179.134 187.855 179.19 187.744 179.246 187.689C181.418 181.774 187.268 178.181 193.507 178.955C199.691 179.729 204.537 184.649 205.15 190.784C205.54 194.599 204.37 197.197 202.42 201.122C200.86 204.217 199.022 207.258 196.961 210.132C192.56 216.268 187.323 221.298 181.586 224.892C181.864 230.917 177.965 235.726 173.341 237.661C171.67 238.324 169.943 238.656 168.271 238.656Z" fill="url(#paint15_linear_1842_138442)"/>
</g>
<defs>
<linearGradient id="paint0_linear_1842_138442" x1="203.148" y1="189.043" x2="153.494" y2="147.056" gradientUnits="userSpaceOnUse">
<stop offset="0.000475364" stop-color="#9DED76"/>
<stop offset="1" stop-color="#4BCF70"/>
</linearGradient>
<linearGradient id="paint1_linear_1842_138442" x1="118.504" y1="343.293" x2="118.504" y2="192.599" gradientUnits="userSpaceOnUse">
<stop offset="0.000475364" stop-color="#9DED76"/>
<stop offset="1" stop-color="#4BCF70"/>
</linearGradient>
<linearGradient id="paint2_linear_1842_138442" x1="118.502" y1="346.61" x2="118.502" y2="266.446" gradientUnits="userSpaceOnUse">
<stop stop-color="#CF87C1"/>
<stop offset="1" stop-color="#C054FD"/>
</linearGradient>
<linearGradient id="paint3_linear_1842_138442" x1="156.999" y1="343.295" x2="156.999" y2="202.931" gradientUnits="userSpaceOnUse">
<stop offset="0.000475364" stop-color="#9DED76"/>
<stop offset="1" stop-color="#4BCF70"/>
</linearGradient>
<linearGradient id="paint4_linear_1842_138442" x1="40.7027" y1="168.436" x2="101.985" y2="146.241" gradientUnits="userSpaceOnUse">
<stop offset="0.000475364" stop-color="#9DED76"/>
<stop offset="1" stop-color="#4BCF70"/>
</linearGradient>
<linearGradient id="paint5_linear_1842_138442" x1="164.598" y1="346.612" x2="164.598" y2="266.443" gradientUnits="userSpaceOnUse">
<stop stop-color="#CF87C1"/>
<stop offset="1" stop-color="#C054FD"/>
</linearGradient>
<linearGradient id="paint6_linear_1842_138442" x1="91.8392" y1="296.449" x2="105.531" y2="340.603" gradientUnits="userSpaceOnUse">
<stop stop-color="#FCEC6E"/>
<stop offset="1" stop-color="#C054FD"/>
</linearGradient>
<linearGradient id="paint7_linear_1842_138442" x1="198.26" y1="316.799" x2="183.644" y2="340.12" gradientUnits="userSpaceOnUse">
<stop stop-color="#FCEC6E"/>
<stop offset="1" stop-color="#C054FD"/>
</linearGradient>
<linearGradient id="paint8_linear_1842_138442" x1="129.343" y1="133.941" x2="129.343" y2="153.027" gradientUnits="userSpaceOnUse">
<stop stop-color="#FCEC6E"/>
<stop offset="1" stop-color="#C054FD"/>
</linearGradient>
<linearGradient id="paint9_linear_1842_138442" x1="23.5327" y1="161.374" x2="40.1814" y2="117.772" gradientUnits="userSpaceOnUse">
<stop stop-color="#CF87C1"/>
<stop offset="1" stop-color="#C054FD"/>
</linearGradient>
<linearGradient id="paint10_linear_1842_138442" x1="203.047" y1="-8.81062" x2="205.982" y2="30.8039" gradientUnits="userSpaceOnUse">
<stop offset="0.000475364" stop-color="#9DED76"/>
<stop offset="1" stop-color="#4BCF70"/>
</linearGradient>
<linearGradient id="paint11_linear_1842_138442" x1="57.1449" y1="-8.81856" x2="54.2093" y2="30.796" gradientUnits="userSpaceOnUse">
<stop offset="0.000475364" stop-color="#9DED76"/>
<stop offset="1" stop-color="#4BCF70"/>
</linearGradient>
<linearGradient id="paint12_linear_1842_138442" x1="62.6204" y1="17.9062" x2="62.6204" y2="79.9743" gradientUnits="userSpaceOnUse">
<stop offset="0.000475364" stop-color="#9DED76"/>
<stop offset="1" stop-color="#4BCF70"/>
</linearGradient>
<linearGradient id="paint13_linear_1842_138442" x1="198.612" y1="17.9062" x2="198.612" y2="79.9743" gradientUnits="userSpaceOnUse">
<stop offset="0.000475364" stop-color="#9DED76"/>
<stop offset="1" stop-color="#4BCF70"/>
</linearGradient>
<linearGradient id="paint14_linear_1842_138442" x1="130.424" y1="10.2543" x2="130.424" y2="43.0064" gradientUnits="userSpaceOnUse">
<stop stop-color="#FCEC6E"/>
<stop offset="0.9995" stop-color="#C054FD"/>
</linearGradient>
<linearGradient id="paint15_linear_1842_138442" x1="205.192" y1="208.789" x2="153.253" y2="208.789" gradientUnits="userSpaceOnUse">
<stop stop-color="#CF87C1"/>
<stop offset="1" stop-color="#C054FD"/>
</linearGradient>
<clipPath id="clip0_1842_138442">
<rect width="228.511" height="355.461" fill="white" transform="translate(0.148438)"/>
</clipPath>
</defs>
</svg>
