<svg width="338" height="356" viewBox="0 0 338 356" fill="none" xmlns="http://www.w3.org/2000/svg">
<g clip-path="url(#clip0_1822_138359)">
<path d="M260.865 202.421C260.534 202.421 260.203 202.421 259.817 202.366C255.295 201.814 252.041 197.675 252.648 193.15C253.475 186.528 244.816 168.317 228.05 164.233C223.583 163.185 220.881 158.66 221.928 154.245C222.976 149.775 227.499 147.071 231.911 148.12C257.005 154.19 270.848 180.458 269.028 195.192C268.531 199.331 264.947 202.421 260.865 202.421Z" fill="url(#paint0_linear_1822_138359)"/>
<path d="M236.88 243.92C231.861 243.92 227.063 241.05 224.801 236.194C224.526 235.587 224.25 234.924 224.084 234.262C222.209 228.965 220.831 222.784 223.588 217.1C225.298 213.568 228.221 210.975 231.916 209.76C240.685 206.836 246.421 196.461 247.855 192.709C247.8 192.874 247.744 193.04 247.634 193.26C247.634 193.205 247.689 193.095 247.744 193.04C249.895 187.135 255.686 183.548 261.863 184.32C267.985 185.093 272.783 190.004 273.39 196.13C273.776 199.938 272.618 202.531 270.687 206.449C269.143 209.54 267.323 212.575 265.283 215.444C260.926 221.57 255.741 226.592 250.061 230.179C250.337 236.194 246.476 240.995 241.898 242.926C240.244 243.588 238.534 243.92 236.88 243.92Z" fill="url(#paint1_linear_1822_138359)"/>
<path d="M183.701 343.319C178.241 343.319 173.773 338.849 173.773 333.386V202.82C173.773 197.357 178.241 192.887 183.701 192.887C189.161 192.887 193.628 197.357 193.628 202.82V333.386C193.628 338.849 189.161 343.319 183.701 343.319Z" fill="url(#paint2_linear_1822_138359)"/>
<path d="M183.705 346.63C176.37 346.63 170.469 340.726 170.469 333.386V279.857C170.469 272.518 176.37 266.613 183.705 266.613C191.04 266.613 196.941 272.518 196.941 279.857V333.386C196.941 340.671 190.985 346.63 183.705 346.63Z" fill="url(#paint3_linear_1822_138359)"/>
<path d="M235.441 343.319C230.918 343.319 226.837 340.174 225.789 335.593L198.544 215.347C197.331 209.994 200.695 204.696 206.045 203.482C211.395 202.268 216.689 205.634 217.903 210.987L245.147 331.234C246.361 336.587 242.997 341.884 237.647 343.099C236.875 343.209 236.158 343.319 235.441 343.319Z" fill="url(#paint4_linear_1822_138359)"/>
<path d="M235.437 346.631C229.37 346.631 223.965 342.492 222.531 336.311L210.343 282.782C208.743 275.664 213.156 268.545 220.325 266.944C227.44 265.344 234.554 269.759 236.154 276.933L248.342 330.462C249.941 337.58 245.529 344.699 238.36 346.299C237.367 346.52 236.374 346.631 235.437 346.631Z" fill="url(#paint5_linear_1822_138359)"/>
<path d="M119.186 195.646C115.987 195.646 112.899 193.77 111.575 190.624C109.81 186.43 111.741 181.574 115.932 179.753C133.415 172.303 143.397 162.811 154.924 151.885C156.799 150.119 158.73 148.243 160.715 146.422C164.079 143.331 169.319 143.497 172.407 146.863C175.496 150.229 175.33 155.472 171.966 158.562C170.036 160.328 168.16 162.149 166.285 163.915C154.648 174.952 142.625 186.43 122.385 195.039C121.392 195.425 120.289 195.646 119.186 195.646Z" fill="url(#paint6_linear_1822_138359)"/>
<path d="M145.541 352.149C142.949 351.431 141.295 348.838 141.681 346.134C143.887 330.903 157.013 319.149 172.896 319.149C188.725 319.149 201.796 330.792 204.112 346.023C204.498 348.727 202.788 351.321 200.141 352.038C194.847 353.418 184.975 355.46 172.179 355.46C159.55 355.515 150.45 353.528 145.541 352.149Z" fill="url(#paint7_linear_1822_138359)"/>
<path d="M217.674 352.149C215.082 351.431 213.428 348.838 213.814 346.134C216.02 330.903 229.146 319.149 245.029 319.149C260.858 319.149 273.929 330.792 276.245 346.023C276.631 348.727 274.921 351.321 272.274 352.038C266.979 353.418 257.107 355.46 244.312 355.46C231.738 355.515 222.638 353.528 217.674 352.149Z" fill="url(#paint8_linear_1822_138359)"/>
<path d="M195.558 226.439C180.778 226.439 168.369 215.181 166.99 200.392L165.391 183.285H225.726L224.127 200.392C222.748 215.126 210.339 226.439 195.558 226.439Z" fill="#A342E2"/>
<path d="M194.457 199.398C174.327 199.398 157.616 183.947 155.961 163.915L154.858 150.671C154.362 144.435 158.774 138.861 165.006 137.923C172.176 136.875 182.324 135.771 193.795 135.771C205.598 135.771 216.352 136.93 223.908 137.978C230.14 138.861 234.552 144.435 234.056 150.726L233.008 163.86C231.298 183.947 214.532 199.398 194.457 199.398Z" fill="url(#paint9_linear_1822_138359)"/>
<path d="M278.734 54.0431L262.685 55.4227L261.306 5.26013C261.251 2.5561 263.291 0.293538 265.994 0.0176164C268.696 -0.203121 271.068 1.67313 271.454 4.37716L278.734 54.0431Z" fill="url(#paint10_linear_1822_138359)"/>
<path d="M108.641 55.9746L124.69 56.9679L124.91 6.80535C124.91 4.10132 122.814 1.83877 120.112 1.67322C117.41 1.50766 115.038 3.4391 114.707 6.14313L108.641 55.9746Z" fill="url(#paint11_linear_1822_138359)"/>
<path d="M127.117 100.619C143.535 100.619 156.844 87.3017 156.844 70.8744C156.844 54.447 143.535 41.13 127.117 41.13C110.7 41.13 97.3906 54.447 97.3906 70.8744C97.3906 87.3017 110.7 100.619 127.117 100.619Z" fill="url(#paint12_linear_1822_138359)"/>
<path d="M261.742 99.0736C278.16 99.0736 291.469 85.7566 291.469 69.3292C291.469 52.9019 278.16 39.5848 261.742 39.5848C245.325 39.5848 232.016 52.9019 232.016 69.3292C232.016 85.7566 245.325 99.0736 261.742 99.0736Z" fill="url(#paint13_linear_1822_138359)"/>
<path d="M222.861 122.416L166.772 123.079C136.66 123.41 111.952 99.239 111.566 69.1083C111.235 38.9777 135.391 14.2551 165.504 13.8688L221.593 13.2066C251.705 12.8755 276.413 37.0462 276.799 67.1769C277.185 97.3075 253.029 122.03 222.861 122.416Z" fill="url(#paint14_linear_1822_138359)"/>
<path d="M221.589 108.179L167.706 108.786C145.425 109.062 127.17 91.1821 126.894 68.8876C126.618 46.5932 144.487 28.3272 166.768 28.0512L220.651 27.4442C242.932 27.1683 261.187 45.048 261.463 67.3425C261.739 89.637 243.87 107.903 221.589 108.179Z" fill="#030303"/>
<path d="M189.598 67.4527C189.764 80.3658 179.34 86.105 166.435 86.2705C153.529 86.4361 142.996 80.9176 142.83 68.0045C142.665 55.0914 153.033 44.496 165.939 44.3304C178.844 44.1649 189.433 54.5395 189.598 67.4527Z" fill="white"/>
<path d="M168.595 82.7941L164.128 82.8493C162.087 82.8493 160.377 81.249 160.377 79.152L160.102 56.3608C160.102 54.319 161.701 52.6083 163.797 52.6083L168.264 52.5531C170.305 52.5531 172.014 54.1535 172.014 56.2505L172.29 79.0416C172.29 81.0834 170.635 82.739 168.595 82.7941Z" fill="#030303"/>
<path d="M248.122 66.7907C248.287 79.7038 237.864 85.443 224.958 85.6086C212.053 85.7741 201.519 80.2557 201.354 67.3426C201.188 54.4294 211.556 43.834 224.462 43.6685C237.367 43.5029 247.956 53.8776 248.122 66.7907Z" fill="white"/>
<path d="M227.11 82.1317L222.643 82.187C220.603 82.187 218.893 80.5866 218.893 78.4896L218.617 55.6984C218.617 53.6566 220.217 51.9459 222.312 51.9459L226.78 51.8907C228.82 51.8907 230.53 53.4911 230.53 55.5881L230.806 78.3792C230.806 80.421 229.151 82.0765 227.11 82.1317Z" fill="#030303"/>
<path d="M115.373 319.756L68.7147 352.48C66.2881 354.191 63.0341 354.191 60.5523 352.48L13.8943 319.756C11.3573 317.99 9.75791 315.23 9.48215 312.195L0.051278 216.34C-0.555387 210.16 4.29793 204.807 10.53 204.807H118.737C124.969 204.807 129.822 210.16 129.216 216.34L119.785 312.195C119.509 315.23 117.91 317.99 115.373 319.756Z" fill="url(#paint15_linear_1822_138359)"/>
<path d="M107.702 311.147L67.1107 339.622C65.6216 340.671 63.6362 340.671 62.1471 339.622L21.5557 311.147C20.5078 310.429 19.846 309.271 19.7357 308.057L11.3527 220.313C11.1321 217.775 13.1176 215.623 15.6545 215.623H113.548C116.085 215.623 118.071 217.83 117.85 220.313L109.467 308.057C109.412 309.271 108.75 310.429 107.702 311.147Z" fill="url(#paint16_linear_1822_138359)"/>
<path d="M103.13 306.787L65.9575 332.834C65.1854 333.386 64.1927 333.386 63.4206 332.834L26.2485 306.787C25.697 306.401 25.3661 305.849 25.311 305.187L17.2037 223.404C17.0934 222.079 18.0861 220.976 19.4097 220.976H109.968C111.292 220.976 112.285 222.134 112.174 223.404L104.067 305.187C103.957 305.849 103.626 306.401 103.13 306.787Z" fill="url(#paint17_linear_1822_138359)"/>
<path d="M64.3572 291.998C63.0887 291.998 61.8202 291.501 60.8275 290.563L40.7524 270.476C38.8221 268.544 38.8221 265.399 40.7524 263.468C42.6827 261.536 45.8263 261.536 47.7566 263.468L64.3572 280.078L93.091 251.327C95.0213 249.396 98.165 249.396 100.095 251.327C102.026 253.258 102.026 256.404 100.095 258.335L67.8869 290.563C66.8941 291.501 65.6256 291.998 64.3572 291.998Z" fill="#BDFFC0"/>
<path d="M64.9106 213.691C60.2779 213.691 55.7555 211.263 53.3289 206.904C49.744 200.502 52.0604 192.445 58.458 188.913L66.0688 184.664C67.944 183.616 70.0949 183.009 72.2458 183.009C86.8609 182.733 102.965 179.256 115.374 173.627C122.047 170.592 129.879 173.572 132.912 180.25C135.946 186.927 132.967 194.763 126.294 197.798C111.789 204.365 93.2585 208.614 76.1615 209.442L71.3634 212.091C69.2676 213.139 67.0615 213.691 64.9106 213.691Z" fill="url(#paint18_linear_1822_138359)"/>
</g>
<defs>
<linearGradient id="paint0_linear_1822_138359" x1="271.405" y1="194.392" x2="221.906" y2="152.882" gradientUnits="userSpaceOnUse">
<stop offset="0.000475364" stop-color="#9DED76"/>
<stop offset="1" stop-color="#4BCF70"/>
</linearGradient>
<linearGradient id="paint1_linear_1822_138359" x1="273.431" y1="214.104" x2="222.011" y2="214.104" gradientUnits="userSpaceOnUse">
<stop stop-color="#CF87C1"/>
<stop offset="1" stop-color="#C054FD"/>
</linearGradient>
<linearGradient id="paint2_linear_1822_138359" x1="183.694" y1="343.313" x2="183.694" y2="192.877" gradientUnits="userSpaceOnUse">
<stop offset="0.000475364" stop-color="#9DED76"/>
<stop offset="1" stop-color="#4BCF70"/>
</linearGradient>
<linearGradient id="paint3_linear_1822_138359" x1="183.699" y1="346.625" x2="183.699" y2="266.598" gradientUnits="userSpaceOnUse">
<stop stop-color="#CF87C1"/>
<stop offset="1" stop-color="#C054FD"/>
</linearGradient>
<linearGradient id="paint4_linear_1822_138359" x1="221.81" y1="343.316" x2="221.81" y2="203.191" gradientUnits="userSpaceOnUse">
<stop offset="0.000475364" stop-color="#9DED76"/>
<stop offset="1" stop-color="#4BCF70"/>
</linearGradient>
<linearGradient id="paint5_linear_1822_138359" x1="229.341" y1="346.627" x2="229.341" y2="266.596" gradientUnits="userSpaceOnUse">
<stop stop-color="#CF87C1"/>
<stop offset="1" stop-color="#C054FD"/>
</linearGradient>
<linearGradient id="paint6_linear_1822_138359" x1="108.789" y1="184.174" x2="176.587" y2="155.531" gradientUnits="userSpaceOnUse">
<stop offset="0.000475364" stop-color="#9DED76"/>
<stop offset="1" stop-color="#4BCF70"/>
</linearGradient>
<linearGradient id="paint7_linear_1822_138359" x1="157.308" y1="296.55" x2="171.07" y2="340.564" gradientUnits="userSpaceOnUse">
<stop stop-color="#FCEC6E"/>
<stop offset="1" stop-color="#C054FD"/>
</linearGradient>
<linearGradient id="paint8_linear_1822_138359" x1="262.652" y1="316.865" x2="248.008" y2="340.037" gradientUnits="userSpaceOnUse">
<stop stop-color="#FCEC6E"/>
<stop offset="1" stop-color="#C054FD"/>
</linearGradient>
<linearGradient id="paint9_linear_1822_138359" x1="194.429" y1="134.319" x2="194.429" y2="153.373" gradientUnits="userSpaceOnUse">
<stop stop-color="#FCEC6E"/>
<stop offset="1" stop-color="#C054FD"/>
</linearGradient>
<linearGradient id="paint10_linear_1822_138359" x1="265.256" y1="-8.75835" x2="268.666" y2="30.749" gradientUnits="userSpaceOnUse">
<stop offset="0.000475364" stop-color="#9DED76"/>
<stop offset="1" stop-color="#4BCF70"/>
</linearGradient>
<linearGradient id="paint11_linear_1822_138359" x1="120.746" y1="-7.10159" x2="118.247" y2="32.4734" gradientUnits="userSpaceOnUse">
<stop offset="0.000475364" stop-color="#9DED76"/>
<stop offset="1" stop-color="#4BCF70"/>
</linearGradient>
<linearGradient id="paint12_linear_1822_138359" x1="126.49" y1="19.4886" x2="127.204" y2="81.4444" gradientUnits="userSpaceOnUse">
<stop offset="0.000475364" stop-color="#9DED76"/>
<stop offset="1" stop-color="#4BCF70"/>
</linearGradient>
<linearGradient id="paint13_linear_1822_138359" x1="261.11" y1="17.9377" x2="261.823" y2="79.8935" gradientUnits="userSpaceOnUse">
<stop offset="0.000475364" stop-color="#9DED76"/>
<stop offset="1" stop-color="#4BCF70"/>
</linearGradient>
<linearGradient id="paint14_linear_1822_138359" x1="193.522" y1="11.0772" x2="193.898" y2="43.77" gradientUnits="userSpaceOnUse">
<stop stop-color="#FCEC6E"/>
<stop offset="0.9995" stop-color="#C054FD"/>
</linearGradient>
<linearGradient id="paint15_linear_1822_138359" x1="0.0784124" y1="279.265" x2="129.287" y2="279.265" gradientUnits="userSpaceOnUse">
<stop offset="0.000475364" stop-color="#9DED76"/>
<stop offset="1" stop-color="#4BCF70"/>
</linearGradient>
<linearGradient id="paint16_linear_1822_138359" x1="154.905" y1="221.475" x2="4.77403" y2="295.348" gradientUnits="userSpaceOnUse">
<stop offset="0.000475364" stop-color="#9DED76"/>
<stop offset="1" stop-color="#4BCF70"/>
</linearGradient>
<linearGradient id="paint17_linear_1822_138359" x1="55.1712" y1="220.035" x2="84.477" y2="314.986" gradientUnits="userSpaceOnUse">
<stop offset="0.000475364" stop-color="#9DED76"/>
<stop offset="1" stop-color="#4BCF70"/>
</linearGradient>
<linearGradient id="paint18_linear_1822_138359" x1="106.023" y1="164.206" x2="79.6419" y2="221.687" gradientUnits="userSpaceOnUse">
<stop stop-color="#CF87C1"/>
<stop offset="1" stop-color="#C054FD"/>
</linearGradient>
<clipPath id="clip0_1822_138359">
<rect width="337.688" height="355.461" fill="white"/>
</clipPath>
</defs>
</svg>
