<svg width="339" height="357" viewBox="0 0 339 357" fill="none" xmlns="http://www.w3.org/2000/svg">
<g clip-path="url(#clip0_1822_137840)">
<path d="M260.272 173.116C247.962 173.116 234.051 168.911 223.894 158.341C220.747 155.021 220.858 149.764 224.115 146.609C227.427 143.455 232.671 143.566 235.818 146.831C247.741 159.282 267.89 157.622 273.19 153.527C276.833 150.76 282.022 151.424 284.782 155.076C287.542 158.728 286.88 163.93 283.237 166.697C278.158 170.681 269.657 173.116 260.272 173.116Z" fill="url(#paint0_linear_1822_137840)"/>
<path d="M286.932 167.417L270.813 146.333L270.758 146.388C270.868 146.277 281.467 137.81 284.503 124.585C286.159 117.446 293.28 112.963 300.401 114.624C307.523 116.284 311.994 123.422 310.338 130.561C305.149 152.918 288.754 165.978 286.932 167.417Z" fill="url(#paint1_linear_1822_137840)"/>
<path d="M183.929 344.278C178.464 344.278 173.992 339.796 173.992 334.317V203.386C173.992 197.908 178.464 193.426 183.929 193.426C189.394 193.426 193.865 197.908 193.865 203.386V334.317C193.865 339.796 189.394 344.278 183.929 344.278Z" fill="url(#paint2_linear_1822_137840)"/>
<path d="M183.92 347.599C176.579 347.599 170.672 341.677 170.672 334.317V280.639C170.672 273.279 176.579 267.358 183.92 267.358C191.262 267.358 197.169 273.279 197.169 280.639V334.317C197.169 341.622 191.207 347.599 183.92 347.599Z" fill="url(#paint3_linear_1822_137840)"/>
<path d="M235.702 344.278C231.175 344.278 227.09 341.124 226.041 336.531L198.771 215.948C197.557 210.58 200.924 205.268 206.279 204.05C211.633 202.833 216.933 206.209 218.147 211.576L245.417 332.159C246.632 337.527 243.264 342.839 237.91 344.057C237.137 344.167 236.419 344.278 235.702 344.278Z" fill="url(#paint4_linear_1822_137840)"/>
<path d="M235.702 347.599C229.63 347.599 224.22 343.448 222.785 337.25L210.585 283.572C208.985 276.433 213.401 269.295 220.577 267.69C227.698 266.085 234.819 270.512 236.42 277.706L248.62 331.384C250.221 338.523 245.804 345.662 238.628 347.267C237.635 347.488 236.641 347.599 235.702 347.599Z" fill="url(#paint5_linear_1822_137840)"/>
<path d="M119.334 196.192C116.133 196.192 113.041 194.311 111.716 191.157C109.95 186.951 111.882 182.081 116.077 180.255C133.576 172.784 143.568 163.266 155.105 152.309C156.982 150.538 158.914 148.657 160.902 146.831C164.269 143.732 169.513 143.898 172.605 147.273C175.696 150.649 175.53 155.906 172.163 159.005C170.231 160.776 168.354 162.602 166.477 164.373C154.829 175.441 142.795 186.951 122.536 195.584C121.542 195.971 120.438 196.192 119.334 196.192Z" fill="url(#paint6_linear_1822_137840)"/>
<path d="M145.725 353.132C143.13 352.413 141.474 349.812 141.86 347.101C144.069 331.827 157.207 320.04 173.105 320.04C188.948 320.04 202.031 331.716 204.35 346.99C204.736 349.701 203.025 352.302 200.375 353.022C195.076 354.405 185.194 356.453 172.387 356.453C159.746 356.508 150.638 354.516 145.725 353.132Z" fill="url(#paint7_linear_1822_137840)"/>
<path d="M217.928 353.132C215.333 352.413 213.677 349.812 214.064 347.101C216.272 331.827 229.41 320.04 245.308 320.04C261.151 320.04 274.234 331.716 276.553 346.99C276.939 349.701 275.228 352.302 272.578 353.022C267.279 354.405 257.397 356.453 244.59 356.453C232.004 356.508 222.896 354.516 217.928 353.132Z" fill="url(#paint8_linear_1822_137840)"/>
<path d="M195.789 227.071C180.995 227.071 168.575 215.782 167.195 200.952L165.594 183.797H225.985L224.384 200.952C223.004 215.727 210.584 227.071 195.789 227.071Z" fill="#A342E2"/>
<path d="M194.689 199.955C174.54 199.955 157.814 184.461 156.158 164.373L155.054 151.092C154.557 144.838 158.973 139.249 165.211 138.308C172.387 137.257 182.545 136.15 194.027 136.15C205.84 136.15 216.604 137.312 224.167 138.364C230.405 139.249 234.821 144.838 234.324 151.147L233.275 164.317C231.564 184.461 214.783 199.955 194.689 199.955Z" fill="url(#paint9_linear_1822_137840)"/>
<path d="M279.039 54.194L262.975 55.5775L261.595 5.27482C261.54 2.56324 263.582 0.294358 266.287 0.0176656C268.992 -0.203688 271.366 1.6778 271.752 4.38938L279.039 54.194Z" fill="url(#paint10_linear_1822_137840)"/>
<path d="M108.789 56.1309L124.853 57.127L125.074 6.82435C125.074 4.11277 122.976 1.8439 120.271 1.67788C117.566 1.51187 115.193 3.4487 114.861 6.16028L108.789 56.1309Z" fill="url(#paint11_linear_1822_137840)"/>
<path d="M127.285 100.9C143.718 100.9 157.039 87.5454 157.039 71.0722C157.039 54.599 143.718 41.2448 127.285 41.2448C110.853 41.2448 97.5312 54.599 97.5312 71.0722C97.5312 87.5454 110.853 100.9 127.285 100.9Z" fill="url(#paint12_linear_1822_137840)"/>
<path d="M262.035 99.3502C278.468 99.3502 291.789 85.996 291.789 69.5228C291.789 53.0495 278.468 39.6953 262.035 39.6953C245.603 39.6953 232.281 53.0495 232.281 69.5228C232.281 85.996 245.603 99.3502 262.035 99.3502Z" fill="url(#paint13_linear_1822_137840)"/>
<path d="M223.113 122.758L166.972 123.423C136.831 123.755 112.101 99.5163 111.714 69.3015C111.383 39.0867 135.562 14.295 165.702 13.9077L221.843 13.2436C251.983 12.9116 276.714 37.1498 277.101 67.3646C277.487 97.5794 253.308 122.371 223.113 122.758Z" fill="url(#paint14_linear_1822_137840)"/>
<path d="M221.848 108.481L167.915 109.09C145.614 109.366 127.342 91.4368 127.066 69.0801C126.79 46.7233 144.675 28.4063 166.977 28.1296L220.91 27.5209C243.211 27.2442 261.483 45.1739 261.759 67.5306C262.035 89.8873 244.15 108.204 221.848 108.481Z" fill="#030303"/>
<path d="M189.829 67.6411C189.995 80.5904 179.561 86.3455 166.644 86.5116C153.727 86.6776 143.183 81.1437 143.018 68.1945C142.852 55.2453 153.23 44.6204 166.147 44.4544C179.065 44.2883 189.664 54.6919 189.829 67.6411Z" fill="white"/>
<path d="M168.798 83.0255L164.327 83.0808C162.284 83.0808 160.573 81.476 160.573 79.3731L160.297 56.5183C160.297 54.4708 161.898 52.7553 163.995 52.7553L168.467 52.7C170.509 52.7 172.221 54.3048 172.221 56.4076L172.497 79.2624C172.497 81.3099 170.841 82.9701 168.798 83.0255Z" fill="#030303"/>
<path d="M248.4 66.9772C248.565 79.9264 238.132 85.6816 225.215 85.8476C212.297 86.0137 201.753 80.4798 201.588 67.5306C201.422 54.5814 211.8 43.9564 224.718 43.7904C237.635 43.6244 248.234 54.028 248.4 66.9772Z" fill="white"/>
<path d="M227.368 82.3611L222.897 82.4165C220.854 82.4165 219.143 80.8116 219.143 78.7088L218.867 55.854C218.867 53.8065 220.468 52.091 222.566 52.091L227.037 52.0356C229.08 52.0356 230.791 53.6404 230.791 55.7433L231.067 78.5981C231.067 80.6456 229.411 82.3058 227.368 82.3611Z" fill="#030303"/>
<path d="M321.542 207.26H262.586V117.833H338.048V190.714C338.048 199.845 330.65 207.26 321.542 207.26Z" fill="url(#paint15_linear_1822_137840)"/>
<path d="M303.483 199.845L300.502 192.596H292.719L303.207 176.935L313.972 184.24L303.483 199.845Z" fill="#C1C9A3"/>
<path d="M321.481 199.845L324.406 192.596H332.245L321.757 176.935L310.992 184.24L321.481 199.845Z" fill="#C1C9A3"/>
<path d="M312.486 150.428L317.73 155.685L325.182 155.076L325.845 162.492L331.917 166.753L327.667 172.895L329.599 180.089L322.367 182.026L319.221 188.777L312.486 185.623L305.751 188.777L302.605 182.026L295.428 180.089L297.36 172.895L293.055 166.753L299.182 162.492L299.789 155.076L307.242 155.685L312.486 150.428Z" fill="#ACB290"/>
<path d="M312.482 181.141C318.823 181.141 323.964 175.987 323.964 169.63C323.964 163.273 318.823 158.12 312.482 158.12C306.141 158.12 301 163.273 301 169.63C301 175.987 306.141 181.141 312.482 181.141Z" fill="#C1C9A3"/>
<path d="M304.595 188.058H248.344V190.714C248.344 199.845 255.741 207.26 264.849 207.26H323.805C313.206 207.26 304.595 198.683 304.595 188.058Z" fill="url(#paint16_linear_1822_137840)"/>
<path d="M285.382 129.952C282.18 129.952 279.586 127.351 279.586 124.142V116.339C279.586 113.129 282.18 110.529 285.382 110.529C288.584 110.529 291.178 113.129 291.178 116.339V124.142C291.178 127.351 288.584 129.952 285.382 129.952Z" fill="#C360EF"/>
<path d="M295.374 129.952C292.173 129.952 289.578 127.351 289.578 124.142V116.339C289.578 113.129 292.173 110.529 295.374 110.529C298.576 110.529 301.171 113.129 301.171 116.339V124.142C301.171 127.351 298.576 129.952 295.374 129.952Z" fill="#C360EF"/>
<path d="M305.312 129.952C302.11 129.952 299.516 127.351 299.516 124.142V116.339C299.516 113.129 302.11 110.529 305.312 110.529C308.514 110.529 311.108 113.129 311.108 116.339V124.142C311.108 127.351 308.514 129.952 305.312 129.952Z" fill="#C360EF"/>
<path d="M115.526 320.649L68.8251 353.464C66.3962 355.18 63.1392 355.18 60.6551 353.464L13.954 320.649C11.4147 318.878 9.8138 316.111 9.53779 313.067L0.0982004 216.944C-0.509025 210.747 4.34878 205.379 10.5866 205.379H118.894C125.131 205.379 129.989 210.747 129.382 216.944L119.942 313.067C119.666 316.111 118.066 318.878 115.526 320.649Z" fill="url(#paint17_linear_1822_137840)"/>
<path d="M107.854 312.016L67.2248 340.571C65.7343 341.622 63.747 341.622 62.2565 340.571L21.6276 312.016C20.5788 311.297 19.9163 310.134 19.8059 308.917L11.4152 220.929C11.1944 218.383 13.1817 216.225 15.721 216.225H113.705C116.244 216.225 118.232 218.439 118.011 220.929L109.62 308.917C109.565 310.134 108.903 311.297 107.854 312.016Z" fill="url(#paint18_linear_1822_137840)"/>
<path d="M103.271 307.644L66.0651 333.764C65.2922 334.317 64.2986 334.317 63.5258 333.764L26.3194 307.644C25.7674 307.257 25.4362 306.703 25.381 306.039L17.2662 224.028C17.1558 222.699 18.1494 221.593 19.4743 221.593H110.117C111.441 221.593 112.435 222.755 112.325 224.028L104.21 306.039C104.099 306.703 103.768 307.257 103.271 307.644Z" fill="url(#paint19_linear_1822_137840)"/>
<path d="M64.4662 292.813C63.1966 292.813 61.9269 292.315 60.9333 291.375L40.8397 271.231C38.9076 269.294 38.9076 266.14 40.8397 264.203C42.7718 262.267 45.9183 262.267 47.8504 264.203L64.4662 280.86L93.2267 252.029C95.1587 250.092 98.3053 250.092 100.237 252.029C102.169 253.966 102.169 257.12 100.237 259.057L67.9992 291.375C67.0056 292.315 65.7359 292.813 64.4662 292.813Z" fill="#BDFFC0"/>
<path d="M65.0167 214.288C60.3797 214.288 55.8531 211.853 53.4242 207.482C49.836 201.062 52.1545 192.983 58.558 189.441L66.1759 185.18C68.0528 184.129 70.2057 183.52 72.3586 183.52C86.9872 183.243 103.106 179.757 115.527 174.112C122.206 171.069 130.045 174.057 133.081 180.753C136.117 187.449 133.136 195.307 126.457 198.351C111.939 204.936 93.3907 209.197 76.278 210.027L71.4754 212.683C69.3777 213.735 67.1695 214.288 65.0167 214.288Z" fill="url(#paint20_linear_1822_137840)"/>
<path d="M309.668 142.902H289.078C287.698 142.902 286.594 141.795 286.594 140.411C286.594 139.028 287.698 137.921 289.078 137.921H309.668C311.048 137.921 312.152 139.028 312.152 140.411C312.152 141.795 311.048 142.902 309.668 142.902Z" fill="#C1C9A3"/>
<path d="M292.832 155.519H272.242C270.862 155.519 269.758 154.412 269.758 153.028C269.758 151.645 270.862 150.538 272.242 150.538H292.832C294.212 150.538 295.317 151.645 295.317 153.028C295.317 154.412 294.212 155.519 292.832 155.519Z" fill="#C1C9A3"/>
<path d="M287.699 165.867H272.242C270.862 165.867 269.758 164.76 269.758 163.377C269.758 161.993 270.862 160.887 272.242 160.887H287.699C289.079 160.887 290.183 161.993 290.183 163.377C290.183 164.76 289.079 165.867 287.699 165.867Z" fill="#C1C9A3"/>
<path d="M282.13 176.16H272.304C270.924 176.16 269.82 175.053 269.82 173.67C269.82 172.286 270.924 171.18 272.304 171.18H282.13C283.51 171.18 284.614 172.286 284.614 173.67C284.614 175.053 283.455 176.16 282.13 176.16Z" fill="#C1C9A3"/>
</g>
<defs>
<linearGradient id="paint0_linear_1822_137840" x1="283.781" y1="169.215" x2="222.912" y2="147.393" gradientUnits="userSpaceOnUse">
<stop offset="0.000475364" stop-color="#9DED76"/>
<stop offset="1" stop-color="#4BCF70"/>
</linearGradient>
<linearGradient id="paint1_linear_1822_137840" x1="300.8" y1="162.151" x2="284.006" y2="118.616" gradientUnits="userSpaceOnUse">
<stop stop-color="#CF87C1"/>
<stop offset="1" stop-color="#C054FD"/>
</linearGradient>
<linearGradient id="paint2_linear_1822_137840" x1="183.922" y1="344.272" x2="183.922" y2="193.415" gradientUnits="userSpaceOnUse">
<stop offset="0.000475364" stop-color="#9DED76"/>
<stop offset="1" stop-color="#4BCF70"/>
</linearGradient>
<linearGradient id="paint3_linear_1822_137840" x1="183.914" y1="347.593" x2="183.914" y2="267.343" gradientUnits="userSpaceOnUse">
<stop stop-color="#CF87C1"/>
<stop offset="1" stop-color="#C054FD"/>
</linearGradient>
<linearGradient id="paint4_linear_1822_137840" x1="222.058" y1="344.274" x2="222.058" y2="203.759" gradientUnits="userSpaceOnUse">
<stop offset="0.000475364" stop-color="#9DED76"/>
<stop offset="1" stop-color="#4BCF70"/>
</linearGradient>
<linearGradient id="paint5_linear_1822_137840" x1="229.601" y1="347.595" x2="229.601" y2="267.34" gradientUnits="userSpaceOnUse">
<stop stop-color="#CF87C1"/>
<stop offset="1" stop-color="#C054FD"/>
</linearGradient>
<linearGradient id="paint6_linear_1822_137840" x1="108.927" y1="184.688" x2="176.827" y2="156.057" gradientUnits="userSpaceOnUse">
<stop offset="0.000475364" stop-color="#9DED76"/>
<stop offset="1" stop-color="#4BCF70"/>
</linearGradient>
<linearGradient id="paint7_linear_1822_137840" x1="157.502" y1="297.378" x2="171.324" y2="341.5" gradientUnits="userSpaceOnUse">
<stop stop-color="#FCEC6E"/>
<stop offset="1" stop-color="#C054FD"/>
</linearGradient>
<linearGradient id="paint8_linear_1822_137840" x1="262.947" y1="317.75" x2="248.251" y2="340.962" gradientUnits="userSpaceOnUse">
<stop stop-color="#FCEC6E"/>
<stop offset="1" stop-color="#C054FD"/>
</linearGradient>
<linearGradient id="paint9_linear_1822_137840" x1="194.661" y1="134.694" x2="194.661" y2="153.801" gradientUnits="userSpaceOnUse">
<stop stop-color="#FCEC6E"/>
<stop offset="1" stop-color="#C054FD"/>
</linearGradient>
<linearGradient id="paint10_linear_1822_137840" x1="265.549" y1="-8.78281" x2="268.974" y2="30.8338" gradientUnits="userSpaceOnUse">
<stop offset="0.000475364" stop-color="#9DED76"/>
<stop offset="1" stop-color="#4BCF70"/>
</linearGradient>
<linearGradient id="paint11_linear_1822_137840" x1="120.905" y1="-7.12144" x2="118.395" y2="32.5635" gradientUnits="userSpaceOnUse">
<stop offset="0.000475364" stop-color="#9DED76"/>
<stop offset="1" stop-color="#4BCF70"/>
</linearGradient>
<linearGradient id="paint12_linear_1822_137840" x1="126.657" y1="19.5429" x2="127.375" y2="81.6717" gradientUnits="userSpaceOnUse">
<stop offset="0.000475364" stop-color="#9DED76"/>
<stop offset="1" stop-color="#4BCF70"/>
</linearGradient>
<linearGradient id="paint13_linear_1822_137840" x1="261.402" y1="17.9877" x2="262.119" y2="80.1166" gradientUnits="userSpaceOnUse">
<stop offset="0.000475364" stop-color="#9DED76"/>
<stop offset="1" stop-color="#4BCF70"/>
</linearGradient>
<linearGradient id="paint14_linear_1822_137840" x1="193.746" y1="11.1083" x2="194.124" y2="43.8923" gradientUnits="userSpaceOnUse">
<stop stop-color="#FCEC6E"/>
<stop offset="0.9995" stop-color="#C054FD"/>
</linearGradient>
<linearGradient id="paint15_linear_1822_137840" x1="300.341" y1="141.326" x2="300.341" y2="183.056" gradientUnits="userSpaceOnUse">
<stop offset="0.000475364" stop-color="#E8EDDA"/>
<stop offset="1" stop-color="#D6DEB6"/>
</linearGradient>
<linearGradient id="paint16_linear_1822_137840" x1="286.061" y1="192.889" x2="286.061" y2="204.489" gradientUnits="userSpaceOnUse">
<stop offset="0.000475364" stop-color="#E8EDDA"/>
<stop offset="1" stop-color="#D6DEB6"/>
</linearGradient>
<linearGradient id="paint17_linear_1822_137840" x1="0.12536" y1="280.045" x2="129.454" y2="280.045" gradientUnits="userSpaceOnUse">
<stop offset="0.000475364" stop-color="#9DED76"/>
<stop offset="1" stop-color="#4BCF70"/>
</linearGradient>
<linearGradient id="paint18_linear_1822_137840" x1="155.1" y1="222.093" x2="4.72131" y2="295.951" gradientUnits="userSpaceOnUse">
<stop offset="0.000475364" stop-color="#9DED76"/>
<stop offset="1" stop-color="#4BCF70"/>
</linearGradient>
<linearGradient id="paint19_linear_1822_137840" x1="55.2688" y1="220.65" x2="84.7018" y2="315.835" gradientUnits="userSpaceOnUse">
<stop offset="0.000475364" stop-color="#9DED76"/>
<stop offset="1" stop-color="#4BCF70"/>
</linearGradient>
<linearGradient id="paint20_linear_1822_137840" x1="106.167" y1="164.665" x2="79.6801" y2="222.269" gradientUnits="userSpaceOnUse">
<stop stop-color="#CF87C1"/>
<stop offset="1" stop-color="#C054FD"/>
</linearGradient>
<clipPath id="clip0_1822_137840">
<rect width="338" height="356.454" fill="white" transform="translate(0.046875)"/>
</clipPath>
</defs>
</svg>
