<svg width="329" height="392" viewBox="0 0 329 392" fill="none" xmlns="http://www.w3.org/2000/svg">
<g clip-path="url(#clip0_1810_87216)">
<path d="M181.158 381.271C182.53 381.271 183.902 381.009 185.169 380.381C189.919 378.183 191.978 372.583 189.708 367.873L141.888 266.816C139.671 262.106 134.024 260.065 129.273 262.316C124.523 264.514 122.464 270.113 124.734 274.823L172.554 375.88C174.138 379.282 177.568 381.271 181.158 381.271Z" fill="url(#paint0_linear_1810_87216)"/>
<path d="M184.862 386.818C186.762 386.818 188.715 386.399 190.563 385.457C196.791 382.317 199.324 374.781 196.157 368.606L173.092 323.285C169.925 317.109 162.324 314.597 156.096 317.737C149.868 320.877 147.334 328.413 150.501 334.589L173.567 379.91C175.784 384.254 180.217 386.818 184.862 386.818Z" fill="url(#paint1_linear_1810_87216)"/>
<path d="M64.3608 343.852C83.7845 343.852 98.5633 338.566 108.434 328.047C120.257 315.487 124.162 295.652 119.412 272.259C118.356 267.183 113.342 263.886 108.222 264.88C103.103 265.927 99.7245 270.898 100.78 275.975C102.839 285.97 104.739 304.392 94.5519 315.225C86.4763 323.808 71.6975 326.791 50.5848 324.122C45.3594 323.442 40.609 327.105 39.9229 332.286C39.2367 337.467 42.9314 342.177 48.1568 342.857C53.91 343.485 59.2938 343.852 64.3608 343.852Z" fill="url(#paint2_linear_1810_87216)"/>
<path d="M69.1605 348.091C83.5699 348.091 96.9765 342.439 105.474 334.327C110.541 329.512 110.7 321.558 105.844 316.586C100.988 311.562 92.9651 311.405 87.9508 316.22C82.6727 321.191 69.4772 326.634 56.3874 319.935C50.1591 316.743 42.5058 319.15 39.3389 325.326C36.1192 331.501 38.5472 339.09 44.7754 342.23C52.7982 346.312 61.1377 348.091 69.1605 348.091Z" fill="url(#paint3_linear_1810_87216)"/>
<path d="M203.959 249.86C205.226 249.86 206.44 249.86 207.707 249.808C212.087 249.651 215.465 245.988 215.307 241.644C215.149 237.3 211.454 233.951 207.073 234.108C185.644 234.945 168.015 227.409 153.078 211.081C150.122 207.888 145.108 207.627 141.888 210.557C138.668 213.488 138.404 218.46 141.36 221.652C158.514 240.335 179.574 249.86 203.959 249.86Z" fill="url(#paint4_linear_1810_87216)"/>
<path d="M226.45 368.658C228.35 366.931 228.667 364.053 227.189 361.907C218.691 349.923 202.434 345.631 188.87 352.435C175.357 359.186 169.182 374.676 173.774 388.493C174.618 390.952 177.205 392.418 179.791 391.894C184.911 390.795 194.201 388.283 205.179 382.841C215.894 377.502 222.861 371.955 226.45 368.658Z" fill="url(#paint5_linear_1810_87216)"/>
<path d="M12.7391 345.003C11.2084 347.097 11.4723 349.975 13.3197 351.754C23.9816 361.855 40.7662 362.954 52.7476 353.691C64.6763 344.428 67.6848 328.099 60.4537 315.382C59.1342 313.08 56.3368 312.19 53.9088 313.237C49.1057 315.278 40.4495 319.569 30.7904 327C21.3425 334.275 15.6421 341.078 12.7391 345.003Z" fill="url(#paint6_linear_1810_87216)"/>
<path d="M126.223 285.604C140.21 283.249 150.08 270.741 149.024 256.716L147.81 240.492L90.8589 250.122L95.1342 265.822C98.7761 279.377 112.235 287.959 126.223 285.604Z" fill="#A342E2"/>
<path d="M122.945 260.118C141.947 256.925 155.248 239.812 153.559 220.815L152.45 208.255C151.922 202.341 146.855 197.84 140.838 197.945C133.924 198.102 124.159 198.73 113.339 200.509C102.202 202.393 92.2263 205.167 85.2592 207.365C79.5587 209.197 76.2335 215.11 77.7114 220.92L80.8255 233.061C85.6814 251.535 103.944 263.31 122.945 260.118Z" fill="url(#paint7_linear_1810_87216)"/>
<path d="M222.173 258.443C231.673 258.443 239.907 256.873 246.663 253.838C252.997 250.959 255.795 243.475 252.892 237.195C249.989 230.915 242.441 228.142 236.107 231.02C228.77 234.369 215.206 234.108 199.846 230.34C193.037 228.665 186.176 232.747 184.487 239.498C182.798 246.249 186.915 253.053 193.723 254.727C199.899 256.245 209.294 258.129 219.217 258.443C220.167 258.391 221.17 258.443 222.173 258.443Z" fill="url(#paint8_linear_1810_87216)"/>
<path d="M9.35546 143.57L24.6094 141.476L15.2142 94.7946C14.6864 92.2826 12.3112 90.6079 9.7777 90.9219C7.1914 91.2883 5.39684 93.5386 5.60797 96.103L9.35546 143.57Z" fill="url(#paint9_linear_1810_87216)"/>
<path d="M170.234 109.134L155.455 113.478L144.582 67.1101C144.002 64.598 145.48 62.086 147.96 61.3533C150.441 60.6207 153.08 61.929 153.925 64.3364L170.234 109.134Z" fill="url(#paint10_linear_1810_87216)"/>
<path d="M156.144 155.031C140.432 155.031 127.695 142.402 127.695 126.823C127.695 111.244 140.432 98.6152 156.144 98.6152C171.857 98.6152 184.594 111.244 184.594 126.823C184.594 142.402 171.857 155.031 156.144 155.031Z" fill="url(#paint11_linear_1810_87216)"/>
<path d="M81.2501 193.863L133.715 182.663C161.9 176.645 179.846 149.065 173.724 121.119C167.654 93.1724 139.838 75.3789 111.652 81.4496L59.1873 92.6491C31.0019 98.6675 13.0561 126.247 19.1788 154.194C25.2487 182.14 53.0646 199.934 81.2501 193.863Z" fill="url(#paint12_linear_1810_87216)"/>
<path d="M86.5788 178.948L136.985 168.167C157.834 163.718 171.082 143.361 166.596 122.689C162.109 102.017 141.577 88.881 120.729 93.3294L70.322 104.11C49.4732 108.559 36.2251 128.916 40.7115 149.588C45.1979 170.26 65.73 183.396 86.5788 178.948Z" fill="#030303"/>
<path d="M112.176 129.335C114.762 141.32 125.688 144.407 137.775 141.843C149.862 139.279 158.518 131.952 155.932 119.967C153.345 107.983 141.417 100.394 129.33 102.959C117.243 105.576 109.589 117.351 112.176 129.335Z" fill="white"/>
<path d="M139.785 127.242L143.955 126.352C145.855 125.933 147.069 124.049 146.699 122.165L142.107 101.075C141.685 99.1908 139.785 97.9871 137.885 98.3534L133.715 99.2431C131.815 99.6618 130.601 101.546 130.971 103.43L135.563 124.52C135.932 126.404 137.832 127.608 139.785 127.242Z" fill="#030303"/>
<path d="M57.4414 141.058C60.0277 153.042 70.9535 156.13 83.0405 153.566C95.1275 151.001 103.784 143.675 101.197 131.69C98.6111 119.706 86.6824 112.117 74.5954 114.682C62.5084 117.246 54.8551 129.073 57.4414 141.058Z" fill="white"/>
<path d="M84.996 138.912L89.1658 138.022C91.0659 137.604 92.2799 135.72 91.9104 133.836L87.3184 112.745C86.8961 110.861 84.996 109.658 83.0959 110.024L78.9261 110.914C77.026 111.332 75.812 113.216 76.1815 115.1L80.7735 136.191C81.1957 138.127 83.0958 139.331 84.996 138.912Z" fill="#030303"/>
<path d="M206.907 78.5576L293.273 69.2026L301.585 144.639L215.219 153.994L206.907 78.5576Z" fill="#CC9758"/>
<path d="M189.503 80.4724L263.906 72.4132L272.218 147.85L197.815 155.909L189.503 80.4724Z" fill="#EAB063"/>
<path d="M218.93 77.2438L234.516 75.5698L237.563 103.458L221.977 105.132L218.93 77.2438Z" fill="#FFC673"/>
<path d="M274.009 71.3055L285.133 70.1006L288.205 97.9861L277.082 99.191L274.009 71.3055Z" fill="#EAB063"/>
<path d="M195.639 154.912L318.633 143.235L329.001 250.599L206.007 262.276L195.639 154.912Z" fill="#EAB063"/>
<path d="M170.842 157.244L276.812 147.183L287.181 254.548L181.21 264.608L170.842 157.244Z" fill="#FFC673"/>
<path d="M212.714 153.272L234.938 151.162L238.776 190.909L216.552 193.019L212.714 153.272Z" fill="#FFDCAE"/>
<path d="M291.18 145.85L307.047 144.344L310.885 184.091L295.018 185.597L291.18 145.85Z" fill="#FFC673"/>
<path d="M161.286 20.4191L213.531 0L239.68 65.7751L187.435 86.1942L161.286 20.4191Z" fill="#EAB063"/>
<path d="M150.707 24.513L195.734 6.91504L221.883 72.6901L176.856 90.2881L150.707 24.513Z" fill="#FFC673"/>
<path d="M168.541 17.5636L177.969 13.8789L187.646 38.222L178.219 41.9067L168.541 17.5636Z" fill="#FFDCAE"/>
<path d="M201.898 4.5199L208.625 1.89075L218.303 26.2339L211.575 28.863L201.898 4.5199Z" fill="#FFC673"/>
<path d="M0.649387 160.055C3.97463 175.284 19.0702 184.966 34.4297 181.669C40.3412 180.413 37.0687 167.801 33.7963 152.572C30.471 137.342 27.093 125.515 22.4482 126.509C7.08874 129.859 -2.67586 144.826 0.649387 160.055Z" fill="url(#paint13_linear_1810_87216)"/>
<path d="M153.129 266.816C156.613 266.816 159.78 264.514 160.73 261.06C161.891 256.873 159.41 252.581 155.188 251.378C134.55 245.726 120.035 233.218 110.798 213.174C109.004 209.249 104.306 207.47 100.295 209.301C96.3361 211.081 94.5415 215.738 96.3889 219.716C107.526 243.894 125.894 259.699 150.965 266.555C151.704 266.712 152.39 266.816 153.129 266.816Z" fill="url(#paint14_linear_1810_87216)"/>
<path d="M195.729 278.749C200.585 278.749 205.23 275.975 207.341 271.265C210.139 264.932 207.236 257.501 200.849 254.727L194.779 252.058C192.721 251.169 190.398 250.802 188.129 251.064C172.611 252.948 156.249 249.756 149.387 245.569C143.423 241.905 135.611 243.737 131.969 249.651C128.274 255.565 130.122 263.31 136.086 266.921C151.498 276.394 174.247 277.388 187.601 276.341L190.662 277.65C192.299 278.382 194.04 278.749 195.729 278.749Z" fill="url(#paint15_linear_1810_87216)"/>
</g>
<defs>
<linearGradient id="paint0_linear_1810_87216" x1="186.925" y1="379.547" x2="128.426" y2="262.752" gradientUnits="userSpaceOnUse">
<stop offset="0.000475364" stop-color="#9DED76"/>
<stop offset="1" stop-color="#4BCF70"/>
</linearGradient>
<linearGradient id="paint1_linear_1810_87216" x1="190.627" y1="385.478" x2="156.581" y2="317.503" gradientUnits="userSpaceOnUse">
<stop stop-color="#CF87C1"/>
<stop offset="1" stop-color="#C054FD"/>
</linearGradient>
<linearGradient id="paint2_linear_1810_87216" x1="80.642" y1="343.856" x2="80.642" y2="264.67" gradientUnits="userSpaceOnUse">
<stop offset="0.000475364" stop-color="#9DED76"/>
<stop offset="1" stop-color="#4BCF70"/>
</linearGradient>
<linearGradient id="paint3_linear_1810_87216" x1="43.5361" y1="344.661" x2="104.204" y2="312.338" gradientUnits="userSpaceOnUse">
<stop stop-color="#CF87C1"/>
<stop offset="1" stop-color="#C054FD"/>
</linearGradient>
<linearGradient id="paint4_linear_1810_87216" x1="211.994" y1="250.125" x2="140.516" y2="212.103" gradientUnits="userSpaceOnUse">
<stop offset="0.000475364" stop-color="#9DED76"/>
<stop offset="1" stop-color="#4BCF70"/>
</linearGradient>
<linearGradient id="paint5_linear_1810_87216" x1="192.476" y1="326.669" x2="199.597" y2="369.832" gradientUnits="userSpaceOnUse">
<stop stop-color="#FCEC6E"/>
<stop offset="1" stop-color="#C054FD"/>
</linearGradient>
<linearGradient id="paint6_linear_1810_87216" x1="18.0933" y1="303.95" x2="49.8918" y2="355.026" gradientUnits="userSpaceOnUse">
<stop stop-color="#FCEC6E"/>
<stop offset="1" stop-color="#C054FD"/>
</linearGradient>
<linearGradient id="paint7_linear_1810_87216" x1="112.492" y1="199.266" x2="115.498" y2="217.087" gradientUnits="userSpaceOnUse">
<stop stop-color="#FCEC6E"/>
<stop offset="1" stop-color="#C054FD"/>
</linearGradient>
<linearGradient id="paint8_linear_1810_87216" x1="197.811" y1="222.864" x2="239.92" y2="262.362" gradientUnits="userSpaceOnUse">
<stop stop-color="#CF87C1"/>
<stop offset="1" stop-color="#C054FD"/>
</linearGradient>
<linearGradient id="paint9_linear_1810_87216" x1="8.62477" y1="82.6688" x2="13.7534" y2="119.93" gradientUnits="userSpaceOnUse">
<stop offset="0.000475364" stop-color="#9DED76"/>
<stop offset="1" stop-color="#4BCF70"/>
</linearGradient>
<linearGradient id="paint10_linear_1810_87216" x1="145.633" y1="53.1025" x2="156.203" y2="89.2196" gradientUnits="userSpaceOnUse">
<stop offset="0.000475364" stop-color="#9DED76"/>
<stop offset="1" stop-color="#4BCF70"/>
</linearGradient>
<linearGradient id="paint11_linear_1810_87216" x1="145.768" y1="79.1544" x2="158.059" y2="136.637" gradientUnits="userSpaceOnUse">
<stop offset="0.000475364" stop-color="#9DED76"/>
<stop offset="1" stop-color="#4BCF70"/>
</linearGradient>
<linearGradient id="paint12_linear_1810_87216" x1="84.9318" y1="84.7526" x2="91.4176" y2="115.085" gradientUnits="userSpaceOnUse">
<stop stop-color="#FCEC6E"/>
<stop offset="0.9995" stop-color="#C054FD"/>
</linearGradient>
<linearGradient id="paint13_linear_1810_87216" x1="6.8877" y1="108.85" x2="19.1788" y2="166.333" gradientUnits="userSpaceOnUse">
<stop offset="0.000475364" stop-color="#9DED76"/>
<stop offset="1" stop-color="#4BCF70"/>
</linearGradient>
<linearGradient id="paint14_linear_1810_87216" x1="154.918" y1="268.212" x2="98.582" y2="210.338" gradientUnits="userSpaceOnUse">
<stop offset="0.000475364" stop-color="#9DED76"/>
<stop offset="1" stop-color="#4BCF70"/>
</linearGradient>
<linearGradient id="paint15_linear_1810_87216" x1="154.57" y1="235.194" x2="183.636" y2="287.306" gradientUnits="userSpaceOnUse">
<stop stop-color="#CF87C1"/>
<stop offset="1" stop-color="#C054FD"/>
</linearGradient>
<clipPath id="clip0_1810_87216">
<rect width="329" height="392" fill="white" transform="matrix(-1 0 0 1 329 0)"/>
</clipPath>
</defs>
</svg>
