<svg width="265" height="355" viewBox="0 0 265 355" fill="none" xmlns="http://www.w3.org/2000/svg">
<g clip-path="url(#clip0_1822_138021)">
<path d="M187.904 172.446C175.723 172.446 161.959 168.257 151.909 157.728C148.796 154.42 148.905 149.184 152.127 146.041C155.405 142.899 160.594 143.01 163.707 146.262C175.505 158.665 195.441 157.011 200.685 152.932C204.29 150.176 209.424 150.837 212.155 154.475C214.886 158.114 214.231 163.295 210.626 166.052C205.601 170.02 197.189 172.446 187.904 172.446Z" fill="url(#paint0_linear_1822_138021)"/>
<path d="M214.285 166.768L198.336 145.766L198.281 145.821C198.39 145.711 208.878 137.277 211.882 124.102C213.52 116.991 220.566 112.526 227.612 114.18C234.658 115.834 239.083 122.945 237.444 130.056C232.31 152.326 216.087 165.335 214.285 166.768Z" fill="url(#paint1_linear_1822_138021)"/>
<path d="M112.363 342.945C106.955 342.945 102.531 338.48 102.531 333.023V202.599C102.531 197.142 106.955 192.677 112.363 192.677C117.77 192.677 122.195 197.142 122.195 202.599V333.023C122.195 338.48 117.77 342.945 112.363 342.945Z" fill="url(#paint2_linear_1822_138021)"/>
<path d="M112.367 346.253C105.102 346.253 99.2578 340.354 99.2578 333.023V279.552C99.2578 272.221 105.102 266.323 112.367 266.323C119.631 266.323 125.476 272.221 125.476 279.552V333.023C125.476 340.299 119.577 346.253 112.367 346.253Z" fill="url(#paint3_linear_1822_138021)"/>
<path d="M163.599 342.945C159.12 342.945 155.078 339.803 154.04 335.228L127.058 215.112C125.856 209.765 129.188 204.473 134.486 203.26C139.784 202.048 145.028 205.41 146.229 210.757L173.212 330.873C174.413 336.22 171.082 341.512 165.784 342.725C165.019 342.835 164.309 342.945 163.599 342.945Z" fill="url(#paint4_linear_1822_138021)"/>
<path d="M163.606 346.253C157.598 346.253 152.245 342.119 150.825 335.945L138.754 282.474C137.17 275.363 141.539 268.252 148.64 266.654C155.686 265.055 162.732 269.465 164.316 276.631L176.387 330.101C177.971 337.213 173.602 344.324 166.501 345.922C165.518 346.143 164.535 346.253 163.606 346.253Z" fill="url(#paint5_linear_1822_138021)"/>
<path d="M74.5661 351.765C71.999 351.049 70.3604 348.458 70.7427 345.757C72.9275 330.542 85.9271 318.801 101.658 318.801C117.334 318.801 130.279 330.432 132.573 345.646C132.955 348.348 131.262 350.938 128.64 351.655C123.397 353.033 113.62 355.073 100.948 355.073C88.4396 355.128 79.4273 353.143 74.5661 351.765Z" fill="url(#paint6_linear_1822_138021)"/>
<path d="M146.011 351.765C143.444 351.049 141.806 348.458 142.188 345.757C144.373 330.542 157.372 318.801 173.103 318.801C188.779 318.801 201.724 330.432 204.018 345.646C204.4 348.348 202.707 350.938 200.085 351.655C194.842 353.033 185.065 355.073 172.393 355.073C159.939 355.128 150.927 353.143 146.011 351.765Z" fill="url(#paint7_linear_1822_138021)"/>
<path d="M124.112 226.192C109.473 226.192 97.1838 214.947 95.8183 200.174L94.2344 183.085H153.989L152.405 200.174C151.039 214.892 138.75 226.192 124.112 226.192Z" fill="#A342E2"/>
<path d="M123.013 199.181C103.076 199.181 86.5265 183.746 84.8879 163.736L83.7955 150.507C83.3039 144.278 87.6735 138.71 93.8456 137.773C100.946 136.726 110.996 135.623 122.357 135.623C134.046 135.623 144.697 136.781 152.18 137.828C158.352 138.71 162.722 144.278 162.23 150.562L161.192 163.681C159.499 183.747 142.895 199.181 123.013 199.181Z" fill="url(#paint8_linear_1822_138021)"/>
<path d="M206.48 53.9842L190.585 55.3623L189.22 5.2544C189.165 2.55331 191.186 0.293218 193.863 0.0175972C196.539 -0.2029 198.888 1.6713 199.27 4.37239L206.48 53.9842Z" fill="url(#paint9_linear_1822_138021)"/>
<path d="M38.0312 55.9136L53.9257 56.9058L54.1442 6.79792C54.1442 4.09683 52.0686 1.83675 49.3922 1.67137C46.7158 1.506 44.3672 3.43534 44.0395 6.13642L38.0312 55.9136Z" fill="url(#paint10_linear_1822_138021)"/>
<path d="M56.3309 100.509C72.5903 100.509 85.7712 87.2066 85.7712 70.7972C85.7712 54.3877 72.5903 41.0852 56.3309 41.0852C40.0715 41.0852 26.8906 54.3877 26.8906 70.7972C26.8906 87.2066 40.0715 100.509 56.3309 100.509Z" fill="url(#paint11_linear_1822_138021)"/>
<path d="M189.659 98.9656C205.918 98.9656 219.099 85.6631 219.099 69.2536C219.099 52.8441 205.918 39.5416 189.659 39.5416C173.4 39.5416 160.219 52.8441 160.219 69.2536C160.219 85.6631 173.4 98.9656 189.659 98.9656Z" fill="url(#paint12_linear_1822_138021)"/>
<path d="M151.149 122.283L95.6001 122.945C65.7774 123.275 41.3075 99.1309 40.9252 69.033C40.5975 38.9352 64.5211 14.2396 94.3438 13.8537L149.892 13.1922C179.715 12.8615 204.185 37.0059 204.567 67.1037C204.95 97.2015 181.026 121.897 151.149 122.283Z" fill="url(#paint13_linear_1822_138021)"/>
<path d="M149.895 108.061L96.5314 108.667C74.4649 108.943 56.3856 91.0828 56.1125 68.8126C55.8394 46.5424 73.5364 28.2963 95.6029 28.0207L148.967 27.4143C171.033 27.1387 189.113 44.9989 189.386 67.2691C189.659 89.5393 171.962 107.785 149.895 108.061Z" fill="#030303"/>
<path d="M118.218 67.3793C118.382 80.2783 108.059 86.0112 95.2778 86.1766C82.4966 86.342 72.0642 80.8296 71.9004 67.9305C71.7365 55.0314 82.0051 44.4476 94.7862 44.2822C107.567 44.1169 118.054 54.4802 118.218 67.3793Z" fill="white"/>
<path d="M97.4037 82.704L92.9795 82.7591C90.9585 82.7591 89.2653 81.1605 89.2653 79.0658L88.9922 56.2994C88.9922 54.2598 90.5762 52.551 92.6518 52.551L97.076 52.4958C99.097 52.4958 100.79 54.0945 100.79 56.1892L101.063 78.9555C101.063 80.9951 99.4247 82.6488 97.4037 82.704Z" fill="#030303"/>
<path d="M176.171 66.7179C176.335 79.617 166.012 85.3499 153.231 85.5153C140.45 85.6806 130.017 80.1682 129.853 67.2692C129.69 54.3701 139.958 43.7862 152.739 43.6208C165.52 43.4555 176.008 53.8188 176.171 66.7179Z" fill="white"/>
<path d="M155.357 82.0423L150.933 82.0974C148.912 82.0974 147.218 80.4988 147.218 78.4041L146.945 55.6378C146.945 53.5982 148.529 51.8893 150.605 51.8893L155.029 51.8342C157.05 51.8342 158.743 53.4328 158.743 55.5275L159.016 78.2939C159.016 80.3335 157.378 81.9871 155.357 82.0423Z" fill="#030303"/>
<path d="M248.538 206.458H190.203V117.377H264.869V189.976C264.869 199.071 257.55 206.458 248.538 206.458Z" fill="url(#paint14_linear_1822_138021)"/>
<path d="M230.667 199.071L227.717 191.85H220.016L230.393 176.25L241.044 183.526L230.667 199.071Z" fill="#C1C9A3"/>
<path d="M248.472 199.071L251.366 191.85H259.123L248.745 176.25L238.094 183.526L248.472 199.071Z" fill="#C1C9A3"/>
<path d="M239.57 149.845L244.759 155.082L252.133 154.476L252.788 161.862L258.796 166.107L254.591 172.226L256.502 179.392L249.347 181.321L246.234 188.046L239.57 184.904L232.906 188.046L229.793 181.321L222.692 179.392L224.604 172.226L220.344 166.107L226.407 161.862L227.007 154.476L234.381 155.082L239.57 149.845Z" fill="#ACB290"/>
<path d="M239.572 180.439C245.846 180.439 250.933 175.306 250.933 168.973C250.933 162.641 245.846 157.507 239.572 157.507C233.297 157.507 228.211 162.641 228.211 168.973C228.211 175.306 233.297 180.439 239.572 180.439Z" fill="#C1C9A3"/>
<path d="M231.767 187.33H176.109V189.976C176.109 199.071 183.429 206.458 192.441 206.458H250.775C240.288 206.458 231.767 197.913 231.767 187.33Z" fill="url(#paint15_linear_1822_138021)"/>
<path d="M212.759 129.449C209.591 129.449 207.023 126.858 207.023 123.661V115.889C207.023 112.691 209.591 110.101 212.759 110.101C215.927 110.101 218.494 112.691 218.494 115.889V123.661C218.494 126.858 215.927 129.449 212.759 129.449Z" fill="#C360EF"/>
<path d="M222.641 129.449C219.473 129.449 216.906 126.858 216.906 123.661V115.889C216.906 112.691 219.473 110.101 222.641 110.101C225.809 110.101 228.376 112.691 228.376 115.889V123.661C228.376 126.858 225.809 129.449 222.641 129.449Z" fill="#C360EF"/>
<path d="M232.469 129.449C229.302 129.449 226.734 126.858 226.734 123.661V115.889C226.734 112.691 229.302 110.101 232.469 110.101C235.637 110.101 238.205 112.691 238.205 115.889V123.661C238.205 126.858 235.637 129.449 232.469 129.449Z" fill="#C360EF"/>
<path d="M236.792 142.348H216.419C215.053 142.348 213.961 141.246 213.961 139.868C213.961 138.49 215.053 137.387 216.419 137.387H236.792C238.158 137.387 239.25 138.49 239.25 139.868C239.25 141.246 238.158 142.348 236.792 142.348Z" fill="#C1C9A3"/>
<path d="M220.128 154.916H199.755C198.389 154.916 197.297 153.814 197.297 152.436C197.297 151.058 198.389 149.955 199.755 149.955H220.128C221.494 149.955 222.586 151.058 222.586 152.436C222.586 153.814 221.494 154.916 220.128 154.916Z" fill="#C1C9A3"/>
<path d="M215.048 165.225H199.755C198.389 165.225 197.297 164.122 197.297 162.744C197.297 161.366 198.389 160.264 199.755 160.264H215.048C216.414 160.264 217.506 161.366 217.506 162.744C217.506 164.122 216.414 165.225 215.048 165.225Z" fill="#C1C9A3"/>
<path d="M209.54 175.478H199.817C198.452 175.478 197.359 174.376 197.359 172.997C197.359 171.619 198.452 170.517 199.817 170.517H209.54C210.905 170.517 211.997 171.619 211.997 172.997C211.997 174.376 210.85 175.478 209.54 175.478Z" fill="#C1C9A3"/>
<path d="M62.2832 267.45C59.9345 267.45 57.3127 267.065 54.254 266.127C51.3591 265.245 49.7205 262.158 50.5944 259.237C51.4684 256.315 54.5271 254.662 57.422 255.544C61.1908 256.701 64.3041 256.646 66.1612 255.323C67.6359 254.276 68.0729 252.677 68.1275 251.464C68.346 248.433 70.9678 246.117 73.9719 246.338C76.976 246.558 79.27 249.204 79.0516 252.236C78.7238 257.252 76.2659 261.662 72.3879 264.363C70.2031 265.962 66.8713 267.45 62.2832 267.45Z" fill="#C35DF2"/>
<path d="M67.806 218.445C67.0413 218.445 66.3313 218.334 65.5666 218.114C61.197 216.846 58.6845 212.271 59.9407 207.916C60.3777 206.372 70.8101 169.55 77.2553 151.689C78.7847 147.39 83.482 145.185 87.7424 146.783C92.0028 148.327 94.1876 153.123 92.6036 157.367C86.3223 174.676 75.7806 212.105 75.6713 212.491C74.6882 216.074 71.411 218.445 67.806 218.445Z" fill="url(#paint16_linear_1822_138021)"/>
<path d="M59.225 267.064C58.4603 267.064 57.641 267.009 56.8217 266.844C49.7211 265.521 44.9691 258.63 46.28 251.464C46.3346 251.244 50.4858 228.422 56.3848 202.348C57.9687 195.237 65.0148 190.772 72.0608 192.371C79.1068 193.97 83.531 201.081 81.947 208.192C76.1573 233.714 72.1154 255.984 72.0608 256.205C70.9137 262.599 65.3971 267.064 59.225 267.064Z" fill="url(#paint17_linear_1822_138021)"/>
</g>
<defs>
<linearGradient id="paint0_linear_1822_138021" x1="211.164" y1="168.56" x2="150.846" y2="147.08" gradientUnits="userSpaceOnUse">
<stop offset="0.000475364" stop-color="#9DED76"/>
<stop offset="1" stop-color="#4BCF70"/>
</linearGradient>
<linearGradient id="paint1_linear_1822_138021" x1="228.007" y1="161.523" x2="211.195" y2="118.232" gradientUnits="userSpaceOnUse">
<stop stop-color="#CF87C1"/>
<stop offset="1" stop-color="#C054FD"/>
</linearGradient>
<linearGradient id="paint2_linear_1822_138021" x1="112.356" y1="342.939" x2="112.356" y2="192.667" gradientUnits="userSpaceOnUse">
<stop offset="0.000475364" stop-color="#9DED76"/>
<stop offset="1" stop-color="#4BCF70"/>
</linearGradient>
<linearGradient id="paint3_linear_1822_138021" x1="112.36" y1="346.247" x2="112.36" y2="266.308" gradientUnits="userSpaceOnUse">
<stop stop-color="#CF87C1"/>
<stop offset="1" stop-color="#C054FD"/>
</linearGradient>
<linearGradient id="paint4_linear_1822_138021" x1="150.099" y1="342.941" x2="150.099" y2="202.97" gradientUnits="userSpaceOnUse">
<stop offset="0.000475364" stop-color="#9DED76"/>
<stop offset="1" stop-color="#4BCF70"/>
</linearGradient>
<linearGradient id="paint5_linear_1822_138021" x1="157.569" y1="346.25" x2="157.569" y2="266.305" gradientUnits="userSpaceOnUse">
<stop stop-color="#CF87C1"/>
<stop offset="1" stop-color="#C054FD"/>
</linearGradient>
<linearGradient id="paint6_linear_1822_138021" x1="86.2194" y1="296.227" x2="100.064" y2="340.125" gradientUnits="userSpaceOnUse">
<stop stop-color="#FCEC6E"/>
<stop offset="1" stop-color="#C054FD"/>
</linearGradient>
<linearGradient id="paint7_linear_1822_138021" x1="190.556" y1="316.52" x2="175.874" y2="339.552" gradientUnits="userSpaceOnUse">
<stop stop-color="#FCEC6E"/>
<stop offset="1" stop-color="#C054FD"/>
</linearGradient>
<linearGradient id="paint8_linear_1822_138021" x1="122.985" y1="134.173" x2="122.985" y2="153.206" gradientUnits="userSpaceOnUse">
<stop stop-color="#FCEC6E"/>
<stop offset="1" stop-color="#C054FD"/>
</linearGradient>
<linearGradient id="paint9_linear_1822_138021" x1="193.132" y1="-8.74881" x2="196.567" y2="30.7105" gradientUnits="userSpaceOnUse">
<stop offset="0.000475364" stop-color="#9DED76"/>
<stop offset="1" stop-color="#4BCF70"/>
</linearGradient>
<linearGradient id="paint10_linear_1822_138021" x1="50.0197" y1="-7.09388" x2="47.502" y2="32.4353" gradientUnits="userSpaceOnUse">
<stop offset="0.000475364" stop-color="#9DED76"/>
<stop offset="1" stop-color="#4BCF70"/>
</linearGradient>
<linearGradient id="paint11_linear_1822_138021" x1="55.7097" y1="19.4674" x2="56.4288" y2="81.3555" gradientUnits="userSpaceOnUse">
<stop offset="0.000475364" stop-color="#9DED76"/>
<stop offset="1" stop-color="#4BCF70"/>
</linearGradient>
<linearGradient id="paint12_linear_1822_138021" x1="189.032" y1="17.9181" x2="189.752" y2="79.8063" gradientUnits="userSpaceOnUse">
<stop offset="0.000475364" stop-color="#9DED76"/>
<stop offset="1" stop-color="#4BCF70"/>
</linearGradient>
<linearGradient id="paint13_linear_1822_138021" x1="122.092" y1="11.0651" x2="122.471" y2="43.7222" gradientUnits="userSpaceOnUse">
<stop stop-color="#FCEC6E"/>
<stop offset="0.9995" stop-color="#C054FD"/>
</linearGradient>
<linearGradient id="paint14_linear_1822_138021" x1="227.56" y1="140.779" x2="227.56" y2="182.347" gradientUnits="userSpaceOnUse">
<stop offset="0.000475364" stop-color="#E8EDDA"/>
<stop offset="1" stop-color="#D6DEB6"/>
</linearGradient>
<linearGradient id="paint15_linear_1822_138021" x1="213.428" y1="192.142" x2="213.428" y2="203.697" gradientUnits="userSpaceOnUse">
<stop offset="0.000475364" stop-color="#E8EDDA"/>
<stop offset="1" stop-color="#D6DEB6"/>
</linearGradient>
<linearGradient id="paint16_linear_1822_138021" x1="54.001" y1="209.292" x2="99.2648" y2="155.842" gradientUnits="userSpaceOnUse">
<stop offset="0.000475364" stop-color="#9DED76"/>
<stop offset="1" stop-color="#4BCF70"/>
</linearGradient>
<linearGradient id="paint17_linear_1822_138021" x1="45.9673" y1="207.669" x2="82.776" y2="251.135" gradientUnits="userSpaceOnUse">
<stop stop-color="#CF87C1"/>
<stop offset="1" stop-color="#C054FD"/>
</linearGradient>
<clipPath id="clip0_1822_138021">
<rect width="264.362" height="355" fill="white" transform="translate(0.34375)"/>
</clipPath>
</defs>
</svg>
