<svg width="324" height="88" viewBox="0 0 324 88" fill="none" xmlns="http://www.w3.org/2000/svg">
<path d="M114.159 55.2868C115.347 55.2868 116.217 54.9522 116.769 54.283C117.321 53.6138 117.597 52.8191 117.597 51.8989V50.1423C117.597 49.0548 117.246 48.2852 116.543 47.8335C115.84 47.365 115.046 47.1308 114.159 47.1308H112.201V55.2868H114.159ZM117.246 38.3223C117.246 37.3185 116.97 36.6242 116.417 36.2394C115.865 35.8379 115.071 35.6371 114.033 35.6371H112.201V42.8897H114.234C115.204 42.8897 115.949 42.5133 116.468 41.7604C116.986 40.9908 117.246 40.0539 117.246 38.9497V38.3223ZM115.865 60.4313C114.56 60.4313 112.871 60.3979 110.796 60.331C108.721 60.264 107.233 60.2222 106.329 60.2055H103.92V30.7937H108.261C109.315 30.7937 110.52 30.7603 111.875 30.6934C113.23 30.6097 114.209 30.5679 114.811 30.5679C116.769 30.5679 118.417 30.7268 119.755 31.0447C121.11 31.3626 122.173 31.8394 122.942 32.4751C123.712 33.1109 124.256 33.847 124.573 34.6835C124.908 35.52 125.075 36.5155 125.075 37.6699C125.075 39.4433 124.665 40.9657 123.846 42.2372C123.026 43.5087 121.838 44.3034 120.282 44.6213C124.23 44.9726 126.205 47.2898 126.205 51.5727C126.205 52.8609 126.012 54.032 125.627 55.086C125.243 56.1233 124.649 57.0518 123.846 57.8716C123.059 58.6747 121.989 59.3021 120.633 59.7538C119.278 60.2055 117.689 60.4313 115.865 60.4313Z" fill="#4C5C75"/>
<path d="M137.057 48.8373C137.057 51.6145 137.266 53.5469 137.684 54.6343C138.119 55.7218 138.872 56.2655 139.943 56.2655C140.729 56.2655 141.323 56.0731 141.725 55.6883C142.126 55.2868 142.427 54.4754 142.628 53.2541C142.846 52.016 142.954 50.1674 142.954 47.708V41.66C142.954 39.2676 142.72 37.4858 142.252 36.3147C141.783 35.1436 141.014 34.558 139.943 34.558C138.872 34.558 138.119 35.1352 137.684 36.2896C137.266 37.4273 137.057 39.5102 137.057 42.5384V48.8373ZM139.416 60.7325C138.027 60.7325 136.773 60.607 135.652 60.3561C134.547 60.1051 133.594 59.7538 132.791 59.3021C131.988 58.8503 131.285 58.2732 130.683 57.5705C130.097 56.8678 129.62 56.115 129.252 55.3119C128.901 54.5088 128.617 53.572 128.399 52.5012C128.182 51.4138 128.031 50.3347 127.947 49.2639C127.864 48.1765 127.822 46.9551 127.822 45.6C127.822 43.5924 127.922 41.8441 128.123 40.3551C128.341 38.8661 128.734 37.4691 129.303 36.1641C129.871 34.8424 130.624 33.7717 131.561 32.9519C132.515 32.1322 133.736 31.488 135.225 31.0196C136.731 30.5511 138.504 30.3169 140.545 30.3169C141.951 30.3169 143.214 30.4508 144.335 30.7184C145.456 30.9694 146.418 31.3207 147.221 31.7725C148.024 32.2242 148.718 32.8097 149.304 33.5291C149.906 34.2485 150.383 35.0181 150.734 35.8379C151.102 36.641 151.395 37.5862 151.612 38.6737C151.83 39.7611 151.98 40.8402 152.064 41.911C152.148 42.9817 152.189 44.1947 152.189 45.5498C152.189 47.5574 152.081 49.3057 151.863 50.7947C151.646 52.2837 151.253 53.6807 150.684 54.9857C150.115 56.2739 149.354 57.3279 148.4 58.1477C147.446 58.9507 146.217 59.5865 144.711 60.0549C143.222 60.5066 141.457 60.7325 139.416 60.7325Z" fill="#4C5C75"/>
<path d="M163.304 48.8373C163.304 51.6145 163.513 53.5469 163.932 54.6343C164.367 55.7218 165.119 56.2655 166.19 56.2655C166.976 56.2655 167.57 56.0731 167.972 55.6883C168.373 55.2868 168.675 54.4754 168.875 53.2541C169.093 52.016 169.202 50.1674 169.202 47.708V41.66C169.202 39.2676 168.967 37.4858 168.499 36.3147C168.03 35.1436 167.261 34.558 166.19 34.558C165.119 34.558 164.367 35.1352 163.932 36.2896C163.513 37.4273 163.304 39.5102 163.304 42.5384V48.8373ZM165.663 60.7325C164.275 60.7325 163.02 60.607 161.899 60.3561C160.795 60.1051 159.841 59.7538 159.038 59.3021C158.235 58.8503 157.532 58.2732 156.93 57.5705C156.344 56.8678 155.868 56.115 155.5 55.3119C155.148 54.5088 154.864 53.572 154.646 52.5012C154.429 51.4138 154.278 50.3347 154.195 49.2639C154.111 48.1765 154.069 46.9551 154.069 45.6C154.069 43.5924 154.169 41.8441 154.37 40.3551C154.588 38.8661 154.981 37.4691 155.55 36.1641C156.119 34.8424 156.871 33.7717 157.808 32.9519C158.762 32.1322 159.983 31.488 161.472 31.0196C162.978 30.5511 164.751 30.3169 166.792 30.3169C168.198 30.3169 169.461 30.4508 170.582 30.7184C171.703 30.9694 172.665 31.3207 173.468 31.7725C174.271 32.2242 174.965 32.8097 175.551 33.5291C176.153 34.2485 176.63 35.0181 176.981 35.8379C177.349 36.641 177.642 37.5862 177.859 38.6737C178.077 39.7611 178.228 40.8402 178.311 41.911C178.395 42.9817 178.437 44.1947 178.437 45.5498C178.437 47.5574 178.328 49.3057 178.11 50.7947C177.893 52.2837 177.5 53.6807 176.931 54.9857C176.362 56.2739 175.601 57.3279 174.647 58.1477C173.694 58.9507 172.464 59.5865 170.958 60.0549C169.469 60.5066 167.704 60.7325 165.663 60.7325Z" fill="#4C5C75"/>
<path d="M189.802 60.7325C188.514 60.7325 187.31 60.6154 186.189 60.3812C185.084 60.1637 184.156 59.8709 183.403 59.5028C182.65 59.1348 182.031 58.7834 181.546 58.4488C181.077 58.1142 180.684 57.7796 180.366 57.445V53.2815C181.052 54.2017 182.6 53.07 183.754 53.756C184.909 54.4252 186.155 54.7598 187.494 54.7598C188.832 54.7598 189.794 54.6176 190.38 54.3332C190.982 54.0488 191.283 53.5301 191.283 52.7773C191.283 51.9742 190.94 51.2883 190.254 50.7194C189.585 50.1506 188.422 49.4647 186.766 48.6616C186.163 48.3605 185.653 48.0928 185.235 47.8586C184.817 47.6076 184.256 47.2061 183.554 46.654C182.868 46.0852 182.307 45.4996 181.872 44.8973C181.437 44.2783 181.052 43.492 180.718 42.5384C180.383 41.568 180.216 40.5307 180.216 39.4265C180.216 33.4538 183.587 30.4675 190.329 30.4675C191.4 30.4675 192.404 30.5846 193.341 30.8188C194.294 31.0363 195.039 31.2789 195.574 31.5466C196.11 31.8143 196.122 31.9612 196.557 32.3293C197.009 32.6806 196.44 32.6522 196.557 32.8028C196.674 32.9366 198.046 29.4048 198.096 29.4884L197.149 38.6595C196.497 37.8899 195.407 37.0843 194.42 36.7162C193.449 36.3314 192.521 36.139 191.634 36.139C189.493 36.139 188.422 36.8083 188.422 38.1467C188.422 38.498 188.489 38.8159 188.623 39.1003C188.757 39.3847 188.974 39.644 189.275 39.8782C189.576 40.1125 189.852 40.3132 190.103 40.4805C190.371 40.6478 190.731 40.857 191.183 41.1079C191.651 41.3421 192.002 41.5345 192.237 41.6851C194.679 42.7224 196.469 43.9521 197.607 45.3741C198.761 46.7962 199.339 48.5278 199.339 50.5689C199.339 53.8815 198.519 56.4077 196.879 58.1477C195.256 59.8709 192.897 60.7325 189.802 60.7325Z" fill="#4C5C75"/>
<path d="M206.665 60.2055V37.444H200.793V30.7937H221.02V37.444H215.148V60.2055H206.665Z" fill="#4C5C75"/>
<path d="M241.038 60.2055H223.245V30.7937H240.266L239.882 36.7082L231.552 36.4653V42.1368H238.328V48.0092L231.552 47.5072V54.1826L241.038 53.9317V60.2055Z" fill="#4C5C75"/>
<path d="M251.573 50.4183V60.2055H243.242V30.7937H246.554C247.357 30.7937 248.553 30.7603 250.143 30.6934C251.732 30.6097 253.045 30.5679 254.083 30.5679C257.696 30.5679 260.39 31.3626 262.163 32.9519C263.954 34.5413 264.849 36.9756 264.849 40.2547C264.849 42.1954 264.422 43.9186 263.569 45.4243C262.732 46.9301 261.62 48.1263 260.231 49.013C260.984 49.197 261.628 49.6236 262.163 50.2928C262.715 50.962 263.142 51.7567 263.443 52.6769C263.744 53.5803 265.925 56.1225 265.925 56.1225C265.925 56.1225 265.925 56.9511 265.925 57.8981C265.925 58.8451 265.925 60.2055 265.925 60.2055H256.718C256.534 59.9713 256.391 59.3188 256.291 58.2481C256.191 57.1606 256.048 55.864 255.864 54.3583C255.697 52.8358 255.455 51.5643 255.137 50.5438C255.103 50.5438 255.061 50.5438 255.011 50.5438C254.693 50.5438 254.35 50.5438 253.982 50.5438C253.631 50.5271 253.321 50.5103 253.054 50.4936C252.786 50.4769 252.502 50.4601 252.201 50.4434C251.916 50.4267 251.707 50.4183 251.573 50.4183ZM251.573 45.7506H252.376C252.794 45.7506 253.146 45.7338 253.43 45.7004C253.715 45.6669 254.024 45.6084 254.359 45.5247C254.71 45.4243 254.994 45.2738 255.212 45.073C255.446 44.8722 255.664 44.6129 255.864 44.295C256.065 43.9772 256.216 43.5673 256.316 43.0654C256.417 42.5635 256.467 41.9779 256.467 41.3087V39.3262C256.467 37.8706 256.082 36.8584 255.312 36.2896C254.559 35.7041 253.472 35.4113 252.05 35.4113H251.573V45.7506Z" fill="#4C5C75"/>
<path d="M276.337 60.7325C275.049 60.7325 273.844 60.6154 272.723 60.3812C271.619 60.1637 270.691 59.8709 269.938 59.5028C269.185 59.1348 268.566 58.7834 268.081 58.4488C267.612 58.1142 267.219 57.7796 266.901 57.445L267.529 51.3468C268.215 52.267 269.135 53.07 270.289 53.756C271.444 54.4252 272.69 54.7598 274.028 54.7598C275.367 54.7598 276.329 54.6176 276.914 54.3332C277.517 54.0488 277.818 53.5301 277.818 52.7773C277.818 51.9742 277.475 51.2883 276.789 50.7194C276.12 50.1506 274.957 49.4647 273.301 48.6616C272.698 48.3605 272.188 48.0928 271.77 47.8586C271.352 47.6076 270.791 47.2061 270.088 46.654C269.402 46.0852 268.842 45.4996 268.407 44.8973C267.972 44.2783 267.587 43.492 267.253 42.5384C266.918 41.568 266.751 40.5307 266.751 39.4265C266.751 33.4538 270.122 30.4675 276.864 30.4675C277.935 30.4675 278.939 30.5846 279.876 30.8188C280.829 31.0363 281.574 31.2789 282.109 31.5466C282.644 31.8143 282.299 31.4868 282.734 31.8548C283.185 32.2062 282.972 31.1125 283.089 31.2631C283.206 31.3969 284.577 29.4048 284.628 29.4884L283.562 38.571C282.91 37.8014 281.942 37.0843 280.955 36.7162C279.984 36.3314 279.056 36.139 278.169 36.139C276.028 36.139 274.957 36.8083 274.957 38.1467C274.957 38.498 275.024 38.8159 275.158 39.1003C275.292 39.3847 275.509 39.644 275.81 39.8782C276.111 40.1125 276.387 40.3132 276.638 40.4805C276.906 40.6478 277.266 40.857 277.717 41.1079C278.186 41.3421 278.537 41.5345 278.771 41.6851C281.214 42.7224 283.004 43.9521 284.142 45.3741C285.296 46.7962 285.873 48.5278 285.873 50.5689C285.873 53.8815 285.054 56.4077 283.414 58.1477C281.791 59.8709 279.432 60.7325 276.337 60.7325Z" fill="#4C5C75"/>
<path d="M114.159 51.2033C115.347 51.2033 116.217 50.8687 116.769 50.1995C117.321 49.5303 117.597 48.7356 117.597 47.8154V46.0587C117.597 44.9713 117.246 44.2017 116.543 43.75C115.84 43.2815 115.046 43.0473 114.159 43.0473H112.201V51.2033H114.159ZM117.246 34.2388C117.246 33.235 116.97 32.5407 116.417 32.1559C115.865 31.7544 115.071 31.5536 114.033 31.5536H112.201V38.8062H114.234C115.204 38.8062 115.949 38.4297 116.468 37.6769C116.986 36.9073 117.246 35.9704 117.246 34.8662V34.2388ZM115.865 56.3478C114.56 56.3478 112.871 56.3144 110.796 56.2474C108.721 56.1805 107.233 56.1387 106.329 56.122H103.92V26.7102H108.261C109.315 26.7102 110.52 26.6767 111.875 26.6098C113.23 26.5262 114.209 26.4844 114.811 26.4844C116.769 26.4844 118.417 26.6433 119.755 26.9612C121.11 27.279 122.173 27.7558 122.942 28.3916C123.712 29.0273 124.256 29.7635 124.573 30.6C124.908 31.4365 125.075 32.432 125.075 33.5863C125.075 35.3597 124.665 36.8822 123.846 38.1537C123.026 39.4252 121.838 40.2199 120.282 40.5377C124.23 40.8891 126.205 43.2062 126.205 47.4892C126.205 48.7774 126.012 49.9485 125.627 51.0025C125.243 52.0398 124.649 52.9683 123.846 53.7881C123.059 54.5911 121.989 55.2185 120.633 55.6702C119.278 56.122 117.689 56.3478 115.865 56.3478Z" fill="white"/>
<path d="M137.057 44.7538C137.057 47.531 137.266 49.4633 137.684 50.5508C138.119 51.6383 138.872 52.182 139.943 52.182C140.729 52.182 141.323 51.9896 141.725 51.6048C142.126 51.2033 142.427 50.3919 142.628 49.1706C142.846 47.9325 142.954 46.0838 142.954 43.6245V37.5765C142.954 35.1841 142.72 33.4023 142.252 32.2312C141.783 31.0601 141.014 30.4745 139.943 30.4745C138.872 30.4745 138.119 31.0517 137.684 32.2061C137.266 33.3437 137.057 35.4267 137.057 38.4548V44.7538ZM139.416 56.649C138.027 56.649 136.773 56.5235 135.652 56.2725C134.547 56.0216 133.594 55.6702 132.791 55.2185C131.988 54.7668 131.285 54.1896 130.683 53.487C130.097 52.7843 129.62 52.0314 129.252 51.2284C128.901 50.4253 128.617 49.4884 128.399 48.4177C128.182 47.3302 128.031 46.2511 127.947 45.1804C127.864 44.0929 127.822 42.8716 127.822 41.5165C127.822 39.5088 127.922 37.7605 128.123 36.2715C128.341 34.7825 128.734 33.3856 129.303 32.0806C129.871 30.7589 130.624 29.6882 131.561 28.8684C132.515 28.0486 133.736 27.4045 135.225 26.9361C136.731 26.4676 138.504 26.2334 140.545 26.2334C141.951 26.2334 143.214 26.3672 144.335 26.6349C145.456 26.8859 146.418 27.2372 147.221 27.6889C148.024 28.1406 148.718 28.7262 149.304 29.4456C149.906 30.165 150.383 30.9346 150.734 31.7544C151.102 32.5574 151.395 33.5027 151.612 34.5902C151.83 35.6776 151.98 36.7567 152.064 37.8275C152.148 38.8982 152.189 40.1111 152.189 41.4663C152.189 43.4739 152.081 45.2222 151.863 46.7112C151.646 48.2002 151.253 49.5972 150.684 50.9021C150.115 52.1904 149.354 53.2444 148.4 54.0641C147.446 54.8672 146.217 55.5029 144.711 55.9714C143.222 56.4231 141.457 56.649 139.416 56.649Z" fill="white"/>
<path d="M163.304 44.7538C163.304 47.531 163.513 49.4633 163.932 50.5508C164.367 51.6383 165.119 52.182 166.19 52.182C166.976 52.182 167.57 51.9896 167.972 51.6048C168.373 51.2033 168.675 50.3919 168.875 49.1706C169.093 47.9325 169.202 46.0838 169.202 43.6245V37.5765C169.202 35.1841 168.967 33.4023 168.499 32.2312C168.03 31.0601 167.261 30.4745 166.19 30.4745C165.119 30.4745 164.367 31.0517 163.932 32.2061C163.513 33.3437 163.304 35.4267 163.304 38.4548V44.7538ZM165.663 56.649C164.275 56.649 163.02 56.5235 161.899 56.2725C160.795 56.0216 159.841 55.6702 159.038 55.2185C158.235 54.7668 157.532 54.1896 156.93 53.487C156.344 52.7843 155.868 52.0314 155.5 51.2284C155.148 50.4253 154.864 49.4884 154.646 48.4177C154.429 47.3302 154.278 46.2511 154.195 45.1804C154.111 44.0929 154.069 42.8716 154.069 41.5165C154.069 39.5088 154.169 37.7605 154.37 36.2715C154.588 34.7825 154.981 33.3856 155.55 32.0806C156.119 30.7589 156.871 29.6882 157.808 28.8684C158.762 28.0486 159.983 27.4045 161.472 26.9361C162.978 26.4676 164.751 26.2334 166.792 26.2334C168.198 26.2334 169.461 26.3672 170.582 26.6349C171.703 26.8859 172.665 27.2372 173.468 27.6889C174.271 28.1406 174.965 28.7262 175.551 29.4456C176.153 30.165 176.63 30.9346 176.981 31.7544C177.349 32.5574 177.642 33.5027 177.859 34.5902C178.077 35.6776 178.228 36.7567 178.311 37.8275C178.395 38.8982 178.437 40.1111 178.437 41.4663C178.437 43.4739 178.328 45.2222 178.11 46.7112C177.893 48.2002 177.5 49.5972 176.931 50.9021C176.362 52.1904 175.601 53.2444 174.647 54.0641C173.694 54.8672 172.464 55.5029 170.958 55.9714C169.469 56.4231 167.704 56.649 165.663 56.649Z" fill="white"/>
<path d="M189.802 56.649C188.514 56.649 187.31 56.5319 186.189 56.2976C185.084 56.0801 184.156 55.7874 183.403 55.4193C182.65 55.0512 182.031 54.6999 181.546 54.3653C181.077 54.0307 180.684 53.6961 180.366 53.3615L180.994 47.2633C181.68 48.1835 182.6 48.9865 183.754 49.6725C184.909 50.3417 186.155 50.6763 187.494 50.6763C188.832 50.6763 189.794 50.5341 190.38 50.2497C190.982 49.9652 191.283 49.4466 191.283 48.6937C191.283 47.8907 190.94 47.2048 190.254 46.6359C189.585 46.0671 188.422 45.3812 186.766 44.5781C186.163 44.277 185.653 44.0093 185.235 43.7751C184.817 43.5241 184.256 43.1226 183.554 42.5705C182.868 42.0016 182.307 41.4161 181.872 40.8138C181.437 40.1948 181.052 39.4085 180.718 38.4548C180.383 37.4845 180.216 36.4472 180.216 35.343C180.216 29.3703 183.587 26.384 190.329 26.384C191.4 26.384 192.404 26.5011 193.341 26.7353C194.294 26.9528 195.039 27.1954 195.574 27.4631C196.11 27.7308 196.595 28.0486 197.03 28.4167C197.481 28.768 197.766 29.019 197.883 29.1696C198 29.3034 198.084 29.4121 198.134 29.4958L196.912 34.3411C196.26 33.5715 195.407 33.0008 194.42 32.6327C193.449 32.2479 192.521 32.0555 191.634 32.0555C189.493 32.0555 188.422 32.7247 188.422 34.0631C188.422 34.4145 188.489 34.7324 188.623 35.0168C188.757 35.3012 188.974 35.5605 189.275 35.7947C189.576 36.029 189.852 36.2297 190.103 36.397C190.371 36.5643 190.731 36.7734 191.183 37.0244C191.651 37.2586 192.002 37.451 192.237 37.6016C194.679 38.6389 196.469 39.8685 197.607 41.2906C198.761 42.7127 199.339 44.4443 199.339 46.4853C199.339 49.7979 198.519 52.3242 196.879 54.0641C195.256 55.7874 192.897 56.649 189.802 56.649Z" fill="white"/>
<path d="M206.665 56.122V33.3605H200.793V26.7102H221.02V33.3605H215.148V56.122H206.665Z" fill="white"/>
<path d="M241.038 56.122H223.245V26.7102H240.662L240.16 32.6327L231.552 32.3818V38.0533H238.328V43.9256L231.552 43.4237V50.0991L241.038 49.8481V56.122Z" fill="white"/>
<path d="M251.573 46.3348V56.122H243.242V26.7102H246.554C247.357 26.7102 248.553 26.6767 250.143 26.6098C251.732 26.5262 253.045 26.4844 254.083 26.4844C257.696 26.4844 260.39 27.279 262.163 28.8684C263.954 30.4578 264.849 32.892 264.849 36.1712C264.849 38.1119 264.422 39.8351 263.569 41.3408C262.732 42.8465 261.62 44.0427 260.231 44.9294C260.984 45.1135 261.628 45.5401 262.163 46.2093C262.715 46.8785 263.142 47.6732 263.443 48.5934C263.744 49.4968 264.004 50.417 264.221 51.3538C264.455 52.274 264.715 53.1858 264.999 54.0892C265.3 54.9927 265.627 55.6702 265.978 56.122H256.718C256.534 55.8877 256.391 55.2353 256.291 54.1645C256.191 53.0771 256.048 51.7805 255.864 50.2747C255.697 48.7523 255.455 47.4808 255.137 46.4603C255.103 46.4603 255.061 46.4603 255.011 46.4603C254.693 46.4603 254.35 46.4603 253.982 46.4603C253.631 46.4435 253.321 46.4268 253.054 46.4101C252.786 46.3933 252.502 46.3766 252.201 46.3599C251.916 46.3431 251.707 46.3348 251.573 46.3348ZM251.573 41.667H252.376C252.794 41.667 253.146 41.6503 253.43 41.6169C253.715 41.5834 254.024 41.5248 254.359 41.4412C254.71 41.3408 254.994 41.1902 255.212 40.9895C255.446 40.7887 255.664 40.5294 255.864 40.2115C256.065 39.8936 256.216 39.4837 256.316 38.9818C256.417 38.4799 256.467 37.8944 256.467 37.2252V35.2426C256.467 33.7871 256.082 32.7749 255.312 32.2061C254.559 31.6205 253.472 31.3278 252.05 31.3278H251.573V41.667Z" fill="white"/>
<path d="M276.337 56.649C275.049 56.649 273.844 56.5319 272.723 56.2976C271.619 56.0801 270.691 55.7874 269.938 55.4193C269.185 55.0512 268.566 54.6999 268.081 54.3653C267.612 54.0307 267.219 53.6961 266.901 53.3615L267.529 47.2633C268.215 48.1835 269.135 48.9865 270.289 49.6725C271.444 50.3417 272.69 50.6763 274.028 50.6763C275.367 50.6763 276.329 50.5341 276.914 50.2497C277.517 49.9652 277.818 49.4466 277.818 48.6937C277.818 47.8907 277.475 47.2048 276.789 46.6359C276.12 46.0671 274.957 45.3812 273.301 44.5781C272.698 44.277 272.188 44.0093 271.77 43.7751C271.352 43.5241 270.791 43.1226 270.088 42.5705C269.402 42.0016 268.842 41.4161 268.407 40.8138C267.972 40.1948 267.587 39.4085 267.253 38.4548C266.918 37.4845 266.751 36.4472 266.751 35.343C266.751 29.3703 270.122 26.384 276.864 26.384C277.935 26.384 278.939 26.5011 279.876 26.7353C280.829 26.9528 281.574 27.1954 282.109 27.4631C282.644 27.7308 283.13 28.0486 283.565 28.4167C284.016 28.768 284.301 29.019 284.418 29.1696C284.535 29.3034 284.619 29.4121 284.669 29.4958L283.414 34.3392C282.762 33.5696 281.942 33.0008 280.955 32.6327C279.984 32.2479 279.056 32.0555 278.169 32.0555C276.028 32.0555 274.957 32.7247 274.957 34.0631C274.957 34.4145 275.024 34.7324 275.158 35.0168C275.292 35.3012 275.509 35.5605 275.81 35.7947C276.111 36.029 276.387 36.2297 276.638 36.397C276.906 36.5643 277.266 36.7734 277.717 37.0244C278.186 37.2586 278.537 37.451 278.771 37.6016C281.214 38.6389 283.004 39.8685 284.142 41.2906C285.296 42.7127 285.873 44.4443 285.873 46.4853C285.873 49.7979 285.054 52.3242 283.414 54.0641C281.791 55.7874 279.432 56.649 276.337 56.649Z" fill="white"/>
<g filter="url(#filter0_d_149_2026)">
<path d="M297.726 66.784C296.79 66.784 295.735 66.5681 294.559 66.1363C293.384 65.7164 292.622 65.3146 292.274 64.9308L293.408 62.4657C293.708 62.6936 294.193 62.9036 294.865 63.0955C295.537 63.2874 296.113 63.3834 296.593 63.3834C297.072 63.3834 297.486 63.3174 297.834 63.1854C298.194 63.0655 298.47 62.9096 298.662 62.7176C298.854 62.5377 299.01 62.3098 299.13 62.0339C299.249 61.77 299.321 61.5301 299.345 61.3142C299.381 61.0983 299.405 60.8584 299.417 60.5945V59.0651C298.398 60.1207 297.156 60.6484 295.693 60.6484C293.714 60.6484 292.262 59.9707 291.339 58.6153C290.415 57.2598 289.953 55.3765 289.953 52.9655C289.953 51.8379 290.079 50.8003 290.331 49.8527C290.583 48.8931 290.949 48.0534 291.429 47.3337C291.92 46.602 292.556 46.0322 293.336 45.6244C294.115 45.2045 294.997 44.9946 295.981 44.9946C297.468 44.9946 298.758 45.3245 299.849 45.9842L300.155 45.1386H302.908L306.291 45.3005V46.9918L305.211 47.7475V59.7668C305.211 64.4449 302.716 66.784 297.726 66.784ZM298.302 57.3737C298.662 57.3737 299.034 57.2718 299.417 57.0679V47.5856C299.13 47.5256 298.866 47.4956 298.626 47.4956C297.03 47.5076 296.227 48.7372 296.215 51.1842V53.9731C296.215 54.7408 296.317 55.4005 296.521 55.9523C296.88 56.8999 297.474 57.3737 298.302 57.3737Z" fill="#7CDDF6"/>
<path d="M314.647 66.784C313.711 66.784 312.656 66.5681 311.48 66.1363C310.305 65.7164 309.543 65.3146 309.195 64.9308L310.329 62.4657C310.629 62.6936 311.115 62.9036 311.786 63.0955C312.458 63.2874 313.034 63.3834 313.514 63.3834C313.993 63.3834 314.407 63.3174 314.755 63.1854C315.115 63.0655 315.391 62.9096 315.583 62.7176C315.775 62.5377 315.931 62.3098 316.051 62.0339C316.171 61.77 316.242 61.5301 316.266 61.3142C316.302 61.0983 316.326 60.8584 316.338 60.5945V59.0651C315.319 60.1207 314.077 60.6484 312.614 60.6484C310.635 60.6484 309.183 59.9707 308.26 58.6153C307.336 57.2598 306.874 55.3765 306.874 52.9655C306.874 51.8379 307 50.8003 307.252 49.8527C307.504 48.8931 307.87 48.0534 308.35 47.3337C308.841 46.602 309.477 46.0322 310.257 45.6244C311.037 45.2045 311.918 44.9946 312.902 44.9946C314.389 44.9946 315.679 45.3245 316.77 45.9842L317.076 45.1386H319.829L323.212 45.3005V46.9918L322.132 47.7475V59.7668C322.132 64.4449 319.637 66.784 314.647 66.784ZM315.223 57.3737C315.583 57.3737 315.955 57.2718 316.338 57.0679V47.5856C316.051 47.5256 315.787 47.4956 315.547 47.4956C313.951 47.5076 313.148 48.7372 313.136 51.1842V53.9731C313.136 54.7408 313.238 55.4005 313.442 55.9523C313.801 56.8999 314.395 57.3737 315.223 57.3737Z" fill="#7CDDF6"/>
</g>
<path d="M51.6039 54.2952C51.8537 53.4881 52.6462 51.4864 53.8183 49.9367C53.5413 49.4591 53.2295 48.8042 52.9268 47.9996C52.4631 46.7674 52.0208 45.1843 51.7584 43.3506C51.4942 41.5043 51.4122 39.404 51.6743 37.1519C51.8091 35.9929 52.0351 34.7937 52.3741 33.5682C52.5667 33.6651 53.1251 33.9363 53.8183 34.2462C53.5873 33.4028 53.7257 31.3439 55.5634 28.8223C56.0235 28.191 56.5902 27.5306 57.2842 26.8531C57.0274 25.9921 56.591 23.9408 56.8991 22.6236C55.9601 23.161 54.5132 24.3146 53.2406 26.0222C52.3548 27.2108 51.5534 28.6677 51.0665 30.372C50.8661 31.0732 50.719 31.8162 50.6411 32.5997C50.4165 32.406 49.9672 31.7667 49.9672 30.7594C49.7369 31.3883 49.424 32.7162 49.2462 34.6336C49.0772 36.4567 49.0305 38.8126 49.2933 41.6072C48.7798 41.3489 47.6951 40.6193 47.464 39.7669C47.111 43.1246 46.5783 50.6922 47.2715 54.1015C47.3625 52.4986 47.6538 49.5152 48.2001 47.2248C48.4241 46.2859 48.6909 45.4634 49.0045 44.9003C48.9724 46.5791 49.4473 50.8084 51.6039 54.2952Z" fill="#D9D9D9"/>
<path d="M67.1043 29.5972C68.2784 30.0621 68.8131 29.6617 68.9336 29.4034C68.4522 28.9192 59.0171 20.9771 58.632 21.7519C58.324 22.3718 58.5037 24.3076 58.632 25.198C60.9669 26.4707 65.9302 29.1323 67.1043 29.5972Z" fill="#D9D9D9"/>
<path d="M57.2842 74.1505C57.6372 73.8922 58.4395 73.2981 58.8246 72.9882C58.7656 73.3963 58.7157 73.8072 58.6659 74.2167C58.0656 79.1532 57.4898 83.8892 41.3987 81.0274C46.7385 80.1602 52.6356 78.1707 57.2842 74.1505Z" fill="white"/>
<path d="M52.3741 66.0147C52.7343 66.3389 53.2395 66.7723 53.8183 67.2382C51.5718 71.4711 43.8248 79.5229 30.8083 77.8669C27.0586 77.1192 23.1924 75.6843 19.1589 73.3407C18.3887 72.7712 16.752 71.2836 16.3669 69.8889C17.2013 70.4606 19.4285 71.7424 21.6621 72.2961C29.8155 76.7056 42.8111 79.2031 52.3741 66.0147Z" fill="white"/>
<path fill-rule="evenodd" clip-rule="evenodd" d="M58.1592 64.298C60.8808 66.6363 64.276 69.5533 64.6012 72.9882C64.5691 76.4104 63.908 83.5454 61.5203 84.7077C61.3557 84.7878 61.1715 84.8824 60.9659 84.9879C57.4435 86.7959 47.6458 91.8251 22.7211 82.6737C26.9894 83.3194 36.065 84.4171 38.2216 83.6423C36.1035 83.1903 31.4437 82.0926 29.7493 81.3177C32.3467 81.6824 36.6525 81.7982 41.3987 81.0274C57.4898 83.8892 58.0656 79.1532 58.6659 74.2167C58.7157 73.8072 58.7656 73.3963 58.8246 72.9882C58.4395 73.2981 57.6372 73.8922 57.2842 74.1505C48.659 77.3584 40.0905 79.7179 30.8083 77.8669C43.8248 79.5229 51.5718 71.4711 53.8183 67.2382C55.1991 68.3497 56.9987 69.6458 58.247 70.0826C58.0231 68.9563 57.5388 68.1793 57.0297 67.3624C56.2252 66.0716 55.3587 64.6812 55.3587 61.6562C55.9863 62.4311 57.013 63.3132 58.1592 64.298ZM5.39146 62.2373C10.2202 67.1938 14.7878 70.8009 19.1589 73.3407C18.3887 72.7712 16.752 71.2836 16.3669 69.8889C17.2013 70.4606 19.4285 71.7424 21.6621 72.2961C19.8997 71.3429 18.3635 70.3005 17.1371 69.3077C19.7868 70.5809 22.4255 71.2514 24.9483 71.4988C21.2615 70.9272 19.9376 68.9546 19.7366 68.0397C12.7924 66.5974 7.48994 63.7563 5.39146 62.2373ZM20.9882 64.8616C23.01 66.1177 27.6312 68.6104 29.9418 68.5329C28.5619 69.4278 24.5889 70.5822 19.7366 68.0397C21.5005 68.4061 23.3704 68.6822 25.3206 68.8234C22.7211 68.2746 16.2899 66.3052 11.3606 62.8184C13.8638 63.5571 17.2695 64.4588 20.9882 64.8616ZM33.6174 63.4964C36.5124 62.3229 39.2009 60.3952 41.3987 57.3946C40.9494 58.9442 39.4924 62.4504 37.2588 64.0776C38.382 63.4964 40.9943 61.908 42.4577 60.2034C41.8825 61.2091 40.8515 62.7251 39.4993 64.2713C35.2894 67.0801 29.2679 66.5958 29.7493 66.5958C30.1344 66.5958 32.4885 64.5295 33.6174 63.4964Z" fill="#D9D9D9"/>
<path d="M32.6375 69.5014C34.4347 69.5337 38.7029 69.1528 41.3987 67.3706C38.584 69.3863 32.2519 72.2153 24.9483 71.4988C21.2615 70.9272 19.9376 68.9546 19.7366 68.0397C24.5889 70.5822 28.5619 69.4278 29.9418 68.5329C27.6312 68.6104 23.01 66.1177 20.9882 64.8616C25.081 65.305 29.5528 65.144 33.6174 63.4964C32.4885 64.5295 30.1344 66.5958 29.7493 66.5958C29.2679 66.5958 35.2894 67.0801 39.4993 64.2713C37.6828 66.3484 35.2867 68.4798 32.6375 69.5014Z" fill="white"/>
<path d="M44.3832 50.5178C39.1843 62.431 23.6839 73.7631 2.79201 50.5178C8.82529 54.8763 23.6839 60.5908 34.8519 48.5807C28.4717 53.1115 16.5025 56.7005 7.81613 45.8688C13.1448 49.743 18.8178 50.3887 20.9882 50.2273C12.6699 47.7478 7.95882 41.4252 6.64304 38.5739C7.30675 39.3174 8.01281 40.0351 8.76112 40.7145C17.8496 51.3906 32.8301 48.5991 39.1843 45.8688C38.2601 48.7357 36.1035 52.2846 35.1407 53.7007C30.8148 56.7809 25.8449 58.9572 22.6248 60.0096C32.2524 61.4818 41.1419 54.2952 44.3832 50.5178Z" fill="white"/>
<path fill-rule="evenodd" clip-rule="evenodd" d="M35.1407 53.7007C39.3082 50.7334 42.8779 46.9271 43.7093 42.4789C40.7825 39.9994 39.9866 36.7321 39.9545 35.4085C27.5349 35.8927 22.2397 34.1493 22.1435 33.7619C22.0665 33.452 23.1383 32.6642 23.6839 32.3091C20.9637 31.637 18.5037 29.6798 16.1633 27.8176L15.9818 27.6733C17.8303 30.3183 19.897 32.0596 20.6993 32.5997C19.1589 33.297 18.2603 34.2462 18.0036 34.6336C22.4708 37.2681 27.8879 38.185 30.0381 38.3141C24.4926 39.2439 18.0357 38.7015 15.5004 38.3141C23.2025 42.1883 34.3063 40.6386 38.8955 39.3795C38.6644 40.6193 37.7081 41.6395 37.2588 41.9946C24.6996 49.557 15.1774 46.5404 8.76112 40.7145C17.8496 51.3906 32.8301 48.5991 39.1843 45.8688C38.2601 48.7357 36.1035 52.2846 35.1407 53.7007ZM17.1371 37.1518C15.4683 35.5699 11.5531 30.7013 9.24249 23.8827C10.3658 24.0029 11.4831 24.4991 12.6122 25.198C13.0614 27.407 14.5954 32.8902 17.1371 37.1518ZM20.9882 50.2273C12.6699 47.7478 7.95882 41.4252 6.64304 38.5739C3.43504 34.9799 1.21657 30.7812 0 27.3695C1.86528 35.9388 4.61823 41.8811 7.81613 45.8688C13.1448 49.743 18.8178 50.3887 20.9882 50.2273Z" fill="#D9D9D9"/>
<path d="M37.2588 41.9946C15.3079 51.7177 2.79201 31.728 3.27338 17.1029C4.68543 21.6228 9.43504 31.9604 17.1371 37.1518C14.5954 32.8902 13.0614 27.407 12.6122 25.198C13.7186 25.8829 14.8362 26.7623 15.9818 27.6733C17.8303 30.3183 19.897 32.0596 20.6993 32.5997C19.1589 33.297 18.2603 34.2462 18.0036 34.6336C22.4708 37.2681 27.8879 38.185 30.0381 38.3141C24.4926 39.2439 18.0357 38.7015 15.5004 38.3141C23.2025 42.1883 34.3063 40.6386 38.8955 39.3795C38.6644 40.6193 37.7081 41.6395 37.2588 41.9946Z" fill="white"/>
<path fill-rule="evenodd" clip-rule="evenodd" d="M40.2433 31.2437C33.8891 31.6311 30.1536 31.1468 20.9882 26.8852C22.1059 26.7764 22.8996 26.4366 23.698 26.0948C25.0312 25.5241 26.3774 24.9477 29.2679 25.4324C29.1395 25.723 28.0933 26.2653 24.9355 26.1104C25.6415 27.5309 29.6915 29.9846 40.2433 28.4349C40.1792 28.0475 39.2035 27.1951 35.8146 26.8852C36.3281 26.3472 38.6837 25.5876 43.9981 26.8531C42.3438 26.9676 40.6991 28.1873 40.2433 31.2437ZM46.5976 27.5848C46.8222 26.6413 45.269 23.8827 37.2588 20.3959C39.5052 20.7467 44.8261 22.0706 48.138 24.5607C47.1752 22.7043 43.3627 18.0665 35.8146 14.3667C50.7999 18.3018 52.0545 24.9791 47.8491 29.2097C47.6512 28.568 47.1949 28.002 46.5976 27.5848ZM25.5761 12.982C26.0332 12.9758 26.4883 12.9696 26.9572 12.9725C29.4604 13.4776 35.237 15.2626 38.3178 18.362C36.6126 18.0958 34.7816 17.5857 32.8551 17.049C28.4731 15.8282 23.5969 14.4698 18.5812 15.5303C12.9546 13.6999 11.3606 11.5233 11.3606 10.4199C19.3717 13.0662 22.5196 13.0235 25.5761 12.982Z" fill="#D9D9D9"/>
<path d="M29.2679 25.4324C28.7223 24.819 26.3796 23.8633 21.3733 24.9481C15.1153 26.3041 15.3079 23.3984 9.04994 22.6236C8.21555 21.2353 6.58527 17.3159 6.73932 12.7444C8.95367 15.0043 15.1731 19.8729 22.336 21.2676C22.1435 20.8479 21.6043 19.9116 20.9882 19.5242C24.3578 19.5617 32.9649 20.7489 40.4359 25.198C39.8808 23.4682 35.6377 19.3499 23.1062 16.7154C21.3673 16.3499 19.8687 15.9492 18.5812 15.5303C23.5969 14.4698 28.4731 15.8282 32.8551 17.049C34.7816 17.5857 36.6126 18.0958 38.3178 18.362C35.237 15.2626 29.4604 13.4776 26.9572 12.9725C28.4024 12.9813 29.9797 13.0758 32.1562 13.5192C33.4574 13.7843 34.6757 14.0676 35.8146 14.3667C43.3627 18.0665 47.1752 22.7043 48.138 24.5607C44.8261 22.0706 39.5052 20.7467 37.2588 20.3959C45.269 23.8827 46.8222 26.6413 46.5976 27.5848C45.8696 27.0762 44.9323 26.7884 43.9981 26.8531C38.6837 25.5876 36.3281 26.3472 35.8146 26.8852C39.2035 27.1951 40.1792 28.0475 40.2433 28.4349C29.6915 29.9846 25.6415 27.5309 24.9355 26.1104C28.0933 26.2653 29.1395 25.723 29.2679 25.4324Z" fill="white"/>
<path fill-rule="evenodd" clip-rule="evenodd" d="M65.8528 20.6865C64.7064 20.1376 61.0798 19.3111 55.7438 20.3959C54.606 19.5029 53.0482 18.3964 51.2188 17.2513C52.4283 17.2663 55.1026 17.5057 56.1983 18.3411C54.0598 16.6835 48.4417 12.8906 42.8428 10.8073C47.111 11.5512 56.6103 13.5712 60.4613 15.7004C62.5627 17.1539 64.6089 18.883 65.8528 20.6865ZM69.8001 18.8463C69.8001 17.1997 66.5267 12.357 65.6602 11.8727C64.0877 9.77419 59.4408 5.32535 53.4331 4.31803C57.3805 4.09202 66.1801 5.13158 69.8001 11.0978C73.4201 17.0641 73.619 18.5557 73.266 18.5557C73.4586 20.3314 73.4586 23.6309 71.9181 22.6236C69.9926 21.3645 69.8001 20.4928 69.8001 18.8463ZM39.4731 4.31803C40.7708 4.64208 42.4755 5.0973 44.2869 5.62567C43.8248 6.67178 44.7362 7.44972 45.2497 7.70792C43.4215 8.03568 41.1124 7.14096 38.7791 6.23682C36.4431 5.33167 34.0828 4.41708 32.1562 4.71021C29.5268 4.02593 26.7257 3.58775 23.9727 3.64C26.1871 3.22033 32.3872 2.76838 39.4731 4.31803ZM42.554 9.23281C38.3949 8.59308 35.237 8.65993 34.1779 8.77333C35.2562 9.00578 36.2318 10.3257 36.5849 10.9565C34.8621 10.6211 33.1726 10.4824 31.5785 10.6136C29.5888 9.32217 24.7622 6.64251 21.3733 6.25509C25.7421 6.3153 35.6746 7.00426 42.554 9.23281Z" fill="#D9D9D9"/>
<path d="M55.1661 10.0325C54.1713 7.67565 49.8324 2.67147 40.4359 1.50921C46.2766 -0.524735 60.2495 -2.09378 69.415 7.90165C72.7898 11.5821 76.6357 17.1222 74.3251 19.5242C74.1004 19.5888 73.5741 19.4855 73.266 18.5557C73.619 18.5557 73.4201 17.0641 69.8001 11.0978C66.1801 5.13158 57.3805 4.09202 53.4331 4.31803C59.4408 5.32535 64.0877 9.77419 65.6602 11.8727C66.1737 13.2609 66.9311 16.3474 65.8528 17.5871C65.3714 15.8115 63.3881 12.2988 59.306 12.4538C59.6911 12.9058 60.365 13.2287 60.4613 14.2941C59.5948 13.6161 57.2264 12.3957 54.2996 12.1633C55.7486 12.8243 58.1387 14.094 60.4613 15.7004C56.6103 13.5712 47.111 11.5512 42.8428 10.8073C48.4417 12.8906 54.0598 16.6835 56.1983 18.3411C55.1026 17.5057 52.4283 17.2663 51.2188 17.2513C47.1417 14.6993 41.7159 11.9556 36.5849 10.9565C36.2318 10.3257 35.2562 9.00578 34.1779 8.77333C35.237 8.65993 38.3949 8.59308 42.554 9.23281C43.0525 9.39429 43.5349 9.56387 43.9981 9.74187C41.8285 8.35097 37.3243 6.05521 32.1562 4.71021C34.0828 4.41708 36.4431 5.33167 38.7791 6.23682C41.1124 7.14096 43.4215 8.03568 45.2497 7.70792C44.7362 7.44972 43.8248 6.67178 44.2869 5.62567C48.792 6.9397 53.9576 8.70614 55.1661 10.0325Z" fill="white"/>
<path d="M70.8591 34.5368L66.623 37.1519L61.8092 29.5972L69.1261 32.9109L71.2442 33.8702C71.0121 34.1055 70.8591 34.3372 70.8591 34.5368Z" fill="#35BDE7"/>
<path d="M47.1752 34.5368C47.464 33.7942 47.7529 31.9992 46.5976 30.7594C45.1534 29.2097 44.9609 28.338 43.7093 29.2097C42.4577 30.0814 40.1471 37.055 46.1162 40.6386C46.2766 40.7678 46.5976 40.5611 46.5976 38.7015C46.5976 36.377 46.5013 33.2776 45.4422 34.6336C44.3832 35.9896 44.9609 33.9556 45.4422 33.5682C45.9236 33.1808 45.0572 32.1154 43.9981 32.2122C44.2869 31.4374 45.0186 30.2558 45.6348 31.728C46.405 33.5682 47.3678 33.8588 47.1752 34.5368Z" fill="url(#paint0_linear_149_2026)"/>
<path fill-rule="evenodd" clip-rule="evenodd" d="M61.039 53.8109C63.4623 53.6078 65.0543 53.0743 66.3315 52.6464C67.4899 52.2583 68.3893 51.957 69.415 52.0675C69.6378 52.8146 69.8923 53.3567 70.1558 53.9179C70.9173 55.5394 71.7531 57.3194 72.1107 64.6587C71.5972 64.013 70.5318 62.7216 70.3778 62.7216C70.3214 62.7216 70.3145 63.4021 70.304 64.4426C70.2787 66.9564 70.2321 71.571 69.415 73.7631C69.415 71.148 68.7796 65.1817 66.2379 62.2373C66.1416 63.335 66.0068 65.7435 66.2379 66.5958C65.596 65.4335 63.3111 62.3923 59.306 59.5254C56.4177 57.4579 58.1507 54.0531 61.039 53.8109Z" fill="#D9D9D9"/>
<path d="M66.623 37.1519C65.9811 37.5716 64.6204 38.5078 64.3123 38.8952C63.9272 39.3795 65.4676 36.9858 66.1416 36.5846L66.623 37.1519Z" fill="#1E1E1E"/>
<path d="M64.7327 34.9242L65.6367 35.9896C64.4689 35.5161 61.3455 33.5523 59.9066 32.6146C60.4359 32.9512 63.3306 34.2883 64.7327 34.9242Z" fill="#1E1E1E"/>
<path d="M68.5485 51.099C68.1313 51.4864 65.7565 52.4162 59.5948 53.0361C59.4023 52.3258 59.0749 50.8472 59.306 50.6147C60.5255 50.7438 62.5794 50.8084 63.6384 50.6147C62.9645 50.3241 60.4613 50.2273 59.8836 49.9367C59.8836 47.8059 62.098 47.2248 68.6448 48.8713C68.3238 49.0973 67.682 49.7043 68.0671 49.9367C68.5485 50.2273 68.8373 50.5178 68.5485 51.099Z" fill="white"/>
<path fill-rule="evenodd" clip-rule="evenodd" d="M69.8964 47.709L68.2597 45.5782C67.7891 45.5782 65.8332 45.1926 63.6474 44.7617C60.4667 44.1346 56.7993 43.4115 56.514 43.6411C55.9544 44.8855 55.7102 46.0211 55.4285 47.3307C54.7893 50.3024 53.9575 54.17 48.8119 62.2373C42.7855 71.6855 30.3531 72.9559 25.0317 72.5039C35.9571 77.6613 43.948 69.3128 46.0587 67.1076C46.366 66.7866 46.5486 66.5958 46.5976 66.5958C46.9056 66.5958 46.9185 67.6289 46.8864 68.1455C52.5379 60.707 56.2373 49.6784 57.3805 45.094C63.2993 45.2489 66.5859 47.0056 67.4894 47.8646L67.5254 47.8749C67.6765 47.9181 67.8227 47.9599 67.9708 47.9996C69.0772 48.2964 69.768 47.935 69.8964 47.709Z" fill="#D9D9D9"/>
<path d="M57.7656 46.8374C56.7707 50.9376 53.2021 60.9394 46.8864 68.1455C52.5379 60.707 56.2373 49.6784 57.3805 45.094C63.2993 45.2489 66.5859 47.0056 67.4894 47.8646C66.1728 47.4883 64.4436 47.0096 57.7656 46.8374Z" fill="white"/>
<path fill-rule="evenodd" clip-rule="evenodd" d="M63.5421 24.1838C64.5228 23.7799 67.7014 23.4641 72.5707 25.4324C72.5399 27.2679 72.6089 30.3964 73.0735 32.5997C72.573 32.8624 71.7331 33.3744 71.2442 33.8702L69.1261 32.9109C70.121 32.1937 71.8412 30.527 70.7629 29.5972C70.3618 29.2514 69.5262 28.6484 68.4791 27.8928C67.0399 26.8543 65.2011 25.5274 63.5421 24.1838Z" fill="url(#paint1_linear_149_2026)"/>
<path d="M60.4613 21.3645C64.1198 21.655 71.6679 22.7204 72.5921 24.6575C72.5832 24.8764 72.5757 25.1377 72.5707 25.4324C67.7014 23.4641 64.5228 23.7799 63.5421 24.1838C62.3511 23.2192 61.2527 22.2459 60.4613 21.3645Z" fill="#ECB772"/>
<path fill-rule="evenodd" clip-rule="evenodd" d="M73.7474 44.9003C71.9182 41.5103 70.8591 35.3116 70.8591 34.5368L66.623 37.1519C65.9811 37.5716 64.6204 38.5078 64.3123 38.8952C63.9272 39.3795 65.4676 36.9858 66.1416 36.5846L65.6367 35.9896C64.4689 35.5161 61.3455 33.5523 59.9066 32.6146C60.4359 32.9512 63.3306 34.2883 64.7327 34.9242L62.3082 32.067L59.8836 30.7594C58.519 31.7925 56.613 34.8661 59.9066 38.8952C59.3854 39.2827 58.4395 40.0769 58.8246 40.1544C58.8674 40.163 58.9589 40.1828 59.0926 40.2118L59.0934 40.212C60.1647 40.4443 63.9387 41.2629 67.1043 41.6072C66.0073 41.6835 63.6628 42.0457 63.0608 42.8839C63.2821 42.9131 63.476 42.9398 63.6384 42.9632C66.1801 42.0185 68.0992 42.6987 68.741 43.1569C67.5857 42.9954 65.1596 43.0019 64.6974 44.3191C66.3662 44.8034 70.5126 45.5976 73.7474 44.9003Z" fill="url(#paint2_linear_149_2026)"/>
<path d="M55.4549 42.1883C55.0057 42.0915 54.5499 41.2972 56.3214 38.8952C56.8991 38.9275 58.2084 38.934 58.8246 38.7015C58.1828 38.1527 56.8991 36.8419 56.8991 35.9896C56.8991 35.9014 56.8964 35.8012 56.8935 35.6901C56.8611 34.4585 56.793 31.8748 59.8836 29.2097L62.3082 32.067L59.8836 30.7594C58.519 31.7925 56.613 34.8661 59.9066 38.8952C59.3854 39.2827 58.4395 40.0769 58.8246 40.1544C58.8674 40.163 58.9589 40.1828 59.0926 40.2118L59.0934 40.212C60.1647 40.4443 63.9387 41.2629 67.1043 41.6072C66.0073 41.6835 63.6628 42.0457 63.0608 42.8839C61.4447 42.6707 58.3679 42.3246 55.4549 42.1883Z" fill="#ECB772"/>
<path d="M78.85 12.4538C88.2209 23.7536 99.5301 52.4356 69.8001 76.7656C70.4098 75.0867 71.5908 71.2448 71.4368 69.3077L78.85 61.6562L74.4213 59.0411L72.4958 60.9782V59.0411L74.0362 57.0071L79.4277 59.9128L84.434 49.9367H78.85L77.6947 52.6487L76.5394 52.0675L78.85 46.5468L85.8782 46.8374V37.8298H80.8718V41.6072H79.1388L79.4277 35.9896H86.3595L83.375 26.0222L79.4277 27.5848L80.0053 30.7594H78.4649L77.4059 26.4009L82.8936 23.5921L78.85 16.4249V12.4538Z" fill="#7CDDF6"/>
<path d="M76.8282 13.2287L73.266 6.83623L77.6947 10.8073L76.8282 13.2287Z" fill="#7CDDF6"/>
<path fill-rule="evenodd" clip-rule="evenodd" d="M80.4867 22.6236L78.4649 19.5242C78.6189 22.2362 76.2185 24.2701 74.999 24.9481L74.0362 25.1903C74.0041 26.9959 74.1517 31.0678 74.999 32.9109C74.9206 33.3514 74.3251 34.4676 72.5707 35.4085C73.2197 37.7653 74.7679 43.0019 75.7692 45.094C76.012 45.8269 75.3974 46.1407 74.6049 46.5454C73.8265 46.9429 72.8766 47.428 72.3995 48.4839C71.501 49.0973 70.0119 50.6147 71.2442 51.777C72.4765 52.9392 72.8809 55.0055 72.9291 55.8933L73.7474 55.07L78.85 57.3946L81.8346 51.777L80.6793 51.2927L78.85 55.07L74.0362 52.6487L77.6947 44.3191L84.0489 45.8688L84.434 39.7669H82.4122V43.9317L77.6947 42.9632L77.6947 34.5368H84.0489L82.4122 28.4349H81.5457L82.4122 32.5997L77.4059 32.9109L75.3841 25.4324L80.4867 22.6236Z" fill="#4896DF"/>
<path d="M72.1107 56.7166C72.2391 56.223 72.0722 54.7184 70.3778 52.6487C68.6833 50.5789 70.3777 48.6869 71.4368 47.9996C71.4047 47.5799 71.4946 46.7018 72.1107 46.5468C72.8809 46.3531 75.0953 45.8688 74.3251 44.3191C73.5548 42.7694 71.1179 36.1626 71.8219 34.5368C72.4316 34.1308 73.6704 33.2374 73.7474 32.9109C73.8437 32.5028 73.0735 32.3091 73.0735 25.4324L74.0362 25.1903C74.0041 26.9959 74.1517 31.0678 74.999 32.9109C74.9206 33.3514 74.3251 34.4676 72.5707 35.4085C73.2197 37.7653 74.7679 43.0019 75.7692 45.094C76.012 45.8269 75.3974 46.1407 74.6049 46.5454C73.8265 46.9429 72.8766 47.428 72.3995 48.4839C71.501 49.0973 70.0119 50.6147 71.2442 51.777C72.4765 52.9392 72.8809 55.0055 72.9291 55.8933L72.1107 56.7166Z" fill="#2D62C0"/>
<path fill-rule="evenodd" clip-rule="evenodd" d="M66.623 37.1519L70.8591 34.5368C70.8591 34.3431 71.0517 34.0525 71.2442 33.8588L61.8092 29.5972L66.623 37.1519ZM70.474 34.0525L66.7192 36.2802L62.6756 30.372L70.474 34.0525Z" fill="#1E1E1E"/>
<defs>
<filter id="filter0_d_149_2026" x="289.953" y="44.9946" width="33.2578" height="23.7896" filterUnits="userSpaceOnUse" color-interpolation-filters="sRGB">
<feFlood flood-opacity="0" result="BackgroundImageFix"/>
<feColorMatrix in="SourceAlpha" type="matrix" values="0 0 0 0 0 0 0 0 0 0 0 0 0 0 0 0 0 0 127 0" result="hardAlpha"/>
<feOffset dy="2"/>
<feComposite in2="hardAlpha" operator="out"/>
<feColorMatrix type="matrix" values="0 0 0 0 0.0855903 0 0 0 0 0.497901 0 0 0 0 0.604167 0 0 0 1 0"/>
<feBlend mode="normal" in2="BackgroundImageFix" result="effect1_dropShadow_149_2026"/>
<feBlend mode="normal" in="SourceGraphic" in2="effect1_dropShadow_149_2026" result="shape"/>
</filter>
<linearGradient id="paint0_linear_149_2026" x1="44.5" y1="0" x2="44.5" y2="88" gradientUnits="userSpaceOnUse">
<stop offset="0.337641" stop-color="#FCCF92"/>
<stop offset="0.443314" stop-color="#FBC77E"/>
</linearGradient>
<linearGradient id="paint1_linear_149_2026" x1="44.5" y1="0" x2="44.5" y2="88" gradientUnits="userSpaceOnUse">
<stop offset="0.337641" stop-color="#FCCF92"/>
<stop offset="0.443314" stop-color="#FBC77E"/>
</linearGradient>
<linearGradient id="paint2_linear_149_2026" x1="44.5" y1="0" x2="44.5" y2="88" gradientUnits="userSpaceOnUse">
<stop offset="0.337641" stop-color="#FCCF92"/>
<stop offset="0.443314" stop-color="#FBC77E"/>
</linearGradient>
</defs>
</svg>
