<svg width="137" height="34" viewBox="0 0 137 34" fill="none" xmlns="http://www.w3.org/2000/svg">
<g clip-path="url(#clip0_1773_83974)">
<path d="M46.9564 15.9977L42.8054 16.3115L42.6057 3.34528C42.5915 2.64633 43.1335 2.0615 43.8325 2.00444C44.5314 1.94738 45.1448 2.44663 45.2446 3.14558L46.9564 15.9977Z" fill="url(#paint0_linear_1773_83974)"/>
<path d="M2.95312 15.9977L7.10403 16.3115L7.30373 3.34528C7.318 2.64633 6.77595 2.0615 6.077 2.00444C5.37805 1.94738 4.76469 2.44663 4.66484 3.14558L2.95312 15.9977Z" fill="url(#paint1_linear_1773_83974)"/>
<path d="M7.68845 27.5947C11.9347 27.5947 15.3769 24.1524 15.3769 19.9062C15.3769 15.66 11.9347 12.2178 7.68845 12.2178C3.44224 12.2178 0 15.66 0 19.9062C0 24.1524 3.44224 27.5947 7.68845 27.5947Z" fill="url(#paint2_linear_1773_83974)"/>
<path d="M42.5244 27.5947C46.7706 27.5947 50.2128 24.1524 50.2128 19.9062C50.2128 15.66 46.7706 12.2178 42.5244 12.2178C38.2782 12.2178 34.8359 15.66 34.8359 19.9062C34.8359 24.1524 38.2782 27.5947 42.5244 27.5947Z" fill="url(#paint3_linear_1773_83974)"/>
<path d="M32.3095 33.4999H17.8027C10.0144 33.4999 3.69531 27.1808 3.69531 19.3925C3.69531 11.6042 10.0144 5.28516 17.8027 5.28516H32.3095C40.0978 5.28516 46.4169 11.6042 46.4169 19.3925C46.4169 27.1808 40.0978 33.4999 32.3095 33.4999Z" fill="url(#paint4_linear_1773_83974)"/>
<path d="M32.0236 29.8192H18.0873C12.3246 29.8192 7.66016 25.1548 7.66016 19.392C7.66016 13.6293 12.3246 8.96484 18.0873 8.96484H32.0236C37.7863 8.96484 42.4507 13.6293 42.4507 19.392C42.4507 25.1548 37.7863 29.8192 32.0236 29.8192Z" fill="#030303"/>
<path d="M23.8656 19.2072C23.8656 22.5451 21.1554 24 17.8176 24C14.4797 24 11.7695 22.5451 11.7695 19.2072C11.7695 15.8694 14.4797 13.1592 17.8176 13.1592C21.1554 13.1592 23.8656 15.8551 23.8656 19.2072Z" fill="white"/>
<path d="M18.3846 23.1014H17.2291C16.7014 23.1014 16.2734 22.6735 16.2734 22.1457V16.2545C16.2734 15.7268 16.7014 15.2988 17.2291 15.2988H18.3846C18.9123 15.2988 19.3403 15.7268 19.3403 16.2545V22.1457C19.3403 22.6735 18.9123 23.1014 18.3846 23.1014Z" fill="#030303"/>
<path d="M38.9985 19.2072C38.9985 22.5451 36.2882 24 32.9504 24C29.6126 24 26.9023 22.5451 26.9023 19.2072C26.9023 15.8694 29.6126 13.1592 32.9504 13.1592C36.2882 13.1592 38.9985 15.8551 38.9985 19.2072Z" fill="white"/>
<path d="M33.5213 23.1014H32.3659C31.8381 23.1014 31.4102 22.6735 31.4102 22.1457V16.2545C31.4102 15.7268 31.8381 15.2988 32.3659 15.2988H33.5213C34.049 15.2988 34.477 15.7268 34.477 16.2545V22.1457C34.4912 22.6735 34.049 23.1014 33.5213 23.1014Z" fill="#030303"/>
<path d="M80.7833 9.70022H75.839V23.1426H72.5085V9.70022H67.6328V7.00488H80.7662V9.70022H80.7833Z" fill="black"/>
<path d="M82.0859 23.2455L89.4509 7.125H91.1333L98.4983 23.2455H96.6957L89.9316 8.12073H90.6183L83.8542 23.2455H82.0859ZM84.9873 18.9364L85.5023 17.563H94.8759L95.391 18.9364H84.9873Z" fill="black"/>
<path d="M107.08 6.9873V21.3567L105.244 19.5713H117.381V23.1765H103.012V6.9873H107.08Z" fill="black"/>
<path d="M121.762 22.9881V7.00488H123.633V21.8035H130.74V22.9881H121.762Z" fill="black"/>
<path d="M56.2109 19.7775C56.2109 19.4341 56.2281 19.1079 56.2796 18.7989C56.3139 18.507 56.3826 18.1809 56.4685 17.8375H58.3912V18.5585C58.3912 19.4341 58.5286 20.1037 58.7861 20.5672C59.0436 21.0307 59.4556 21.2711 60.0222 21.2711C60.9836 21.2711 61.4471 20.8075 61.4471 19.8633C61.4471 19.5028 61.3613 19.1251 61.2068 18.7131C61.0523 18.3182 60.7432 17.8203 60.2969 17.2538L57.7217 14.0263C57.2753 13.4426 56.9148 12.8589 56.6745 12.2751C56.417 11.6914 56.2968 11.0391 56.2968 10.318C56.2968 9.23645 56.6401 8.3609 57.3097 7.65702C57.9792 6.97031 58.9063 6.62695 60.0909 6.62695C61.0523 6.62695 61.8076 6.79863 62.357 7.14199C62.9064 7.48534 63.2841 7.9317 63.5072 8.44674C63.7304 8.97894 63.8506 9.51114 63.8506 10.0605C63.8506 10.4039 63.8163 10.7301 63.7648 11.0219C63.7133 11.3138 63.6446 11.6399 63.5759 12.0005H61.6703V11.2107C61.6703 10.3524 61.533 9.69998 61.2583 9.23645C60.9836 8.77292 60.5887 8.53258 60.0909 8.53258C59.6273 8.53258 59.284 8.65275 59.0436 8.91026C58.8033 9.16778 58.6831 9.51114 58.6831 9.94033C58.6831 10.3009 58.7518 10.6442 58.9063 10.9532C59.0608 11.2622 59.2496 11.5713 59.49 11.8803L62.357 15.5199C62.8892 16.2066 63.2841 16.8418 63.5588 17.4598C63.8334 18.0779 63.9708 18.7474 63.9708 19.5028C63.9708 20.6358 63.6103 21.5114 62.8892 22.181C62.1682 22.8333 61.2068 23.1595 60.0222 23.1595C59.0436 23.1595 58.2711 22.9878 57.7217 22.6617C57.1723 22.3355 56.7775 21.8891 56.5543 21.3741C56.3139 20.9105 56.2109 20.344 56.2109 19.7775Z" fill="black"/>
<path d="M56.5859 31.5599V27.4053H57.0666L58.9379 30.547H58.6804L60.5174 27.4053H60.9981V31.5599H60.4315V28.298H60.5689L58.9379 31.062H58.6632L57.0151 28.298H57.1696V31.5599H56.5859Z" fill="black"/>
<path d="M62.3906 31.5599L64.2791 27.4053H64.8628L66.7512 31.5599H66.1332L64.4508 27.7315H64.6911L63.0087 31.5599H62.3906ZM63.1975 30.5298L63.352 30.0491H65.6868L65.8585 30.5298H63.1975Z" fill="black"/>
<path d="M68.125 31.5599V27.4053H70.8547V27.9203H68.5542L68.6915 27.7658V31.5599H68.125Z" fill="black"/>
<path d="M70.8359 31.5599L72.7244 27.4053H73.3081L75.1966 31.5599H74.5785L72.8961 27.7315H73.1364L71.454 31.5599H70.8359ZM71.6428 30.5298L71.7973 30.0491H74.1322L74.3038 30.5298H71.6428Z" fill="black"/>
<path d="M76.1055 31.1142L76.3115 30.6679C76.5003 30.8052 76.6892 30.9254 76.9124 30.9941C77.1355 31.0627 77.3587 31.0971 77.5647 31.0971C77.7707 31.0971 77.9768 31.0627 78.1656 31.0112C78.3544 30.9597 78.4918 30.8567 78.612 30.7366C78.715 30.6164 78.7836 30.479 78.7836 30.2902C78.7836 30.0842 78.6978 29.9125 78.5261 29.8095C78.3544 29.7065 78.1141 29.6378 77.8051 29.6378H76.878V29.1571H77.7707C78.0283 29.1571 78.2514 29.1056 78.3888 28.9854C78.5433 28.8824 78.612 28.7279 78.612 28.5391C78.612 28.3846 78.5605 28.2644 78.4746 28.1614C78.3888 28.0584 78.2686 27.9897 78.1141 27.9382C77.9596 27.8867 77.7879 27.8524 77.5991 27.8524C77.4102 27.8524 77.2042 27.8695 77.0154 27.9382C76.8093 27.9897 76.6205 28.0755 76.4317 28.1957L76.2428 27.715C76.5003 27.5777 76.7578 27.4747 77.0325 27.4232C77.3072 27.3717 77.5819 27.3545 77.8394 27.3717C78.0969 27.3888 78.3373 27.4575 78.5433 27.5434C78.7493 27.6464 78.921 27.7665 79.0412 27.921C79.1613 28.0756 79.23 28.2644 79.23 28.4876C79.23 28.6936 79.1785 28.8653 79.0755 29.0198C78.9725 29.1743 78.8351 29.2945 78.6463 29.3631C78.4575 29.449 78.2514 29.4833 78.0111 29.4833L78.0283 29.3288C78.3029 29.3288 78.5433 29.3803 78.7493 29.4661C78.9553 29.552 79.1098 29.6893 79.23 29.8438C79.3502 29.9983 79.4017 30.1872 79.4017 30.4104C79.4017 30.6164 79.3502 30.7881 79.2472 30.9426C79.1442 31.0971 79.0068 31.2344 78.8351 31.3374C78.6635 31.4404 78.4575 31.5263 78.2343 31.5606C78.0111 31.6121 77.7707 31.6293 77.5304 31.6121C77.29 31.5949 77.0497 31.5434 76.8093 31.4748C76.569 31.4061 76.3115 31.2688 76.1055 31.1142Z" fill="black"/>
<path d="M81.0352 31.5599V27.4053H81.6189V30.6156L84.0739 27.4053H84.6232V31.5599H84.0395V28.3667L81.5674 31.5599H81.0352Z" fill="black"/>
<path d="M87.1595 31.5599H86.5586V27.4053H87.1595V31.5599ZM89.6144 29.7058H87.108V29.1907H89.6144V29.7058ZM89.5458 27.4053H90.1467V31.5599H89.5458V27.4053Z" fill="black"/>
<path d="M94.3555 31.5599V27.4053H97.0851V27.9203H94.8018L94.9392 27.7658V31.5599H94.3555Z" fill="black"/>
<path d="M97.0703 31.5599L98.9588 27.4053H99.5425L101.431 31.5599H100.813L99.1304 27.7315H99.3708L97.6883 31.5599H97.0703ZM97.8772 30.5298L98.0317 30.0491H100.367L100.538 30.5298H97.8772Z" fill="black"/>
<path d="M102.234 32.4698V31.0448H106.767V32.4698H106.217V31.5599H102.801V32.4698H102.234ZM105.565 31.2852V27.9203H103.745L103.711 28.7959C103.694 29.0877 103.676 29.3624 103.659 29.6371C103.625 29.9118 103.591 30.1521 103.556 30.3581C103.505 30.5813 103.436 30.753 103.35 30.8903C103.264 31.0277 103.161 31.1135 103.024 31.1478L102.389 31.0448C102.543 31.062 102.664 31.0105 102.767 30.8903C102.87 30.7702 102.938 30.6157 103.007 30.3925C103.058 30.1865 103.11 29.9289 103.127 29.6542C103.161 29.3796 103.179 29.0705 103.179 28.7444L103.213 27.4053H106.131V31.2852H105.565Z" fill="black"/>
<path d="M108.382 31.5599H107.695L109.189 29.2079L109.687 29.4997L108.382 31.5599ZM109.155 29.5512L107.781 27.4053H108.416L109.687 29.4654L109.155 29.5512ZM110.528 29.7401H109.309V29.2251H110.528V29.7401ZM110.94 31.5599H110.356V27.4053H110.94V31.5599ZM110.751 29.7401V29.2251H111.97V29.7401H110.751ZM112.125 29.5512L111.575 29.4654L112.846 27.4053H113.481L112.125 29.5512ZM112.88 31.5599L111.575 29.5169L112.073 29.2251L113.567 31.577H112.88V31.5599Z" fill="black"/>
<path d="M115.456 31.0448H117.877V31.5599H114.855V27.4053H117.791V27.9203H115.456V31.0448ZM115.405 29.1907H117.551V29.6886H115.405V29.1907Z" fill="black"/>
<path d="M120.314 31.5599V27.7658L120.469 27.9203H118.906V27.4053H122.34V27.9203H120.778L120.915 27.7658V31.5599H120.314Z" fill="black"/>
<path d="M123.695 31.5599V27.4053H124.279V31.5599H123.695Z" fill="black"/>
<path d="M126.234 31.5599V27.4053H128.02C128.466 27.4053 128.827 27.4911 129.084 27.68C129.342 27.8688 129.462 28.1263 129.462 28.4697C129.462 28.813 129.342 29.0705 129.101 29.2422C128.861 29.4139 128.535 29.5169 128.14 29.5169L128.243 29.3452C128.707 29.3452 129.067 29.4311 129.307 29.6199C129.548 29.8088 129.685 30.0663 129.685 30.4268C129.685 30.7873 129.548 31.062 129.29 31.268C129.033 31.474 128.638 31.5599 128.14 31.5599H126.234ZM126.818 29.2422H127.968C128.26 29.2422 128.483 29.1907 128.638 29.0705C128.792 28.9504 128.861 28.7959 128.861 28.5727C128.861 28.3495 128.792 28.1778 128.638 28.0576C128.483 27.9375 128.26 27.886 127.968 27.886H126.818V29.2422ZM126.818 31.0963H128.123C128.432 31.0963 128.672 31.0448 128.844 30.9247C128.998 30.8045 129.084 30.6328 129.084 30.3925C129.084 30.1521 128.998 29.9804 128.844 29.8603C128.689 29.7573 128.449 29.6886 128.123 29.6886H126.818V31.0963Z" fill="black"/>
</g>
<defs>
<linearGradient id="paint0_linear_1773_83974" x1="43.6522" y1="-0.270584" x2="44.4155" y2="9.95078" gradientUnits="userSpaceOnUse">
<stop offset="0.000475364" stop-color="#9DED76"/>
<stop offset="1" stop-color="#4BCF70"/>
</linearGradient>
<linearGradient id="paint1_linear_1773_83974" x1="6.29587" y1="-0.273039" x2="5.53257" y2="9.94832" gradientUnits="userSpaceOnUse">
<stop offset="0.000475364" stop-color="#9DED76"/>
<stop offset="1" stop-color="#4BCF70"/>
</linearGradient>
<linearGradient id="paint2_linear_1773_83974" x1="7.69454" y1="6.62065" x2="7.69454" y2="22.6369" gradientUnits="userSpaceOnUse">
<stop offset="0.000475364" stop-color="#9DED76"/>
<stop offset="1" stop-color="#4BCF70"/>
</linearGradient>
<linearGradient id="paint3_linear_1773_83974" x1="42.5183" y1="6.62065" x2="42.5183" y2="22.6369" gradientUnits="userSpaceOnUse">
<stop offset="0.000475364" stop-color="#9DED76"/>
<stop offset="1" stop-color="#4BCF70"/>
</linearGradient>
<linearGradient id="paint4_linear_1773_83974" x1="25.0565" y1="4.64596" x2="25.0565" y2="13.0974" gradientUnits="userSpaceOnUse">
<stop stop-color="#FCEC6E"/>
<stop offset="0.9995" stop-color="#C054FD"/>
</linearGradient>
<clipPath id="clip0_1773_83974">
<rect width="136.5" height="33" fill="white" transform="translate(0 0.5)"/>
</clipPath>
</defs>
</svg>
