<svg width="67" height="42" viewBox="0 0 67 42" fill="none" xmlns="http://www.w3.org/2000/svg">
<path d="M62.6098 18.6636L57.0752 19.082L56.809 1.79371C56.7899 0.861775 57.5127 0.081994 58.4446 0.00591777C59.3765 -0.0701584 60.1944 0.595508 60.3275 1.52744L62.6098 18.6636Z" fill="url(#paint0_linear_2119_1601)"/>
<path d="M3.9375 18.6636L9.47204 19.082L9.73831 1.79371C9.75733 0.861775 9.03461 0.081994 8.10267 0.00591777C7.17074 -0.0701584 6.35292 0.595508 6.21979 1.52744L3.9375 18.6636Z" fill="url(#paint1_linear_2119_1601)"/>
<path d="M10.2513 34.1261C15.9129 34.1261 20.5025 29.5364 20.5025 23.8748C20.5025 18.2132 15.9129 13.6235 10.2513 13.6235C4.58965 13.6235 0 18.2132 0 23.8748C0 29.5364 4.58965 34.1261 10.2513 34.1261Z" fill="url(#paint2_linear_2119_1601)"/>
<path d="M56.6966 34.1262C62.3582 34.1262 66.9478 29.5365 66.9478 23.8749C66.9478 18.2133 62.3582 13.6237 56.6966 13.6237C51.035 13.6237 46.4453 18.2133 46.4453 23.8749C46.4453 29.5365 51.035 34.1262 56.6966 34.1262Z" fill="url(#paint3_linear_2119_1601)"/>
<path d="M43.078 42H23.7356C13.3512 42 4.92578 33.5746 4.92578 23.1902C4.92578 12.8058 13.3512 4.38037 23.7356 4.38037H43.078C53.4624 4.38037 61.8878 12.8058 61.8878 23.1902C61.8878 33.5746 53.4624 42 43.078 42Z" fill="url(#paint4_linear_2119_1601)"/>
<path d="M42.6974 37.0931H24.1158C16.4321 37.0931 10.2129 30.8739 10.2129 23.1902C10.2129 15.5065 16.4321 9.28723 24.1158 9.28723H42.6974C50.3811 9.28723 56.6003 15.5065 56.6003 23.1902C56.6003 30.8739 50.3811 37.0931 42.6974 37.0931Z" fill="#030303"/>
<path d="M31.8196 22.9429C31.8196 27.3933 28.2059 29.3333 23.7555 29.3333C19.305 29.3333 15.6914 27.3933 15.6914 22.9429C15.6914 18.4924 19.305 14.8788 23.7555 14.8788C28.2059 14.8788 31.8196 18.4734 31.8196 22.9429Z" fill="white"/>
<path d="M24.516 28.1351H22.9754C22.2717 28.1351 21.7012 27.5645 21.7012 26.8608V19.006C21.7012 18.3023 22.2717 17.7317 22.9754 17.7317H24.516C25.2197 17.7317 25.7903 18.3023 25.7903 19.006V26.8608C25.7903 27.5645 25.2197 28.1351 24.516 28.1351Z" fill="#030303"/>
<path d="M51.9973 22.9429C51.9973 27.3933 48.3837 29.3333 43.9332 29.3333C39.4828 29.3333 35.8691 27.3933 35.8691 22.9429C35.8691 18.4924 39.4828 14.8788 43.9332 14.8788C48.3837 14.8788 51.9973 18.4734 51.9973 22.9429Z" fill="white"/>
<path d="M44.6937 28.1351H43.1532C42.4495 28.1351 41.8789 27.5645 41.8789 26.8608V19.006C41.8789 18.3023 42.4495 17.7317 43.1532 17.7317H44.6937C45.3974 17.7317 45.968 18.3023 45.968 19.006V26.8608C45.987 27.5645 45.3974 28.1351 44.6937 28.1351Z" fill="#030303"/>
<defs>
<linearGradient id="paint0_linear_2119_1601" x1="58.2042" y1="-3.02745" x2="59.2219" y2="10.601" gradientUnits="userSpaceOnUse">
<stop offset="0.000475364" stop-color="#9DED76"/>
<stop offset="1" stop-color="#4BCF70"/>
</linearGradient>
<linearGradient id="paint1_linear_2119_1601" x1="8.3945" y1="-3.03072" x2="7.37676" y2="10.5978" gradientUnits="userSpaceOnUse">
<stop offset="0.000475364" stop-color="#9DED76"/>
<stop offset="1" stop-color="#4BCF70"/>
</linearGradient>
<linearGradient id="paint2_linear_2119_1601" x1="10.2594" y1="6.16071" x2="10.2594" y2="27.5157" gradientUnits="userSpaceOnUse">
<stop offset="0.000475364" stop-color="#9DED76"/>
<stop offset="1" stop-color="#4BCF70"/>
</linearGradient>
<linearGradient id="paint3_linear_2119_1601" x1="56.6885" y1="6.16083" x2="56.6885" y2="27.5158" gradientUnits="userSpaceOnUse">
<stop offset="0.000475364" stop-color="#9DED76"/>
<stop offset="1" stop-color="#4BCF70"/>
</linearGradient>
<linearGradient id="paint4_linear_2119_1601" x1="33.4074" y1="3.52811" x2="33.4074" y2="14.7967" gradientUnits="userSpaceOnUse">
<stop stop-color="#FCEC6E"/>
<stop offset="0.9995" stop-color="#C054FD"/>
</linearGradient>
</defs>
</svg>
