<svg width="101" height="38" viewBox="0 0 101 38" fill="none" xmlns="http://www.w3.org/2000/svg">
<path d="M33.702 6.26566H27.1096V24.1888H22.6688V6.26566H16.168V2.67188H33.6791V6.26566H33.702Z" fill="black"/>
<path d="M35.4414 24.3261L45.2613 2.83203H47.5046L57.3246 24.3261H54.9211L45.9023 4.15967H46.8179L37.7991 24.3261H35.4414ZM39.3099 18.5806L39.9966 16.7494H52.4947L53.1814 18.5806H39.3099Z" fill="black"/>
<path d="M68.7688 2.64893V21.8082L66.3195 19.4276H82.503V24.2345H63.3438V2.64893H68.7688Z" fill="black"/>
<path d="M88.3418 23.9827V2.67175H90.8369V22.4032H100.313V23.9827H88.3418Z" fill="black"/>
<path d="M0.947266 19.7027C0.947266 19.2449 0.970162 18.81 1.03883 18.398C1.08461 18.0088 1.17617 17.5739 1.29062 17.1161H3.85434V18.0775C3.85434 19.2449 4.03746 20.1376 4.38082 20.7557C4.72418 21.3737 5.27355 21.6942 6.02893 21.6942C7.31079 21.6942 7.92883 21.0761 7.92883 19.8172C7.92883 19.3365 7.81438 18.8329 7.60837 18.2835C7.40236 17.757 6.99033 17.0932 6.39518 16.3378L2.96163 12.0344C2.36648 11.2562 1.88577 10.4779 1.56531 9.69963C1.22195 8.92136 1.06172 8.05152 1.06172 7.09013C1.06172 5.64804 1.51953 4.48063 2.41225 3.54212C3.30498 2.62651 4.54106 2.1687 6.1205 2.1687C7.40236 2.1687 8.40953 2.3976 9.14203 2.85541C9.87452 3.31322 10.3781 3.90837 10.6757 4.59508C10.9732 5.30468 11.1335 6.01428 11.1335 6.74677C11.1335 7.20458 11.0877 7.6395 11.019 8.02864C10.9504 8.41777 10.8588 8.85268 10.7672 9.33338H8.22641V8.28042C8.22641 7.13591 8.04328 6.26607 7.67704 5.64803C7.31079 5.02999 6.78432 4.70953 6.1205 4.70953C5.50246 4.70953 5.04464 4.86976 4.72418 5.21312C4.40371 5.55647 4.24348 6.01428 4.24348 6.58654C4.24348 7.06724 4.33504 7.52504 4.54105 7.93707C4.74707 8.34909 4.99887 8.76113 5.31933 9.17315L9.14203 14.0259C9.85163 14.9415 10.3781 15.7885 10.7444 16.6125C11.1106 17.4366 11.2937 18.3293 11.2937 19.3365C11.2937 20.8472 10.813 22.0146 9.85162 22.9074C8.89023 23.7772 7.60836 24.2121 6.02893 24.2121C4.72418 24.2121 3.69412 23.9832 2.96163 23.5483C2.22914 23.1134 1.70265 22.5182 1.40507 21.8315C1.08461 21.2135 0.947266 20.4581 0.947266 19.7027Z" fill="black"/>
<path d="M1.44922 35.4132V29.8738H2.09015L4.5852 34.0627H4.24185L6.69112 29.8738H7.33204V35.4132H6.57666V31.0641H6.75979L4.5852 34.7494H4.21896L2.02148 31.0641H2.2275V35.4132H1.44922Z" fill="black"/>
<path d="M9.18555 35.4132L11.7035 29.8738H12.4818L14.9997 35.4132H14.1757L11.9324 30.3087H12.2529L10.0096 35.4132H9.18555ZM10.2614 34.0398L10.4674 33.3989H13.5805L13.8094 34.0398H10.2614Z" fill="black"/>
<path d="M16.832 35.4132V29.8738H20.4716V30.5605H17.4043L17.5874 30.3545V35.4132H16.832Z" fill="black"/>
<path d="M20.4492 35.4132L22.9672 29.8738H23.7454L26.2634 35.4132H25.4393L23.1961 30.3087H23.5165L21.2733 35.4132H20.4492ZM21.5251 34.0398L21.7311 33.3989H24.8442L25.0731 34.0398H21.5251Z" fill="black"/>
<path d="M27.4746 34.8181L27.7493 34.223C28.0011 34.4061 28.2529 34.5664 28.5505 34.6579C28.848 34.7495 29.1456 34.7953 29.4203 34.7953C29.695 34.7953 29.9697 34.7495 30.2215 34.6808C30.4732 34.6121 30.6564 34.4748 30.8166 34.3146C30.9539 34.1543 31.0455 33.9712 31.0455 33.7194C31.0455 33.4447 30.931 33.2158 30.7021 33.0785C30.4732 32.9411 30.1528 32.8496 29.7408 32.8496H28.5047V32.2086H29.695C30.0383 32.2086 30.3359 32.14 30.519 31.9797C30.725 31.8424 30.8166 31.6364 30.8166 31.3846C30.8166 31.1786 30.7479 31.0183 30.6335 30.881C30.519 30.7437 30.3588 30.6521 30.1528 30.5834C29.9468 30.5148 29.7179 30.469 29.4661 30.469C29.2143 30.469 28.9396 30.4919 28.6878 30.5834C28.4131 30.6521 28.1613 30.7665 27.9095 30.9268L27.6577 30.2858C28.0011 30.1027 28.3444 29.9654 28.7107 29.8967C29.0769 29.828 29.4432 29.8052 29.7865 29.828C30.1299 29.8509 30.4504 29.9425 30.725 30.0569C30.9997 30.1943 31.2286 30.3545 31.3889 30.5605C31.5491 30.7665 31.6407 31.0183 31.6407 31.3159C31.6407 31.5906 31.572 31.8195 31.4346 32.0255C31.2973 32.2315 31.1142 32.3918 30.8624 32.4833C30.6106 32.5978 30.3359 32.6436 30.0154 32.6436L30.0383 32.4375C30.4046 32.4375 30.725 32.5062 30.9997 32.6207C31.2744 32.7351 31.4804 32.9182 31.6407 33.1243C31.8009 33.3303 31.8696 33.5821 31.8696 33.8796C31.8696 34.1543 31.8009 34.3832 31.6635 34.5892C31.5262 34.7952 31.3431 34.9784 31.1142 35.1157C30.8853 35.2531 30.6106 35.3675 30.313 35.4133C30.0154 35.482 29.695 35.5049 29.3745 35.482C29.054 35.4591 28.7336 35.3904 28.4131 35.2988C28.0926 35.2073 27.7493 35.0242 27.4746 34.8181Z" fill="black"/>
<path d="M34.0449 35.4132V29.8738H34.8232V34.1543L38.0965 29.8738H38.829V35.4132H38.0507V31.1556L34.7545 35.4132H34.0449Z" fill="black"/>
<path d="M42.2172 35.4132H41.416V29.8738H42.2172V35.4132ZM45.4905 32.9411H42.1485V32.2544H45.4905V32.9411ZM45.3989 29.8738H46.2001V35.4132H45.3989V29.8738Z" fill="black"/>
<path d="M51.8086 35.4132V29.8738H55.4481V30.5605H52.4037L52.5868 30.3545V35.4132H51.8086Z" fill="black"/>
<path d="M55.4258 35.4132L57.9437 29.8738H58.722L61.2399 35.4132H60.4159L58.1726 30.3087H58.4931L56.2498 35.4132H55.4258ZM56.5016 34.0398L56.7076 33.3989H59.8207L60.0497 34.0398H56.5016Z" fill="black"/>
<path d="M62.3145 36.6264V34.7265H68.3575V36.6264H67.625V35.4132H63.0698V36.6264H62.3145ZM66.7552 35.047V30.5605H64.3288L64.283 31.7279C64.2602 32.117 64.2373 32.4833 64.2144 32.8495C64.1686 33.2158 64.1228 33.5362 64.077 33.8109C64.0084 34.1085 63.9168 34.3374 63.8023 34.5205C63.6879 34.7036 63.5506 34.8181 63.3674 34.8639L62.5205 34.7265C62.7265 34.7494 62.8867 34.6808 63.0241 34.5205C63.1614 34.3603 63.253 34.1543 63.3445 33.8567C63.4132 33.582 63.4819 33.2387 63.5048 32.8724C63.5505 32.5062 63.5734 32.0941 63.5734 31.6592L63.6192 29.8738H67.5106V35.047H66.7552Z" fill="black"/>
<path d="M70.5094 35.4132H69.5938L71.5852 32.2773L72.249 32.6664L70.5094 35.4132ZM71.5394 32.7351L69.7082 29.8738H70.5551L72.249 32.6206L71.5394 32.7351ZM73.3707 32.9869H71.7454V32.3002H73.3707V32.9869ZM73.92 35.4132H73.1418V29.8738H73.92V35.4132ZM73.6682 32.9869V32.3002H75.2935V32.9869H73.6682ZM75.4995 32.7351L74.767 32.6206L76.4609 29.8738H77.3078L75.4995 32.7351ZM76.5066 35.4132L74.767 32.6893L75.4308 32.3002L77.4222 35.4361H76.5066V35.4132Z" fill="black"/>
<path d="M79.9398 34.7265H83.1674V35.4132H79.1387V29.8738H83.0529V30.5605H79.9398V34.7265ZM79.8712 32.2544H82.7325V32.9182H79.8712V32.2544Z" fill="black"/>
<path d="M86.418 35.4132V30.3545L86.624 30.5605H84.541V29.8738H89.1191V30.5605H87.036L87.2192 30.3545V35.4132H86.418Z" fill="black"/>
<path d="M90.9277 35.4132V29.8738H91.706V35.4132H90.9277Z" fill="black"/>
<path d="M94.3145 35.4132V29.8738H96.6951C97.2902 29.8738 97.7709 29.9882 98.1142 30.24C98.4576 30.4918 98.6179 30.8352 98.6179 31.293C98.6179 31.7508 98.4576 32.0941 98.1371 32.3231C97.8167 32.552 97.3818 32.6893 96.8553 32.6893L96.9926 32.4604C97.6107 32.4604 98.0914 32.5748 98.4118 32.8266C98.7323 33.0784 98.9154 33.4218 98.9154 33.9025C98.9154 34.3832 98.7323 34.7494 98.3889 35.0241C98.0456 35.2988 97.5191 35.4132 96.8553 35.4132H94.3145ZM95.0927 32.3231H96.6264C97.0155 32.3231 97.3131 32.2544 97.5191 32.0941C97.7251 31.9339 97.8167 31.7279 97.8167 31.4303C97.8167 31.1327 97.7251 30.9038 97.5191 30.7436C97.3131 30.5834 97.0155 30.5147 96.6264 30.5147H95.0927V32.3231ZM95.0927 34.7952H96.8324C97.2444 34.7952 97.5649 34.7265 97.7938 34.5663C97.9998 34.4061 98.1142 34.1772 98.1142 33.8567C98.1142 33.5362 97.9998 33.3073 97.7938 33.1471C97.5878 33.0098 97.2673 32.9182 96.8324 32.9182H95.0927V34.7952Z" fill="black"/>
</svg>
