<svg width="101" height="38" viewBox="0 0 101 38" fill="none" xmlns="http://www.w3.org/2000/svg">
<path d="M33.702 6.26615H27.1096V24.1893H22.6688V6.26615H16.168V2.67236H33.6791V6.26615H33.702Z" fill="white"/>
<path d="M35.4414 24.3266L45.2613 2.83252H47.5046L57.3246 24.3266H54.9211L45.9023 4.16016H46.8179L37.7991 24.3266H35.4414ZM39.3099 18.5811L39.9966 16.7499H52.4947L53.1814 18.5811H39.3099Z" fill="white"/>
<path d="M68.7649 2.64941V21.8086L66.3156 19.428H82.4991V24.235H63.3398V2.64941H68.7649Z" fill="white"/>
<path d="M88.3398 23.9828V2.67188H90.8349V22.4034H100.311V23.9828H88.3398Z" fill="white"/>
<path d="M0.945312 19.703C0.945312 19.2452 0.968208 18.8102 1.03688 18.3982C1.08266 18.0091 1.17422 17.5742 1.28867 17.1164H3.85239V18.0777C3.85239 19.2451 4.03551 20.1379 4.37887 20.7559C4.72222 21.374 5.27159 21.6944 6.02698 21.6944C7.30884 21.6944 7.92687 21.0764 7.92687 19.8174C7.92687 19.3367 7.81243 18.8331 7.60642 18.2838C7.4004 17.7573 6.98838 17.0935 6.39323 16.3381L2.95968 12.0347C2.36453 11.2564 1.88382 10.4781 1.56336 9.69987C1.22 8.9216 1.05976 8.05177 1.05976 7.09037C1.05976 5.64828 1.51758 4.48087 2.4103 3.54237C3.30303 2.62675 4.53911 2.16895 6.11854 2.16895C7.4004 2.16895 8.40758 2.39785 9.14007 2.85566C9.87256 3.31346 10.3761 3.90861 10.6737 4.59532C10.9713 5.30493 11.1315 6.01453 11.1315 6.74702C11.1315 7.20482 11.0857 7.63974 11.0171 8.02888C10.9484 8.41802 10.8568 8.85293 10.7653 9.33363H8.22446V8.28067C8.22446 7.13615 8.04133 6.26632 7.67508 5.64828C7.30884 5.03024 6.78236 4.70978 6.11854 4.70978C5.5005 4.70978 5.04269 4.87001 4.72222 5.21336C4.40176 5.55672 4.24153 6.01452 4.24153 6.58678C4.24153 7.06748 4.33309 7.52529 4.5391 7.93731C4.74512 8.34934 4.99691 8.76137 5.31738 9.1734L9.14007 14.0261C9.84967 14.9418 10.3762 15.7887 10.7424 16.6128C11.1086 17.4368 11.2918 18.3295 11.2918 19.3367C11.2918 20.8475 10.8111 22.0149 9.84967 22.9076C8.88827 23.7774 7.60641 24.2124 6.02698 24.2124C4.72222 24.2124 3.69217 23.9835 2.95968 23.5485C2.22718 23.1136 1.70069 22.5185 1.40312 21.8318C1.08265 21.2137 0.945312 20.4583 0.945312 19.703Z" fill="white"/>
<path d="M1.44531 35.4135V29.874H2.08624L4.58129 34.063H4.23794L6.68721 29.874H7.32814V35.4135H6.57276V31.0643H6.75588L4.58129 34.7497H4.21505L2.01757 31.0643H2.22359V35.4135H1.44531Z" fill="white"/>
<path d="M9.18359 35.4135L11.7015 29.874H12.4798L14.9978 35.4135H14.1737L11.9304 30.3089H12.2509L10.0077 35.4135H9.18359ZM10.2594 34.0401L10.4655 33.3991H13.5785L13.8074 34.0401H10.2594Z" fill="white"/>
<path d="M16.8281 35.4135V29.874H20.4677V30.5607H17.4004L17.5835 30.3547V35.4135H16.8281Z" fill="white"/>
<path d="M20.4453 35.4135L22.9633 29.874H23.7415L26.2595 35.4135H25.4354L23.1922 30.3089H23.5126L21.2694 35.4135H20.4453ZM21.5212 34.0401L21.7272 33.3991H24.8403L25.0692 34.0401H21.5212Z" fill="white"/>
<path d="M27.4727 34.8185L27.7473 34.2234C27.9991 34.4065 28.2509 34.5667 28.5485 34.6583C28.8461 34.7498 29.1437 34.7956 29.4183 34.7956C29.693 34.7956 29.9677 34.7498 30.2195 34.6812C30.4713 34.6125 30.6544 34.4752 30.8146 34.3149C30.952 34.1547 31.0435 33.9716 31.0435 33.7198C31.0435 33.4451 30.9291 33.2162 30.7002 33.0788C30.4713 32.9415 30.1508 32.8499 29.7388 32.8499H28.5027V32.209H29.693C30.0364 32.209 30.3339 32.1403 30.5171 31.9801C30.7231 31.8428 30.8146 31.6367 30.8146 31.385C30.8146 31.1789 30.746 31.0187 30.6315 30.8814C30.5171 30.744 30.3568 30.6525 30.1508 30.5838C29.9448 30.5151 29.7159 30.4693 29.4641 30.4693C29.2123 30.4693 28.9376 30.4922 28.6858 30.5838C28.4112 30.6525 28.1594 30.7669 27.9076 30.9271L27.6558 30.2862C27.9991 30.1031 28.3425 29.9657 28.7087 29.8971C29.075 29.8284 29.4412 29.8055 29.7846 29.8284C30.1279 29.8513 30.4484 29.9429 30.7231 30.0573C30.9978 30.1947 31.2267 30.3549 31.3869 30.5609C31.5471 30.7669 31.6387 31.0187 31.6387 31.3163C31.6387 31.591 31.57 31.8199 31.4327 32.0259C31.2953 32.2319 31.1122 32.3921 30.8604 32.4837C30.6086 32.5982 30.3339 32.6439 30.0135 32.6439L30.0364 32.4379C30.4026 32.4379 30.7231 32.5066 30.9978 32.621C31.2725 32.7355 31.4785 32.9186 31.6387 33.1246C31.7989 33.3306 31.8676 33.5824 31.8676 33.88C31.8676 34.1547 31.7989 34.3836 31.6616 34.5896C31.5242 34.7956 31.3411 34.9787 31.1122 35.1161C30.8833 35.2534 30.6086 35.3679 30.3111 35.4137C30.0135 35.4823 29.693 35.5052 29.3726 35.4823C29.0521 35.4594 28.7316 35.3908 28.4112 35.2992C28.0907 35.2076 27.7473 35.0245 27.4727 34.8185Z" fill="white"/>
<path d="M34.043 35.4135V29.874H34.8212V34.1545L38.0946 29.874H38.8271V35.4135H38.0488V31.1559L34.7526 35.4135H34.043Z" fill="white"/>
<path d="M42.2113 35.4135H41.4102V29.874H42.2113V35.4135ZM45.4846 32.9413H42.1426V32.2546H45.4846V32.9413ZM45.3931 29.874H46.1942V35.4135H45.3931V29.874Z" fill="white"/>
<path d="M51.8047 35.4135V29.874H55.4442V30.5607H52.3998L52.5829 30.3547V35.4135H51.8047Z" fill="white"/>
<path d="M55.4219 35.4135L57.9398 29.874H58.7181L61.236 35.4135H60.412L58.1687 30.3089H58.4892L56.2459 35.4135H55.4219ZM56.4977 34.0401L56.7037 33.3991H59.8168L60.0457 34.0401H56.4977Z" fill="white"/>
<path d="M62.3125 36.6267V34.7268H68.3556V36.6267H67.6231V35.4135H63.0679V36.6267H62.3125ZM66.7532 35.0472V30.5607H64.3269L64.2811 31.7281C64.2582 32.1173 64.2353 32.4835 64.2124 32.8498C64.1666 33.216 64.1209 33.5365 64.0751 33.8112C64.0064 34.1087 63.9148 34.3376 63.8004 34.5208C63.6859 34.7039 63.5486 34.8183 63.3655 34.8641L62.5185 34.7268C62.7245 34.7497 62.8848 34.681 63.0221 34.5208C63.1595 34.3605 63.251 34.1545 63.3426 33.857C63.4112 33.5823 63.4799 33.2389 63.5028 32.8727C63.5486 32.5064 63.5715 32.0944 63.5715 31.6595L63.6173 29.874H67.5086V35.0472H66.7532Z" fill="white"/>
<path d="M70.5055 35.4135H69.5898L71.5813 32.2775L72.2451 32.6667L70.5055 35.4135ZM71.5355 32.7353L69.7043 29.874H70.5512L72.2451 32.6209L71.5355 32.7353ZM73.3668 32.9871H71.7415V32.3004H73.3668V32.9871ZM73.9161 35.4135H73.1378V29.874H73.9161V35.4135ZM73.6643 32.9871V32.3004H75.2895V32.9871H73.6643ZM75.4956 32.7353L74.7631 32.6209L76.457 29.874H77.3039L75.4956 32.7353ZM76.5027 35.4135L74.7631 32.6895L75.4269 32.3004L77.4183 35.4364H76.5027V35.4135Z" fill="white"/>
<path d="M79.9379 34.7268H83.1654V35.4135H79.1367V29.874H83.051V30.5607H79.9379V34.7268ZM79.8692 32.2546H82.7305V32.9184H79.8692V32.2546Z" fill="white"/>
<path d="M86.4161 35.4135V30.3547L86.6221 30.5607H84.5391V29.874H89.1171V30.5607H87.0341L87.2172 30.3547V35.4135H86.4161Z" fill="white"/>
<path d="M90.9258 35.4135V29.874H91.7041V35.4135H90.9258Z" fill="white"/>
<path d="M94.3125 35.4135V29.874H96.6931C97.2883 29.874 97.7689 29.9885 98.1123 30.2403C98.4556 30.4921 98.6159 30.8354 98.6159 31.2932C98.6159 31.751 98.4556 32.0944 98.1352 32.3233C97.8147 32.5522 97.3798 32.6895 96.8533 32.6895L96.9907 32.4606C97.6087 32.4606 98.0894 32.5751 98.4099 32.8269C98.7303 33.0787 98.9135 33.422 98.9135 33.9027C98.9135 34.3834 98.7304 34.7497 98.387 35.0244C98.0436 35.299 97.5171 35.4135 96.8533 35.4135H94.3125ZM95.0908 32.3233H96.6244C97.0136 32.3233 97.3111 32.2546 97.5172 32.0944C97.7232 31.9342 97.8147 31.7281 97.8147 31.4306C97.8147 31.133 97.7232 30.9041 97.5172 30.7439C97.3111 30.5836 97.0136 30.515 96.6244 30.515H95.0908V32.3233ZM95.0908 34.7955H96.8304C97.2425 34.7955 97.5629 34.7268 97.7918 34.5665C97.9978 34.4063 98.1123 34.1774 98.1123 33.857C98.1123 33.5365 97.9978 33.3076 97.7918 33.1473C97.5858 33.01 97.2654 32.9184 96.8304 32.9184H95.0908V34.7955Z" fill="white"/>
</svg>
