<svg width="108" height="48" viewBox="0 0 108 48" fill="none" xmlns="http://www.w3.org/2000/svg">
<path d="M13.3451 28.629C12.8464 28.3117 12.3095 28.0593 11.7473 27.8778C11.1844 27.6981 10.5969 27.6078 10.0061 27.6099C9.63932 27.6066 9.27357 27.6483 8.91697 27.7341C8.61592 27.8043 8.32915 27.9258 8.06917 28.0933C7.84675 28.237 7.6595 28.429 7.52137 28.6551C7.38965 28.8784 7.32195 29.1339 7.32572 29.3932C7.31612 29.623 7.37516 29.8506 7.49528 30.0465C7.62011 30.232 7.78793 30.3844 7.98439 30.4908C8.22871 30.6247 8.48966 30.7258 8.76045 30.7912C9.10223 30.8772 9.44837 30.9448 9.79736 30.9937L10.6191 31.1047C11.0962 31.1716 11.5673 31.2765 12.0277 31.4184C12.4653 31.5499 12.8792 31.7506 13.2537 32.0128C13.6105 32.2644 13.9068 32.5924 14.1211 32.9731C14.3497 33.405 14.462 33.889 14.4472 34.3776C14.4586 34.9374 14.3261 35.4907 14.0624 35.9845C13.8087 36.4491 13.4544 36.8509 13.0255 37.1604C12.5657 37.4901 12.0513 37.7356 11.506 37.8855C10.9097 38.0535 10.2929 38.137 9.67346 38.1337C9.254 38.1316 8.83535 38.0967 8.42133 38.0292C7.97955 37.9624 7.54352 37.8619 7.11704 37.7287C6.71262 37.5936 6.32 37.4254 5.94317 37.2256C5.57081 37.0351 5.22267 36.8005 4.90625 36.5268L5.94317 34.9915C6.16738 35.1943 6.41472 35.3697 6.68009 35.5141C7.29076 35.8491 7.95141 36.0829 8.63654 36.2067C8.98281 36.2713 9.33427 36.304 9.68649 36.3046C10.0504 36.3093 10.4137 36.2721 10.7691 36.1936C11.0791 36.1258 11.3763 36.009 11.6495 35.8474C11.8856 35.7082 12.0882 35.5186 12.2429 35.2921C12.3918 35.0703 12.4692 34.8081 12.4646 34.5409C12.4739 34.0887 12.2191 33.6727 11.8125 33.4761C11.171 33.1768 10.4826 32.9913 9.7778 32.9274L8.85175 32.7967C8.40844 32.7351 7.97178 32.6323 7.54745 32.4897C7.13993 32.3553 6.75834 32.152 6.41924 31.8886C6.08376 31.6272 5.80991 31.2948 5.6171 30.9153C5.3969 30.478 5.28506 29.9941 5.29102 29.5044C5.28121 28.9525 5.40897 28.4068 5.66274 27.9169C5.90735 27.4558 6.2529 27.0561 6.67358 26.7477C7.12421 26.4201 7.6301 26.1768 8.167 26.029C8.76087 25.8601 9.37568 25.7766 9.993 25.7808C10.7911 25.7704 11.5858 25.8873 12.3473 26.1271C13.0385 26.3515 13.6965 26.6679 14.3037 27.0678L13.3451 28.629ZM19.8339 29.5435C20.3695 29.5386 20.9004 29.6454 21.3925 29.857C21.8553 30.0577 22.2691 30.3562 22.6056 30.7324C22.9528 31.1283 23.2207 31.5873 23.3947 32.0847C23.5912 32.6448 23.6883 33.2352 23.6817 33.8289V34.1685V34.4952H17.6296C17.6733 34.8279 17.7795 35.1493 17.9427 35.4423C18.0835 35.694 18.2718 35.9158 18.4971 36.0955C18.7128 36.2641 18.9585 36.3904 19.221 36.468C19.492 36.5478 19.7731 36.5874 20.0557 36.5856C20.4747 36.5823 20.8897 36.5049 21.2817 36.3568C21.6912 36.2028 22.0723 35.9821 22.41 35.7036L23.2903 36.9775C22.8297 37.3824 22.29 37.6872 21.7056 37.8724C21.1324 38.0449 20.5368 38.1307 19.9383 38.1271C19.363 38.1334 18.7918 38.0292 18.2557 37.8202C17.7658 37.6239 17.3217 37.3281 16.9515 36.9513C16.5745 36.5649 16.2814 36.1045 16.0906 35.5992C15.88 35.0353 15.7761 34.4373 15.7842 33.8353C15.7779 33.2406 15.8794 32.6496 16.084 32.0911C16.2682 31.5867 16.5522 31.1245 16.9188 30.7324C17.2863 30.3508 17.731 30.0523 18.2232 29.857C18.7341 29.6463 19.2813 29.5375 19.8339 29.5369V29.5435ZM19.8013 31.131C19.5123 31.1254 19.2247 31.1742 18.9535 31.2747C18.7096 31.3641 18.4873 31.5043 18.3013 31.6861C18.1174 31.8756 17.9694 32.097 17.8645 32.3394C17.7466 32.5968 17.6655 32.8695 17.6232 33.1494H21.8491C21.7986 32.5972 21.5697 32.0766 21.1969 31.6666C20.8243 31.2996 20.3169 31.1034 19.7949 31.1244L19.8013 31.131ZM29.251 29.5435C29.8365 29.538 30.4173 29.649 30.9595 29.8702C31.4658 30.0856 31.9129 30.4194 32.2639 30.8434L31.1226 32.0586C30.8602 31.7931 30.5562 31.5724 30.2227 31.4053C29.8906 31.2567 29.5299 31.183 29.1661 31.1898C28.8391 31.1863 28.515 31.2508 28.2141 31.3792C27.9271 31.5141 27.6717 31.7077 27.4641 31.9474C27.2421 32.1856 27.0693 32.4654 26.9554 32.7706C26.7111 33.457 26.7111 34.207 26.9554 34.8936C27.0685 35.2012 27.2413 35.4831 27.4641 35.7232C27.6789 35.9526 27.9385 36.135 28.2271 36.2589C28.528 36.3873 28.8522 36.4518 29.1792 36.4483C29.5633 36.4491 29.9425 36.3619 30.2878 36.1936C30.6175 36.0391 30.9211 35.8342 31.1878 35.5861L32.29 36.8469C31.9239 37.2715 31.4638 37.6048 30.9466 37.8202C30.4068 38.0421 29.8279 38.1532 29.2444 38.1468C28.6417 38.1555 28.0432 38.0445 27.4836 37.8202C26.4559 37.4085 25.6503 36.5802 25.2663 35.5404C24.8575 34.4406 24.8575 33.2302 25.2663 32.1304C25.6504 31.1019 26.4477 30.2818 27.4641 29.8702C28.0294 29.6412 28.6347 29.5278 29.2444 29.5369L29.251 29.5435ZM41.4135 34.4559C41.4286 35.0305 41.3173 35.6016 41.0875 36.1282C40.8922 36.5671 40.6027 36.9574 40.2397 37.2714C39.8859 37.5688 39.4753 37.791 39.0331 37.9246C38.1237 38.2036 37.1515 38.2036 36.2419 37.9246C35.7979 37.7908 35.3854 37.5687 35.029 37.2714C34.6636 36.9595 34.3737 36.5686 34.1812 36.1282C33.9556 35.6004 33.8466 35.0299 33.8617 34.4559V29.7526H35.6485V34.3252C35.6395 34.6647 35.6902 35.0031 35.7985 35.3248C35.8888 35.5717 36.0337 35.7951 36.2224 35.9781C36.4074 36.1521 36.6309 36.2796 36.8746 36.3504C37.3851 36.5037 37.9293 36.5037 38.4397 36.3504C38.6835 36.2796 38.907 36.1521 39.0919 35.9781C39.2806 35.7951 39.4255 35.5717 39.5158 35.3248C39.6264 35.0035 39.6793 34.6651 39.6723 34.3252V29.7526H41.4592L41.4135 34.4559ZM47.9025 29.5435C48.1492 29.5425 48.3958 29.5621 48.6393 29.6023C48.8623 29.638 49.0809 29.6971 49.2915 29.7787L48.8676 31.5424C48.6613 31.4389 48.4419 31.3642 48.2154 31.3204C47.986 31.2708 47.7523 31.2444 47.5176 31.242C47.25 31.2387 46.9842 31.2874 46.735 31.3857C46.5012 31.4787 46.2915 31.6239 46.122 31.8103C45.9442 32.0119 45.8089 32.2474 45.7242 32.5027C45.6241 32.8015 45.5755 33.1152 45.5808 33.4303V37.9182H43.7677V29.7526H45.5286V30.6736C45.7797 30.2983 46.1295 30 46.5394 29.8114C46.9668 29.6238 47.4294 29.5302 47.8959 29.5369L47.9025 29.5435ZM53.8696 29.5435C54.4053 29.5386 54.936 29.6454 55.4283 29.857C55.8909 30.0577 56.3047 30.3562 56.6412 30.7324C57 31.1256 57.2791 31.5849 57.4629 32.0847C57.6592 32.6449 57.7564 33.2352 57.7498 33.8289V34.1685V34.4952H51.6588C51.7024 34.8279 51.8086 35.1493 51.9718 35.4423C52.1127 35.694 52.3009 35.9158 52.5261 36.0955C52.7419 36.2641 52.9875 36.3904 53.25 36.468C53.521 36.5478 53.8023 36.5874 54.0847 36.5856C54.5037 36.5823 54.9187 36.5049 55.3108 36.3568C55.7202 36.2028 56.1015 35.9821 56.439 35.7036L57.3259 36.9709C56.8654 37.3761 56.3257 37.6809 55.7412 37.8658C55.168 38.0383 54.5724 38.1243 53.9739 38.1207C53.3986 38.1268 52.8276 38.0226 52.2913 37.8136C51.8014 37.6173 51.3573 37.3215 50.9871 36.9448C50.6101 36.5583 50.317 36.0979 50.1262 35.5926C49.9156 35.0289 49.8117 34.4307 49.8198 33.8289C49.8135 33.234 49.9152 32.6431 50.1198 32.0847C50.2999 31.5811 50.5794 31.1191 50.9415 30.726C51.3088 30.3442 51.7536 30.0459 52.2457 29.8506C52.7592 29.6412 53.3086 29.5345 53.863 29.5369L53.8696 29.5435ZM53.8369 31.131C53.5479 31.1254 53.2603 31.1742 52.9891 31.2747C52.7452 31.3641 52.5229 31.5043 52.3371 31.6861C52.153 31.8756 52.005 32.097 51.9001 32.3394C51.7824 32.5968 51.7011 32.8695 51.6588 33.1494H55.8978C55.8472 32.5972 55.6183 32.0766 55.2456 31.6666C54.87 31.2961 54.357 31.0996 53.8305 31.1244L53.8369 31.131ZM65.3865 25.7416C65.9022 25.7398 66.4162 25.7968 66.919 25.9114C67.3963 26.02 67.8583 26.1868 68.2951 26.4079C68.7127 26.6197 69.1008 26.8855 69.4494 27.1984C69.7894 27.5011 70.0818 27.8535 70.3168 28.2436L68.7124 29.3149C68.3545 28.7865 67.8733 28.3537 67.3104 28.0542C66.7075 27.7377 66.0342 27.5803 65.3539 27.5968C64.7781 27.5908 64.2066 27.6973 63.6714 27.9105C63.1809 28.1148 62.7372 28.417 62.3671 28.7988C61.9846 29.1922 61.6852 29.6589 61.4866 30.1707C61.0609 31.3078 61.0609 32.5609 61.4866 33.6982C61.6852 34.21 61.9846 34.6765 62.3671 35.07C62.7372 35.4517 63.1809 35.754 63.6714 35.9584C64.2066 36.1716 64.7781 36.2781 65.3539 36.2719C66.6783 36.301 67.9275 35.6571 68.6733 34.5604L70.2385 35.7102C69.984 36.0837 69.6813 36.4219 69.3385 36.7162C69.0021 37.0216 68.6298 37.2847 68.2299 37.5001C67.803 37.7146 67.3519 37.8769 66.8865 37.9834C65.547 38.2803 64.1499 38.1757 62.8692 37.683C61.3752 37.0974 60.193 35.9134 59.6085 34.4167C58.9969 32.8275 58.9969 31.0674 59.6085 29.4783C60.193 27.9816 61.3752 26.7975 62.8692 26.212C63.67 25.8936 64.5249 25.7338 65.3865 25.7416ZM75.886 29.5174C76.4844 29.5105 77.0782 29.6215 77.6338 29.844C78.1512 30.0508 78.6231 30.357 79.023 30.7455C79.4169 31.1325 79.7295 31.5945 79.9425 32.1043C80.3848 33.1977 80.3848 34.4208 79.9425 35.5141C79.7295 36.024 79.4169 36.486 79.023 36.873C78.6231 37.2615 78.1512 37.5676 77.6338 37.7745C76.5096 38.212 75.2626 38.212 74.1384 37.7745C73.6204 37.5688 73.1482 37.2625 72.7492 36.873C72.3517 36.495 72.0325 36.0421 71.8102 35.5404C71.3679 34.4469 71.3679 33.2239 71.8102 32.1304C72.0217 31.6215 72.3321 31.1596 72.7231 30.7716C73.1221 30.382 73.5943 30.0757 74.1123 29.8702C74.6775 29.6412 75.2829 29.5278 75.8926 29.5369L75.886 29.5174ZM75.886 31.1962C75.54 31.1926 75.1966 31.257 74.8753 31.3857C74.572 31.5069 74.2968 31.6893 74.0667 31.9213C73.836 32.1577 73.6542 32.4375 73.5318 32.7444C73.2709 33.4279 73.2709 34.1839 73.5318 34.8675C73.6542 35.1745 73.836 35.4541 74.0667 35.6905C74.2969 35.9224 74.5722 36.1047 74.8753 36.2262C75.5251 36.4812 76.2471 36.4812 76.8969 36.2262C77.5128 35.9844 78.003 35.5005 78.2533 34.8871C78.5143 34.2036 78.5143 33.4476 78.2533 32.764C78.13 32.4561 77.946 32.176 77.7121 31.941C77.4792 31.7092 77.2018 31.5271 76.8969 31.4053C76.5777 31.2774 76.2364 31.213 75.8926 31.2159L75.886 31.1962ZM85.6227 29.5174C86.6209 29.4787 87.576 29.9266 88.1856 30.7194V25.624H89.9659V37.9116H88.1856V36.9318C87.9013 37.2955 87.5407 37.5921 87.1291 37.8006C86.6602 38.0284 86.1436 38.1405 85.6227 38.1271C84.535 38.1376 83.4909 37.7008 82.7337 36.9187C82.3555 36.5218 82.0606 36.0532 81.8664 35.5404C81.4471 34.4289 81.4471 33.2026 81.8664 32.0911C82.0632 31.5855 82.3579 31.1236 82.7337 30.7324C83.4909 29.9503 84.535 29.5135 85.6227 29.5239V29.5174ZM85.8379 31.1962C85.4833 31.1907 85.1319 31.2619 84.8074 31.4053C84.5148 31.5369 84.2527 31.7283 84.0379 31.9671C83.8249 32.2096 83.661 32.4913 83.5554 32.7967C83.3287 33.4527 83.3287 34.1658 83.5554 34.8217C83.661 35.1271 83.8249 35.4088 84.0379 35.6514C84.2527 35.8902 84.5148 36.0816 84.8074 36.2131C85.4586 36.4846 86.191 36.4846 86.8422 36.2131C87.136 36.0859 87.4002 35.8992 87.6183 35.6644C87.8307 35.4387 87.9987 35.175 88.1139 34.8871C88.3522 34.2153 88.3522 33.4816 88.1139 32.8098C88.0018 32.5051 87.8313 32.2255 87.6117 31.9867C87.3933 31.7524 87.1291 31.5657 86.8357 31.4379C86.5222 31.2949 86.1823 31.2192 85.8379 31.2159V31.1962ZM95.881 29.5174C96.4167 29.5123 96.9475 29.6191 97.4397 29.8309C97.9024 30.0313 98.3163 30.33 98.6526 30.7063C98.9998 31.102 99.2679 31.5612 99.4417 32.0586C99.6384 32.6187 99.7354 33.2089 99.7287 33.8026V34.1424V34.4691H93.7093C93.7519 34.8019 93.8583 35.1235 94.0224 35.4162C94.1631 35.668 94.3513 35.8899 94.5766 36.0694C94.7923 36.2382 95.038 36.3645 95.3005 36.4419C95.5716 36.5215 95.8528 36.5611 96.1353 36.5593C96.5542 36.5562 96.9693 36.4788 97.3614 36.3307C97.7707 36.1767 98.1519 35.9559 98.4895 35.6775L99.3765 36.9448C98.9157 37.3497 98.3761 37.6543 97.7917 37.8397C97.2186 38.0124 96.6229 38.0982 96.0244 38.0946C95.4492 38.1007 94.878 37.9965 94.3419 37.7875C93.852 37.5912 93.4078 37.2954 93.0376 36.9187C92.6607 36.5322 92.3676 36.0718 92.1768 35.5665C91.9662 35.0026 91.8622 34.4046 91.8703 33.8026C91.864 33.2079 91.9657 32.6169 92.1702 32.0586C92.3545 31.554 92.6385 31.092 93.0049 30.6997C93.3724 30.3181 93.8172 30.0196 94.3093 29.8245C94.8103 29.6298 95.3436 29.5323 95.881 29.5369V29.5174ZM100.583 37.8921V37.5001H100.746V37.4151H100.322V37.5001H100.505V37.9116L100.583 37.8921ZM101.398 37.8921V37.3956H101.268L101.118 37.7352L100.968 37.3956H100.837V37.8921H100.929V37.5196L101.066 37.8397H101.157L101.294 37.5196V37.8921H101.398ZM95.8483 31.1047C95.5593 31.0992 95.2717 31.1479 95.0005 31.2486C94.7566 31.338 94.5343 31.4782 94.3485 31.66C94.1644 31.8495 94.0164 32.0709 93.9115 32.3133C93.7938 32.5707 93.7126 32.8434 93.6702 33.1233H97.8961C97.8498 32.5642 97.6206 32.0361 97.2439 31.6209C96.8655 31.2723 96.3616 31.093 95.8483 31.1244V31.1047Z" fill="url(#paint0_linear_2211_27128)"/>
<path d="M19.1945 21.0839H17.1989V10.9064L13.5925 19.8623H11.4926L7.89923 11.0043V21.0839H5.89062V8.71799H8.9492L12.5425 17.5564L16.1294 8.71799H19.1879L19.1945 21.0839ZM29.694 21.0839H27.8484V20.0714C27.5537 20.4487 27.1796 20.7565 26.7528 20.9729C26.2673 21.2068 25.7329 21.3211 25.1942 21.3061C24.0649 21.3181 22.9801 20.8645 22.1944 20.0518C21.8043 19.6456 21.4985 19.166 21.2943 18.6407C20.8592 17.4874 20.8592 16.2145 21.2943 15.061C21.4986 14.5359 21.8045 14.0564 22.1944 13.65C22.9801 12.8372 24.0649 12.3837 25.1942 12.3958C25.7335 12.3815 26.2682 12.498 26.7528 12.7355C27.1794 12.9549 27.5532 13.2648 27.8484 13.6435V12.6244H29.694V21.0839ZM25.4095 14.1399C25.0415 14.1336 24.6767 14.2072 24.34 14.3555C24.0373 14.492 23.7663 14.6899 23.5443 14.9369C23.3231 15.1892 23.1527 15.482 23.0422 15.7991C22.8067 16.4804 22.8067 17.2213 23.0422 17.9026C23.1537 18.2206 23.3265 18.5135 23.5508 18.7649C23.7726 19.0121 24.0437 19.2101 24.3464 19.3463C25.0224 19.6294 25.7834 19.6294 26.4594 19.3463C26.7629 19.2139 27.0359 19.0205 27.2615 18.778C27.4889 18.5291 27.6661 18.2386 27.7832 17.9222C28.03 17.2249 28.03 16.4638 27.7832 15.7664C27.6661 15.4502 27.4889 15.1595 27.2615 14.9108C27.0356 14.6685 26.7626 14.4751 26.4594 14.3424C26.1278 14.201 25.7698 14.1319 25.4095 14.1399ZM38.1524 14.7409C37.9981 14.6521 37.8392 14.5714 37.6763 14.4992C37.4642 14.4068 37.2464 14.3283 37.0243 14.264C36.7843 14.1914 36.5403 14.1325 36.2937 14.0877C36.0356 14.04 35.7737 14.0159 35.5112 14.0158C35.0988 13.9922 34.6886 14.0899 34.3308 14.2967C34.0712 14.4484 33.9121 14.7273 33.9134 15.0283C33.9088 15.1612 33.9476 15.2921 34.0243 15.4007C34.102 15.5048 34.2023 15.5897 34.3178 15.649C34.458 15.7204 34.6071 15.773 34.7612 15.8057C34.9308 15.8449 35.1134 15.8797 35.309 15.9103L36.1829 16.0409C36.9598 16.1215 37.703 16.4003 38.3415 16.8509C38.8776 17.2495 39.1828 17.8876 39.1567 18.5558C39.1606 18.9437 39.071 19.327 38.8958 19.6729C38.7127 20.0069 38.4563 20.2951 38.146 20.5156C37.7817 20.7773 37.3729 20.9699 36.9394 21.0839C36.4077 21.2258 35.8592 21.2941 35.309 21.2864C35.0917 21.2864 34.8395 21.2734 34.5526 21.2473C34.2427 21.2177 33.9353 21.1654 33.633 21.0904C33.2943 21.0055 32.963 20.8942 32.6417 20.7572C32.3009 20.6119 31.979 20.4254 31.6831 20.2021L32.5374 18.8171C32.6949 18.9392 32.8605 19.0505 33.0331 19.1503C33.2264 19.2602 33.4293 19.3522 33.6395 19.4246C33.8839 19.5086 34.1347 19.5721 34.3895 19.6141C34.6978 19.6643 35.0098 19.6883 35.3221 19.6859C35.8163 19.714 36.3095 19.6174 36.7568 19.4051C37.0504 19.2695 37.2405 18.9776 37.2459 18.6538C37.2414 18.4073 37.1077 18.1814 36.8938 18.0593C36.5522 17.8691 36.1745 17.7533 35.7851 17.7197L34.9048 17.6021C34.1276 17.539 33.3851 17.2532 32.7656 16.7791C32.2798 16.3679 32.0083 15.7567 32.0287 15.1198C32.0234 14.7269 32.1082 14.338 32.2766 13.9832C32.438 13.6464 32.6773 13.3531 32.9744 13.1274C33.3037 12.883 33.675 12.7014 34.07 12.5917C34.5432 12.4594 35.033 12.3957 35.5243 12.4023C36.1579 12.3987 36.7892 12.4777 37.4024 12.6375C37.9484 12.7732 38.47 12.9936 38.948 13.2907L38.1524 14.7409ZM46.9043 14.2967H43.6435V17.981C43.643 18.2302 43.685 18.4775 43.7673 18.7126C43.8274 18.8944 43.9251 19.0615 44.0543 19.2026C44.1716 19.3283 44.3168 19.4246 44.4782 19.4834C44.6475 19.5449 44.8264 19.5758 45.0065 19.5749C45.3078 19.5725 45.6062 19.5149 45.8868 19.4051C46.1736 19.298 46.4489 19.1623 46.7085 19.0001L47.439 20.4764C47.0798 20.717 46.6948 20.9164 46.2913 21.0709C45.8303 21.242 45.3416 21.3263 44.8499 21.3191C44.0282 21.367 43.2227 21.0767 42.6196 20.5156C42.0266 19.8262 41.7353 18.9269 41.8109 18.0202V14.3032H40.1349V12.6244H41.8109V10.0637H43.6631V12.6244H46.9238L46.9043 14.2967ZM52.5779 12.3958C53.1334 12.3887 53.6841 12.4977 54.1952 12.7158C54.6755 12.9237 55.1049 13.2335 55.4538 13.6239C55.8152 14.0348 56.0942 14.5117 56.2756 15.0283C56.4781 15.6097 56.5773 16.2221 56.5691 16.8379V17.1905V17.5237H50.2889C50.3347 17.8681 50.4454 18.2006 50.615 18.5036C50.7632 18.7558 50.958 18.9775 51.1889 19.1569C51.4125 19.331 51.667 19.4618 51.9388 19.5422C52.2203 19.6259 52.5125 19.6678 52.8062 19.6664C53.2515 19.6675 53.6934 19.5878 54.1105 19.4312C54.5325 19.2788 54.9269 19.058 55.2778 18.778L56.1974 20.0845C55.7193 20.5039 55.1598 20.8198 54.554 21.0121C53.9597 21.1921 53.3422 21.2822 52.7215 21.2798C52.1148 21.301 51.5102 21.2033 50.9411 20.9924C50.4268 20.791 49.9602 20.4839 49.5714 20.0909C49.1802 19.6895 48.8761 19.2113 48.6781 18.6865C48.4592 18.1019 48.3507 17.4817 48.3586 16.8574C48.3507 16.2407 48.4547 15.6277 48.665 15.0479C48.8564 14.5239 49.1515 14.044 49.5325 13.6369C49.8992 13.2465 50.3435 12.9372 50.8367 12.7289C51.3889 12.5026 51.9813 12.3915 52.5779 12.4023V12.3958ZM52.5453 14.0419C52.245 14.0364 51.9464 14.0874 51.6649 14.1922C51.4201 14.2892 51.1981 14.436 51.0128 14.6233C50.8232 14.8124 50.6687 15.0335 50.5562 15.2765C50.4269 15.5476 50.3369 15.8357 50.2889 16.1323H54.6713C54.6128 15.5566 54.365 15.0166 53.967 14.5972C53.5877 14.227 53.0747 14.0267 52.5453 14.0419ZM62.9796 12.3958C63.2352 12.3941 63.4904 12.4138 63.7427 12.4545C63.9658 12.4934 64.1842 12.5547 64.3949 12.6375L63.9513 14.4665C63.7451 14.3617 63.5258 14.2848 63.2993 14.2379C63.0611 14.1877 62.8187 14.1614 62.5754 14.1595C62.2986 14.1569 62.024 14.2079 61.7668 14.3098C61.5178 14.4051 61.2945 14.5572 61.1145 14.754C60.9285 14.9629 60.7865 15.2072 60.6971 15.4726C60.5932 15.7817 60.5425 16.1065 60.5473 16.4329V21.0904H58.7017V12.5983H60.5276V13.552C60.786 13.1725 61.142 12.87 61.5579 12.6767C62.0005 12.4859 62.4785 12.3924 62.9601 12.4023L62.9796 12.3958ZM69.2859 12.3958C69.8939 12.3895 70.4971 12.505 71.0599 12.7355C71.596 12.9555 72.0704 13.303 72.4424 13.748L71.2621 15.0088C70.9883 14.7421 70.6734 14.5215 70.3293 14.3555C69.9849 14.2008 69.6111 14.1228 69.2337 14.1269C68.8956 14.1236 68.5604 14.1904 68.249 14.3228C67.9481 14.4504 67.6772 14.6396 67.4534 14.8781C67.2251 15.1262 67.0478 15.4171 66.9317 15.7339C66.6774 16.4455 66.6774 17.2235 66.9317 17.9353C67.048 18.2521 67.2253 18.5428 67.4534 18.791C67.6774 19.0294 67.9482 19.2185 68.249 19.3463C68.5604 19.4788 68.8956 19.5455 69.2337 19.5422C69.6258 19.546 70.0137 19.4611 70.3685 19.294C70.7115 19.1264 71.0262 18.9059 71.301 18.6407L72.4358 19.9147C72.0562 20.3567 71.5781 20.7035 71.0402 20.9272C70.4798 21.1577 69.8787 21.2732 69.2729 21.2668C68.6478 21.2756 68.0272 21.1601 67.447 20.9272C66.3853 20.5033 65.55 19.6525 65.1448 18.5819C64.721 17.4422 64.721 16.1876 65.1448 15.0479C65.55 13.9775 66.3853 13.1266 67.447 12.7028C68.0279 12.484 68.646 12.3819 69.2664 12.4023L69.2859 12.3958ZM82.2442 21.0839H80.3986V20.0714C80.1038 20.4487 79.7297 20.7565 79.3029 20.9729C78.8174 21.2068 78.283 21.3211 77.7443 21.3061C76.615 21.3181 75.5302 20.8645 74.7444 20.0518C74.3544 19.6456 74.0486 19.166 73.8445 18.6407C73.4093 17.4874 73.4093 16.2145 73.8445 15.061C74.0488 14.5359 74.3546 14.0564 74.7444 13.65C75.5302 12.8372 76.615 12.3837 77.7443 12.3958C78.2836 12.3815 78.8183 12.498 79.3029 12.7355C79.7296 12.9549 80.1035 13.2648 80.3986 13.6435V12.6244H82.2442V21.0839ZM77.966 14.1399C77.5982 14.1336 77.2334 14.2072 76.8965 14.3555C76.5939 14.492 76.3231 14.6899 76.1009 14.9369C75.8798 15.1892 75.7093 15.482 75.5987 15.7991C75.3632 16.4804 75.3632 17.2213 75.5987 17.9026C75.7093 18.2197 75.8798 18.5125 76.1009 18.7649C76.3229 19.012 76.5938 19.21 76.8965 19.3463C77.5727 19.6286 78.3334 19.6286 79.0096 19.3463C79.3129 19.2137 79.5859 19.0204 79.8116 18.778C80.0399 18.5297 80.2172 18.239 80.3333 17.9222C80.5811 17.225 80.5811 16.4636 80.3333 15.7664C80.2172 15.4498 80.0399 15.1589 79.8116 14.9108C79.5857 14.6685 79.3129 14.4751 79.0096 14.3424C78.6818 14.203 78.3286 14.134 77.9726 14.1399H77.966ZM89.2416 12.4023C89.4972 12.4007 89.7524 12.4203 90.0047 12.4611C90.2278 12.4999 90.4462 12.5612 90.6569 12.644L90.2133 14.4731C90.0071 14.3682 89.7878 14.2914 89.5613 14.2444C89.3231 14.1943 89.0807 14.1681 88.8374 14.1661C88.5607 14.1633 88.286 14.2143 88.0287 14.3163C87.7799 14.4116 87.5565 14.5637 87.3766 14.7605C87.1906 14.9694 87.0485 15.2138 86.9593 15.479C86.8551 15.7883 86.8045 16.1131 86.8092 16.4393V21.097H84.9637V12.6048H86.8092V13.5585C87.0683 13.1755 87.4268 12.8706 87.8461 12.6767C88.2886 12.4861 88.7666 12.3926 89.2483 12.4023H89.2416ZM95.2937 12.4023C95.833 12.388 96.3677 12.5045 96.8523 12.742C97.2788 12.9617 97.6526 13.2714 97.9479 13.65V8.36523H99.7935V21.0839H97.9479V20.0714C97.653 20.4487 97.2791 20.7565 96.8523 20.9729C96.3666 21.2068 95.8324 21.3211 95.2937 21.3061C94.1642 21.3181 93.0796 20.8645 92.2937 20.0518C91.8969 19.6471 91.5844 19.1675 91.3742 18.6407C90.9391 17.4874 90.9391 16.2145 91.3742 15.061C91.5785 14.5359 91.8844 14.0564 92.2742 13.65C93.0599 12.8372 94.1447 12.3837 95.274 12.3958L95.2937 12.4023ZM101.946 20.3065C102.019 20.3048 102.092 20.3182 102.161 20.3458C102.226 20.3732 102.286 20.4131 102.337 20.4634C102.386 20.5118 102.426 20.5696 102.454 20.6332C102.512 20.7667 102.512 20.9177 102.454 21.0512C102.426 21.1148 102.386 21.1724 102.337 21.221C102.286 21.271 102.226 21.3109 102.161 21.3386C102.093 21.3689 102.02 21.3845 101.946 21.3844C101.726 21.3875 101.526 21.259 101.437 21.0578C101.38 20.9243 101.38 20.7731 101.437 20.6398C101.493 20.5087 101.598 20.4052 101.73 20.3522C101.8 20.3219 101.876 20.3063 101.952 20.3065H101.946ZM101.946 21.2668C102.002 21.2675 102.057 21.2564 102.109 21.2342C102.157 21.212 102.202 21.181 102.239 21.1427C102.401 20.9776 102.401 20.7134 102.239 20.5483C102.202 20.5097 102.158 20.4787 102.109 20.4568C102.055 20.4457 101.999 20.4457 101.946 20.4568C101.892 20.4463 101.836 20.4463 101.783 20.4568C101.665 20.5139 101.581 20.6227 101.555 20.7509C101.53 20.8792 101.566 21.0121 101.652 21.11C101.689 21.1486 101.734 21.1795 101.783 21.2015C101.834 21.2332 101.892 21.2533 101.952 21.2603L101.946 21.2668ZM101.946 20.6135C101.999 20.6105 102.053 20.6267 102.096 20.6593C102.131 20.6881 102.15 20.7316 102.148 20.7769C102.15 20.8157 102.136 20.8537 102.109 20.8814C102.076 20.9116 102.035 20.93 101.991 20.9336L102.154 21.1231H102.024L101.874 20.9336H101.828V21.1231H101.724V20.6201L101.946 20.6135ZM101.822 20.705V20.8357H101.946C101.967 20.8418 101.99 20.8418 102.011 20.8357C102.019 20.8192 102.019 20.7998 102.011 20.7835C102.02 20.7673 102.02 20.7473 102.011 20.7311C101.989 20.7253 101.967 20.7253 101.946 20.7311L101.822 20.705ZM95.4827 14.1726C95.1149 14.1663 94.7501 14.2398 94.4132 14.3882C94.1106 14.5246 93.8398 14.7226 93.6176 14.9696C93.3965 15.2219 93.226 15.5147 93.1154 15.8318C92.8799 16.5131 92.8799 17.254 93.1154 17.9353C93.226 18.2524 93.3965 18.5452 93.6176 18.7976C93.8396 19.0447 94.1106 19.2427 94.4132 19.3789C95.0894 19.6613 95.85 19.6613 96.5262 19.3789C96.8295 19.2464 97.1025 19.0531 97.3283 18.8107C97.5789 18.5512 97.7723 18.2417 97.8958 17.9026C98.143 17.2054 98.143 16.4441 97.8958 15.7469C97.7795 15.4301 97.6022 15.1394 97.374 14.8912C97.1481 14.6489 96.8752 14.4555 96.5719 14.3228C96.2387 14.1883 95.8808 14.1259 95.5219 14.1399L95.4827 14.1726Z" fill="url(#paint1_linear_2211_27128)"/>
<defs>
<linearGradient id="paint0_linear_2211_27128" x1="53.1522" y1="25.624" x2="53.1522" y2="38.1487" gradientUnits="userSpaceOnUse">
<stop stop-color="#D5A7FF"/>
<stop offset="1" stop-color="#BB70FF"/>
</linearGradient>
<linearGradient id="paint1_linear_2211_27128" x1="54.1939" y1="8.36523" x2="54.1939" y2="21.3845" gradientUnits="userSpaceOnUse">
<stop stop-color="#D5A7FF"/>
<stop offset="1" stop-color="#BB70FF"/>
</linearGradient>
</defs>
</svg>
