<svg width="30" height="30" viewBox="0 0 30 30" fill="none" xmlns="http://www.w3.org/2000/svg">
<path d="M15 22.699C14.3568 22.699 13.7537 22.6767 13.1887 22.6317L10.4875 25.8164C10.2824 26.0583 9.88636 25.9135 9.88636 25.5967V21.9624C6.70589 20.7682 5.625 18.0974 5.625 13.7714C5.625 7.65114 7.78846 4.84375 15 4.84375C22.2115 4.84375 24.375 7.65114 24.375 13.7714C24.375 19.8917 22.2115 22.699 15 22.699Z" fill="url(#paint0_linear_1655_62672)"/>
<path fill-rule="evenodd" clip-rule="evenodd" d="M25.9375 13.7332C25.9375 6.56796 23.4135 3.28125 15 3.28125C6.58654 3.28125 4.0625 6.56796 4.0625 13.7332C4.0625 18.8324 5.34085 21.9673 9.11058 23.3512V25.7636C9.11058 26.6516 10.2248 27.0572 10.8019 26.3794L12.7472 24.0946C13.4463 24.1551 14.1963 24.1851 15 24.1851C23.4135 24.1851 25.9375 20.8984 25.9375 13.7332ZM13.2119 22.4465C13.7696 22.4908 14.365 22.5128 15 22.5128C22.1191 22.5128 24.2548 19.7519 24.2548 13.7332C24.2548 7.7144 22.1191 4.95356 15 4.95356C7.88092 4.95356 5.74519 7.7144 5.74519 13.7332C5.74519 17.9874 6.81223 20.614 9.95192 21.7884V25.3624C9.95192 25.674 10.3429 25.8163 10.5454 25.5785L13.2119 22.4465Z" fill="url(#paint1_linear_1655_62672)"/>
<path d="M11.6468 12.2124L11.6367 12.2181L11.6277 12.2255C11.4719 12.3543 11.2264 12.7217 11.4427 13.184C11.6753 13.6811 12.1822 14.6691 13.0619 15.408C13.935 16.1415 14.8621 16.5303 15.4527 16.6549L15.4654 16.6576H15.4784C15.5013 16.6576 15.5354 16.6631 15.5936 16.6733L15.6151 16.5502L15.5936 16.6733L15.6006 16.6745C15.7926 16.7082 16.1379 16.7687 16.4319 16.4757C16.6856 16.2229 16.9171 15.9582 17.0059 15.8517C17.1178 15.7403 17.4513 15.5427 17.8683 15.6836C18.449 15.88 19.1214 16.3134 19.4321 16.5225C19.6781 16.688 20.2286 17.0825 20.4742 17.2598L20.4743 17.2599C20.596 17.3477 20.797 17.6082 20.636 17.9528C20.523 18.1947 20.2134 18.6017 19.8129 18.949C19.4103 19.2982 18.9437 19.5625 18.5213 19.5625C18.4937 19.5625 18.4162 19.5518 18.2849 19.5223C18.158 19.4938 17.9903 19.45 17.7882 19.3892C17.3843 19.2677 16.8457 19.0792 16.2255 18.8124C14.9846 18.2786 13.4206 17.4327 11.9542 16.1845C11.0221 15.391 10.151 14.3022 9.47729 13.2919C8.80181 12.279 8.33429 11.3594 8.20037 10.9079L8.19763 10.8987L8.19351 10.89C8.14781 10.7935 8.09486 10.6179 8.09377 10.4202C8.09268 10.2242 8.14235 10.0141 8.29187 9.83494C8.63223 9.42707 9.00818 9.00934 9.82221 8.61553C9.92763 8.56454 10.0774 8.5247 10.2268 8.52229C10.377 8.51988 10.5102 8.55526 10.6011 8.63493C10.9033 8.89994 11.3699 9.3655 11.6886 9.76909C11.8495 9.97295 12.0431 10.2307 12.2044 10.4546C12.2851 10.5666 12.3572 10.6695 12.4129 10.7526C12.4707 10.8387 12.5056 10.8959 12.517 10.9205C12.5386 10.9666 12.571 11.1022 12.558 11.2629C12.5452 11.4204 12.4903 11.584 12.3584 11.7048C12.1087 11.9336 11.7789 12.1393 11.6468 12.2124ZM14.9486 7.59073C14.9486 7.4441 15.0772 7.3125 15.252 7.3125C18.5028 7.3125 21.125 9.79099 21.125 12.8327C21.125 12.9793 20.9964 13.1109 20.8216 13.1109C20.6467 13.1109 20.5181 12.9793 20.5181 12.8327C20.5181 10.0842 18.1532 7.86895 15.252 7.86895C15.0772 7.86895 14.9486 7.73735 14.9486 7.59073ZM14.9486 10.8165C14.9486 10.6699 15.0772 10.5383 15.252 10.5383C16.6099 10.5383 17.6976 11.5726 17.6976 12.8327C17.6976 12.9793 17.569 13.1109 17.3942 13.1109C17.2193 13.1109 17.0907 12.9793 17.0907 12.8327C17.0907 11.8658 16.2603 11.0948 15.252 11.0948C15.0772 11.0948 14.9486 10.9632 14.9486 10.8165ZM14.9486 9.20363C14.9486 9.057 15.0772 8.9254 15.252 8.9254C17.5564 8.9254 19.4113 10.6818 19.4113 12.8327C19.4113 12.9793 19.2827 13.1109 19.1079 13.1109C18.933 13.1109 18.8044 12.9793 18.8044 12.8327C18.8044 10.975 17.2067 9.48185 15.252 9.48185C15.0772 9.48185 14.9486 9.35026 14.9486 9.20363Z" fill="white" stroke="white" stroke-width="0.25" stroke-linecap="round"/>
<defs>
<linearGradient id="paint0_linear_1655_62672" x1="15" y1="4.84375" x2="15" y2="25.9375" gradientUnits="userSpaceOnUse">
<stop stop-color="#D5A7FF"/>
<stop offset="1" stop-color="#BB70FF"/>
</linearGradient>
<linearGradient id="paint1_linear_1655_62672" x1="15" y1="3.28125" x2="15" y2="26.7188" gradientUnits="userSpaceOnUse">
<stop stop-color="#D5A7FF"/>
<stop offset="1" stop-color="#BB70FF"/>
</linearGradient>
</defs>
</svg>
