<svg width="30" height="30" viewBox="0 0 30 30" fill="none" xmlns="http://www.w3.org/2000/svg">
<path fill-rule="evenodd" clip-rule="evenodd" d="M15 24.9907C20.8896 24.9907 25.6641 20.367 25.6641 14.6633C25.6641 8.95967 20.8896 4.33594 15 4.33594C9.1104 4.33594 4.33594 8.95967 4.33594 14.6633C4.33594 17.7654 5.74826 20.5481 7.98417 22.4412V24.531C7.98417 25.3478 8.81615 25.8957 9.55795 25.5673L11.8771 24.5408C12.8648 24.8333 13.9134 24.9907 15 24.9907Z" fill="#D5A7FF"/>
<path d="M12.568 12.5885L9.62284 16.6164C9.30706 17.0482 9.87495 17.567 10.3073 17.2417L12.8221 15.3491C13.0781 15.1565 13.4369 15.1539 13.6959 15.3428L15.9324 16.9744C16.3614 17.2873 16.9744 17.1973 17.2867 16.7756L20.3754 12.6047C20.6957 12.1722 20.1235 11.6492 19.6905 11.9788L17.0317 14.0028C16.7757 14.1977 16.415 14.2013 16.1548 14.0115L13.9255 12.3852C13.4948 12.071 12.8789 12.1633 12.568 12.5885Z" fill="white" stroke="white" stroke-width="0.25"/>
</svg>
