<svg width="270" height="235" viewBox="0 0 270 235" fill="none" xmlns="http://www.w3.org/2000/svg">
<path d="M1 74.9788C1 66.4035 1.00183 60.0649 1.61996 55.1306C2.23461 50.2241 3.44639 46.8302 5.78261 44.0909C8.11882 41.3516 11.2789 39.6193 16.0269 38.2379C20.8017 36.8486 27.0605 35.8463 35.5283 34.4928L221.528 4.76084C232.853 2.95061 241.241 1.61219 247.723 1.49704C254.176 1.38239 258.556 2.4875 261.978 5.40604C265.4 8.32457 267.183 12.4753 268.088 18.8659C268.998 25.2843 269 33.7785 269 45.2469V193C269 202.928 268.998 210.273 268.24 215.909C267.486 221.517 266.001 225.284 263.142 228.142C260.284 231.001 256.517 232.486 250.909 233.24C245.273 233.998 237.928 234 228 234H42C32.0722 234 24.727 233.998 19.0905 233.24C13.4828 232.486 9.71647 231.001 6.85786 228.142C3.99925 225.284 2.51386 221.517 1.75993 215.909C1.00212 210.273 1 202.928 1 193V74.9788Z" fill="url(#paint0_linear_74_9577)" stroke="white" stroke-width="2"/>
<defs>
<linearGradient id="paint0_linear_74_9577" x1="-1.05992e-06" y1="114.687" x2="272.345" y2="134.54" gradientUnits="userSpaceOnUse">
<stop stop-color="#262B3E"/>
<stop offset="1" stop-color="#222437"/>
</linearGradient>
</defs>
</svg>
