<svg width="30" height="30" viewBox="0 0 30 30" fill="none" xmlns="http://www.w3.org/2000/svg">
<path d="M13.7187 3.38558C14.3017 2.41685 15.7061 2.41685 16.2891 3.38558L19.2022 8.22609C19.4116 8.5741 19.7532 8.82231 20.1489 8.91395L25.6527 10.1886C26.7542 10.4437 27.1882 11.7794 26.447 12.6333L22.7436 16.8995C22.4774 17.2063 22.3469 17.6079 22.382 18.0125L22.8704 23.6408C22.9682 24.7672 21.832 25.5927 20.7909 25.1517L15.589 22.9479C15.215 22.7894 14.7928 22.7894 14.4188 22.9479L9.21688 25.1517C8.17583 25.5927 7.03961 24.7672 7.13736 23.6408L7.62583 18.0125C7.66095 17.6079 7.53046 17.2063 7.26419 16.8995L3.56079 12.6333C2.81962 11.7794 3.25362 10.4437 4.35509 10.1886L9.85887 8.91395C10.2546 8.82231 10.5962 8.5741 10.8056 8.22609L13.7187 3.38558Z" fill="#FEA500" stroke="#FEA500" stroke-width="1.8"/>
</svg>
